<svg xmlns="http://www.w3.org/2000/svg" xmlns:xlink="http://www.w3.org/1999/xlink" xmlns:lucid="lucid" width="1282" height="322"><g transform="translate(-319 -399)" lucid:page-tab-id="0_0"><path d="M320 400h1280v320H320z" stroke="#000" stroke-opacity="0" stroke-width="2" fill-opacity="0"/><path d="M680 480c0 22.1-17.9 40-40 40s-40-17.9-40-40 17.9-40 40-40 40 17.9 40 40z" stroke="#94a3b8" stroke-width="2" fill="#1ee3cf"/><use xlink:href="#a" transform="matrix(1,0,0,1,605,445) translate(8.328993055555554 41.04166666666667)"/><path d="M1000 480c0 22.1-17.9 40-40 40s-40-17.9-40-40 17.9-40 40-40 40 17.9 40 40z" stroke="#94a3b8" stroke-width="2" fill="#1ee3cf"/><use xlink:href="#b" transform="matrix(1,0,0,1,925,445) translate(8.328993055555554 41.04166666666667)"/><path d="M1320 480c0 22.1-17.9 40-40 40s-40-17.9-40-40 17.9-40 40-40 40 17.9 40 40z" stroke="#94a3b8" stroke-width="2" fill="#ff5e5b"/><use xlink:href="#c" transform="matrix(1,0,0,1,1245,445) translate(8.328993055555554 41.04166666666667)"/><path d="M683 480h213.26" stroke="#1ee3cf" stroke-width="4" fill="none"/><path d="M683.05 481.98h-2.17L681 480l-.07-1.98h2.12z" stroke="#1ee3cf" stroke-width=".05" fill="#1ee3cf"/><path d="M912.53 480l-14.27 4.63v-9.26z" stroke="#1ee3cf" stroke-width="4" fill="#1ee3cf"/><path d="M1003 480h7.62m15.23 0h15.23m15.24 0h15.23m15.23 0h15.24m15.23 0h15.23m15.23 0h15.25m15.23 0h15.23m15.24 0h7.62" stroke="#94a3b8" stroke-width="4" fill="none"/><path d="M1003.05 481.98h-2.17l.12-1.97-.07-1.98h2.12z" stroke="#94a3b8" stroke-width=".05" fill="#94a3b8"/><path d="M1232.53 480l-14.27 4.63v-9.26z" stroke="#94a3b8" stroke-width="4" fill="#94a3b8"/><path d="M680 640c0 22.1-17.9 40-40 40s-40-17.9-40-40 17.9-40 40-40 40 17.9 40 40z" stroke="#94a3b8" stroke-width="2" fill="#1ee3cf"/><use xlink:href="#a" transform="matrix(1,0,0,1,605,605) translate(8.328993055555554 41.04166666666667)"/><path d="M1000 640c0 22.1-17.9 40-40 40s-40-17.9-40-40 17.9-40 40-40 40 17.9 40 40z" stroke="#94a3b8" stroke-width="2" fill="#1ee3cf"/><use xlink:href="#b" transform="matrix(1,0,0,1,925,605) translate(8.328993055555554 41.04166666666667)"/><path d="M1320 640c0 22.1-17.9 40-40 40s-40-17.9-40-40 17.9-40 40-40 40 17.9 40 40z" stroke="#94a3b8" stroke-width="2" fill="#1ee3cf"/><use xlink:href="#c" transform="matrix(1,0,0,1,1245,605) translate(8.328993055555554 41.04166666666667)"/><path d="M683 640h213.26" stroke="#1ee3cf" stroke-width="4" fill="none"/><path d="M683.05 641.98h-2.17L681 640l-.07-1.98h2.12z" stroke="#1ee3cf" stroke-width=".05" fill="#1ee3cf"/><path d="M912.53 640l-14.27 4.63v-9.26z" stroke="#1ee3cf" stroke-width="4" fill="#1ee3cf"/><path d="M1003 640h213.26" stroke="#1ee3cf" stroke-width="4" fill="none"/><path d="M1003.05 641.98h-2.17l.12-1.97-.07-1.98h2.12z" stroke="#1ee3cf" stroke-width=".05" fill="#1ee3cf"/><path d="M1232.53 640l-14.27 4.63v-9.26z" stroke="#1ee3cf" stroke-width="4" fill="#1ee3cf"/><defs><path fill="#080a0e" d="M839-1335c-182-6-269 67-259 253h491v142H580V0H400v-940H138v-142h262c-15-293 132-408 418-402 94 2 200 7 281 21v145c-75-10-177-14-260-17" id="d"/><path fill="#080a0e" d="M615-1102c343 0 484 203 482 560-1 347-147 562-488 562-336 0-475-219-479-562-4-349 156-560 485-560zm-8 989c240 0 301-180 301-429 0-245-55-427-290-427-236 0-299 181-299 427 0 243 61 429 288 429" id="e"/><path fill="#080a0e" d="M891-1484c-201 251-362 514-362 954 0 441 161 704 362 955H701C500 176 342-90 342-532c0-440 159-704 359-952h190" id="f"/><path fill="#080a0e" d="M528-1484c201 248 357 511 357 952 0 442-156 709-357 957H336C537 174 700-89 700-530c0-440-163-703-364-954h192" id="g"/><g id="a"><use transform="matrix(0.008680555555555556,0,0,0.008680555555555556,0,0)" xlink:href="#d"/><use transform="matrix(0.008680555555555556,0,0,0.008680555555555556,10.668402777777779,0)" xlink:href="#e"/><use transform="matrix(0.008680555555555556,0,0,0.008680555555555556,21.336805555555557,0)" xlink:href="#e"/><use transform="matrix(0.008680555555555556,0,0,0.008680555555555556,32.005208333333336,0)" xlink:href="#f"/><use transform="matrix(0.008680555555555556,0,0,0.008680555555555556,42.673611111111114,0)" xlink:href="#g"/></g><path fill="#080a0e" d="M365-904c58-129 161-200 334-200 130 0 228 46 293 138s98 233 98 420c0 189-34 331-102 425S824 20 698 20c-170 0-275-64-336-184 0 55-3 116-9 164H179c5-68 6-147 6-223v-1261h180c-2 193 4 394-4 580h4zm283 791c221 0 256-197 256-427 0-229-34-425-254-425-236 0-285 195-285 441 0 237 53 411 283 411" id="h"/><path fill="#080a0e" d="M1000-272c3 95 12 159 101 161 21 0 41-3 59-7V-6c-44 10-86 16-139 16-141 2-191-84-197-217h-6C748-76 648 20 446 20c-207 0-318-120-318-322 0-266 194-348 454-354l236-4c12-191-40-305-222-305-140 0-220 47-232 172l-188-17c33-204 181-292 423-292 255 0 401 118 401 364v466zm-683-27c0 109 63 184 175 182 166-3 259-96 306-217 24-65 20-120 20-200-232 7-501-28-501 235" id="i"/><path fill="#080a0e" d="M839-1102c70 0 148 7 206 17v167c-112-18-268-36-363 15-129 69-208 203-208 395V0H294c-10-367 32-789-52-1082h171c21 75 41 161 48 250h5c67-152 152-270 373-270" id="j"/><g id="b"><use transform="matrix(0.008680555555555556,0,0,0.008680555555555556,0,0)" xlink:href="#h"/><use transform="matrix(0.008680555555555556,0,0,0.008680555555555556,10.668402777777779,0)" xlink:href="#i"/><use transform="matrix(0.008680555555555556,0,0,0.008680555555555556,21.336805555555557,0)" xlink:href="#j"/><use transform="matrix(0.008680555555555556,0,0,0.008680555555555556,32.005208333333336,0)" xlink:href="#f"/><use transform="matrix(0.008680555555555556,0,0,0.008680555555555556,42.673611111111114,0)" xlink:href="#g"/></g><path fill="#080a0e" d="M147 0v-137l681-806H187v-139h844v137L349-139h719V0H147" id="k"/><g id="c"><use transform="matrix(0.008680555555555556,0,0,0.008680555555555556,0,0)" xlink:href="#h"/><use transform="matrix(0.008680555555555556,0,0,0.008680555555555556,10.668402777777779,0)" xlink:href="#i"/><use transform="matrix(0.008680555555555556,0,0,0.008680555555555556,21.336805555555557,0)" xlink:href="#k"/><use transform="matrix(0.008680555555555556,0,0,0.008680555555555556,32.005208333333336,0)" xlink:href="#f"/><use transform="matrix(0.008680555555555556,0,0,0.008680555555555556,42.673611111111114,0)" xlink:href="#g"/></g></defs></g></svg>