<svg xmlns="http://www.w3.org/2000/svg" xmlns:xlink="http://www.w3.org/1999/xlink" xmlns:lucid="lucid" width="728" height="248"><g transform="translate(-596 -436)" lucid:page-tab-id="0_0"><path d="M680 480c0 22.1-17.9 40-40 40s-40-17.9-40-40 17.9-40 40-40 40 17.9 40 40z" stroke="#1ee3cf" stroke-width="8" fill="#1ee3cf"/><use xlink:href="#a" transform="matrix(1,0,0,1,605,445) translate(3.5329861111111107 43.40277777777778)"/><use xlink:href="#b" transform="matrix(1,0,0,1,605,445) translate(58.361545138888886 43.40277777777778)"/><path d="M1000 480c0 22.1-17.9 40-40 40s-40-17.9-40-40 17.9-40 40-40 40 17.9 40 40z" stroke="#1ee3cf" stroke-width="8" fill="#1ee3cf"/><use xlink:href="#c" transform="matrix(1,0,0,1,925,445) translate(6.435546875 43.40277777777778)"/><use xlink:href="#b" transform="matrix(1,0,0,1,925,445) translate(55.458984375 43.40277777777778)"/><path d="M1320 480c0 22.1-17.9 40-40 40s-40-17.9-40-40 17.9-40 40-40 40 17.9 40 40z" stroke="#ff5e5b" stroke-width="8" fill="#ff5e5b"/><use xlink:href="#d" transform="matrix(1,0,0,1,1245,445) translate(4.482421875 43.40277777777778)"/><use xlink:href="#b" transform="matrix(1,0,0,1,1245,445) translate(57.412109375 43.40277777777778)"/><path d="M686 480h211" stroke="#e4e7eb" stroke-width="4" fill="none"/><path d="M686.05 481.98h-2.16l.1-1.93-.07-2.03h2.12z" stroke="#e4e7eb" stroke-width=".05" fill="#e4e7eb"/><path d="M912 480l-13 7.5v-15z" stroke="#e4e7eb" stroke-width="4" fill="#e4e7eb"/><path d="M1006 480h211" stroke="#e4e7eb" stroke-width="4" fill="none"/><path d="M1006.05 481.98h-2.16l.1-1.93-.07-2.03h2.12z" stroke="#e4e7eb" stroke-width=".05" fill="#e4e7eb"/><path d="M1232 480l-13 7.5v-15z" stroke="#e4e7eb" stroke-width="4" fill="#e4e7eb"/><path d="M680 640c0 22.1-17.9 40-40 40s-40-17.9-40-40 17.9-40 40-40 40 17.9 40 40z" stroke="#1ee3cf" stroke-width="8" fill="#1ee3cf"/><use xlink:href="#e" transform="matrix(1,0,0,1,605,605) translate(6.657986111111111 43.40277777777778)"/><use xlink:href="#b" transform="matrix(1,0,0,1,605,605) translate(55.236545138888886 43.40277777777778)"/><path d="M1000 640c0 22.1-17.9 40-40 40s-40-17.9-40-40 17.9-40 40-40 40 17.9 40 40z" stroke="#1ee3cf" stroke-width="8" fill="#1ee3cf"/><use xlink:href="#c" transform="matrix(1,0,0,1,925,605) translate(6.435546875 43.40277777777778)"/><use xlink:href="#b" transform="matrix(1,0,0,1,925,605) translate(55.458984375 43.40277777777778)"/><path d="M1320 640c0 22.1-17.9 40-40 40s-40-17.9-40-40 17.9-40 40-40 40 17.9 40 40z" stroke="#1ee3cf" stroke-width="8" fill="#1ee3cf"/><use xlink:href="#d" transform="matrix(1,0,0,1,1245,605) translate(4.482421875 43.40277777777778)"/><use xlink:href="#b" transform="matrix(1,0,0,1,1245,605) translate(57.412109375 43.40277777777778)"/><path d="M686 640h211" stroke="#e4e7eb" stroke-width="4" fill="none"/><path d="M686.05 641.98h-2.16l.1-1.93-.07-2.02h2.12z" stroke="#e4e7eb" stroke-width=".05" fill="#e4e7eb"/><path d="M912 640l-13 7.5v-15z" stroke="#e4e7eb" stroke-width="4" fill="#e4e7eb"/><path d="M1006 640h211" stroke="#e4e7eb" stroke-width="4" fill="none"/><path d="M1006.05 641.98h-2.16l.1-1.93-.07-2.02h2.12z" stroke="#e4e7eb" stroke-width=".05" fill="#e4e7eb"/><path d="M1232 640l-13 7.5v-15z" stroke="#e4e7eb" stroke-width="4" fill="#e4e7eb"/><defs><path fill="#080a0e" d="M678-1118v154H420V0H240v-964H20v-154h220v-149c0-194 155-293 318-293 85 0 141 18 168 30l-50 154c-19-6-47-17-97-17-111 0-159 58-159 166v109h258" id="f"/><path fill="#080a0e" d="M613 24c-304 0-509-231-509-576 0-350 205-580 509-580 305 0 511 230 511 580 0 345-206 576-511 576zm0-161c226 0 329-195 329-415 0-222-103-419-329-419-223 0-326 196-326 419 0 220 103 415 326 415" id="g"/><path fill="#080a0e" d="M218-607c0-325 108-727 258-974h175c-155 315-250 682-250 974 0 265 78 531 250 886H476C306-10 218-315 218-607" id="h"/><g id="a"><use transform="matrix(0.010850694444444444,0,0,0.010850694444444444,6.25,0)" xlink:href="#f"/><use transform="matrix(0.010850694444444444,0,0,0.010850694444444444,13.823784722222221,0)" xlink:href="#g"/><use transform="matrix(0.010850694444444444,0,0,0.010850694444444444,27.1484375,0)" xlink:href="#g"/><use transform="matrix(0.010850694444444444,0,0,0.010850694444444444,40.47309027777778,0)" xlink:href="#h"/></g><path fill="#080a0e" d="M96 279C273-86 346-350 346-607c0-292-95-659-250-974h175c150 246 258 650 258 974 0 297-91 602-258 886H96" id="i"/><use transform="matrix(0.010850694444444444,0,0,0.010850694444444444,0,0)" xlink:href="#i" id="b"/><path fill="#080a0e" d="M677 24c-213 0-288-135-325-197h-20V0H158v-1490h180v551h14c37-59 106-193 324-193 279 0 474 222 474 576 0 356-194 580-473 580zm-27-161c209 0 317-186 317-421 0-232-105-413-317-413-206 0-314 166-314 413 0 249 111 421 314 421" id="j"/><path fill="#080a0e" d="M471 26C259 26 90-98 90-318c0-256 228-303 435-329 202-27 287-16 287-108 0-139-79-219-234-219-161 0-248 86-283 164l-173-57c86-203 278-265 451-265 150 0 419 46 419 395V0H815v-152h-12C765-73 660 26 471 26zm31-159c199 0 310-134 310-271v-155c-30 35-226 55-295 64-131 17-246 59-246 186 0 116 97 176 231 176" id="k"/><path fill="#080a0e" d="M158 0v-1118h174v172h12c41-113 157-188 290-188 26 0 70 2 91 3v181c-11-2-60-10-108-10-161 0-279 109-279 260V0H158" id="l"/><g id="c"><use transform="matrix(0.010850694444444444,0,0,0.010850694444444444,0,0)" xlink:href="#j"/><use transform="matrix(0.010850694444444444,0,0,0.010850694444444444,13.823784722222221,0)" xlink:href="#k"/><use transform="matrix(0.010850694444444444,0,0,0.010850694444444444,26.302083333333332,0)" xlink:href="#l"/><use transform="matrix(0.010850694444444444,0,0,0.010850694444444444,34.66796875,0)" xlink:href="#h"/></g><path fill="#080a0e" d="M126 0v-134l627-806v-11H146v-167h839v143L376-178v11h629V0H126" id="m"/><g id="d"><use transform="matrix(0.010850694444444444,0,0,0.010850694444444444,0,0)" xlink:href="#j"/><use transform="matrix(0.010850694444444444,0,0,0.010850694444444444,13.823784722222221,0)" xlink:href="#k"/><use transform="matrix(0.010850694444444444,0,0,0.010850694444444444,26.302083333333332,0)" xlink:href="#m"/><use transform="matrix(0.010850694444444444,0,0,0.010850694444444444,38.57421875,0)" xlink:href="#h"/></g><g id="e"><use transform="matrix(0.010850694444444444,0,0,0.010850694444444444,0,0)" xlink:href="#f"/><use transform="matrix(0.010850694444444444,0,0,0.010850694444444444,7.573784722222222,0)" xlink:href="#g"/><use transform="matrix(0.010850694444444444,0,0,0.010850694444444444,20.8984375,0)" xlink:href="#g"/><use transform="matrix(0.010850694444444444,0,0,0.010850694444444444,34.22309027777778,0)" xlink:href="#h"/></g></defs></g></svg>