<svg id="fi_5431453" enable-background="new 0 0 512 512" height="512" viewBox="0 0 512 512" width="512" xmlns="http://www.w3.org/2000/svg" fill="#1ee3cf"><g><path d="m40 452v-352c0-11.028 8.972-20 20-20h36v40h200v-40h36c11.028 0 20 8.972 20 20v132h40v-132c0-33.084-26.916-60-60-60h-36v-40h-200v40h-36c-33.084 0-60 26.916-60 60v352c0 33.084 26.916 60 60 60h226.183v-40h-226.183c-11.028 0-20-8.972-20-20zm216-412v40h-120v-40z"></path><path d="m512 483.137-56.568-55.99c25.667-38.806 21.427-91.709-12.72-125.857-39.079-39.079-102.338-39.086-141.422 0-39.081 39.08-39.085 102.335-.001 141.421 34.518 34.518 87.438 38.253 125.871 12.734l55.977 56.555zm-182.427-68.711c-23.447-23.448-23.451-61.401.001-84.853 23.447-23.448 61.402-23.451 84.853 0 23.394 23.394 23.394 61.458 0 84.853-23.447 23.448-61.402 23.451-84.854 0z"></path><path d="m136 223.716-28.284 28.284 68.284 68.284 108.284-108.284-28.284-28.284-80 80z"></path></g></svg>