<?xml version="1.0" encoding="UTF-8" standalone="no"?>
<!DOCTYPE svg PUBLIC "-//W3C//DTD SVG 1.1//EN" "http://www.w3.org/Graphics/SVG/1.1/DTD/svg11.dtd">
<svg xmlns:dc="http://purl.org/dc/elements/1.1/" xmlns="http://www.w3.org/2000/svg" xmlns:xl="http://www.w3.org/1999/xlink" version="1.1" viewBox="-.5 2856.5296 1001 733.5" width="1001" height="733.5">
  <defs/>
  <g id="Canvas_7" stroke="none" fill-opacity="1" stroke-opacity="1" fill="none" stroke-dasharray="none">
    <title>Canvas 7</title>
    <rect fill="black" x="-.5" y="2856.5296" width="1001" height="733.5"/>
    <g id="Canvas_7_Layer_1">
      <title>Layer 1</title>
      <g id="Graphic_431">
        <path d="M 25 3024.5296 L 245 3024.5296 C 258.80712 3024.5296 270 3035.7225 270 3049.5296 L 270 3454.5296 C 270 3468.3367 258.80712 3479.5296 245 3479.5296 L 25 3479.5296 C 11.192881 3479.5296 16908844e-22 3468.3367 0 3454.5296 L 24868996e-21 3049.5296 C 2655988e-20 3035.7225 11.192881 3024.5296 25 3024.5296 Z" fill="black"/>
        <path d="M 25 3024.5296 L 245 3024.5296 C 258.80712 3024.5296 270 3035.7225 270 3049.5296 L 270 3454.5296 C 270 3468.3367 258.80712 3479.5296 245 3479.5296 L 25 3479.5296 C 11.192881 3479.5296 16908844e-22 3468.3367 0 3454.5296 L 24868996e-21 3049.5296 C 2655988e-20 3035.7225 11.192881 3024.5296 25 3024.5296 Z" stroke="white" stroke-linecap="round" stroke-linejoin="round" stroke-dasharray="4.0,4.0" stroke-width="1"/>
      </g>
      <g id="Graphic_426">
        <path d="M 390 3179.5296 L 610 3179.5296 C 623.8071 3179.5296 635 3190.7225 635 3204.5296 L 635 3454.5296 C 635 3468.3367 623.8071 3479.5296 610 3479.5296 L 390 3479.5296 C 376.1929 3479.5296 365 3468.3367 365 3454.5296 L 365 3204.5296 C 365 3190.7225 376.1929 3179.5296 390 3179.5296 Z" fill="black"/>
        <path d="M 390 3179.5296 L 610 3179.5296 C 623.8071 3179.5296 635 3190.7225 635 3204.5296 L 635 3454.5296 C 635 3468.3367 623.8071 3479.5296 610 3479.5296 L 390 3479.5296 C 376.1929 3479.5296 365 3468.3367 365 3454.5296 L 365 3204.5296 C 365 3190.7225 376.1929 3179.5296 390 3179.5296 Z" stroke="white" stroke-linecap="round" stroke-linejoin="round" stroke-dasharray="4.0,4.0" stroke-width="1"/>
      </g>
      <g id="Graphic_421">
        <path d="M 755 3334.5296 L 975 3334.5296 C 988.8071 3334.5296 1e3 3345.7225 1e3 3359.5296 L 1e3 3454.5296 C 1e3 3468.3367 988.8071 3479.5296 975 3479.5296 L 755 3479.5296 C 741.1929 3479.5296 730 3468.3367 730 3454.5296 L 730 3359.5296 C 730 3345.7225 741.1929 3334.5296 755 3334.5296 Z" fill="black"/>
        <path d="M 755 3334.5296 L 975 3334.5296 C 988.8071 3334.5296 1e3 3345.7225 1e3 3359.5296 L 1e3 3454.5296 C 1e3 3468.3367 988.8071 3479.5296 975 3479.5296 L 755 3479.5296 C 741.1929 3479.5296 730 3468.3367 730 3454.5296 L 730 3359.5296 C 730 3345.7225 741.1929 3334.5296 755 3334.5296 Z" stroke="white" stroke-linecap="round" stroke-linejoin="round" stroke-dasharray="4.0,4.0" stroke-width="1"/>
      </g>
      <g id="Graphic_420">
        <path d="M 755 3179.5296 L 975 3179.5296 C 988.8071 3179.5296 1e3 3190.7225 1e3 3204.5296 L 1e3 3299.5296 C 1e3 3313.3367 988.8071 3324.5296 975 3324.5296 L 755 3324.5296 C 741.1929 3324.5296 730 3313.3367 730 3299.5296 L 730 3204.5296 C 730 3190.7225 741.1929 3179.5296 755 3179.5296 Z" fill="black"/>
        <path d="M 755 3179.5296 L 975 3179.5296 C 988.8071 3179.5296 1e3 3190.7225 1e3 3204.5296 L 1e3 3299.5296 C 1e3 3313.3367 988.8071 3324.5296 975 3324.5296 L 755 3324.5296 C 741.1929 3324.5296 730 3313.3367 730 3299.5296 L 730 3204.5296 C 730 3190.7225 741.1929 3179.5296 755 3179.5296 Z" stroke="white" stroke-linecap="round" stroke-linejoin="round" stroke-dasharray="4.0,4.0" stroke-width="1"/>
      </g>
      <g id="Graphic_418">
        <path d="M 755 3024.5296 L 975 3024.5296 C 988.8071 3024.5296 1e3 3035.7225 1e3 3049.5296 L 1e3 3144.5296 C 1e3 3158.3367 988.8071 3169.5296 975 3169.5296 L 755 3169.5296 C 741.1929 3169.5296 730 3158.3367 730 3144.5296 L 730 3049.5296 C 730 3035.7225 741.1929 3024.5296 755 3024.5296 Z" fill="black"/>
        <path d="M 755 3024.5296 L 975 3024.5296 C 988.8071 3024.5296 1e3 3035.7225 1e3 3049.5296 L 1e3 3144.5296 C 1e3 3158.3367 988.8071 3169.5296 975 3169.5296 L 755 3169.5296 C 741.1929 3169.5296 730 3158.3367 730 3144.5296 L 730 3049.5296 C 730 3035.7225 741.1929 3024.5296 755 3024.5296 Z" stroke="white" stroke-linecap="round" stroke-linejoin="round" stroke-dasharray="4.0,4.0" stroke-width="1"/>
      </g>
      <g id="Graphic_415">
        <path d="M 755 3034.5296 L 975 3034.5296 C 983.2843 3034.5296 990 3041.2453 990 3049.5296 L 990 3144.5296 C 990 3152.814 983.2843 3159.5296 975 3159.5296 L 755 3159.5296 C 746.7157 3159.5296 740 3152.814 740 3144.5296 L 740 3049.5296 C 740 3041.2453 746.7157 3034.5296 755 3034.5296 Z" fill="black"/>
        <path d="M 755 3034.5296 L 975 3034.5296 C 983.2843 3034.5296 990 3041.2453 990 3049.5296 L 990 3144.5296 C 990 3152.814 983.2843 3159.5296 975 3159.5296 L 755 3159.5296 C 746.7157 3159.5296 740 3152.814 740 3144.5296 L 740 3049.5296 C 740 3041.2453 746.7157 3034.5296 755 3034.5296 Z" stroke="white" stroke-linecap="round" stroke-linejoin="round" stroke-width="1"/>
        <text transform="translate(745 3082.5296)" fill="white">
          <tspan font-family="Montserrat" font-size="24" fill="white" x="76.10087" y="23" xml:space="preserve">Worker</tspan>
        </text>
      </g>
      <g id="Graphic_416">
        <path d="M 755 3189.5296 L 975 3189.5296 C 983.2843 3189.5296 990 3196.2453 990 3204.5296 L 990 3299.5296 C 990 3307.814 983.2843 3314.5296 975 3314.5296 L 755 3314.5296 C 746.7157 3314.5296 740 3307.814 740 3299.5296 L 740 3204.5296 C 740 3196.2453 746.7157 3189.5296 755 3189.5296 Z" fill="black"/>
        <path d="M 755 3189.5296 L 975 3189.5296 C 983.2843 3189.5296 990 3196.2453 990 3204.5296 L 990 3299.5296 C 990 3307.814 983.2843 3314.5296 975 3314.5296 L 755 3314.5296 C 746.7157 3314.5296 740 3307.814 740 3299.5296 L 740 3204.5296 C 740 3196.2453 746.7157 3189.5296 755 3189.5296 Z" stroke="white" stroke-linecap="round" stroke-linejoin="round" stroke-width="1"/>
        <text transform="translate(745 3237.5296)" fill="white">
          <tspan font-family="Montserrat" font-size="24" fill="white" x="81.99767" y="23" xml:space="preserve">Server</tspan>
        </text>
      </g>
      <g id="Graphic_417">
        <path d="M 755 3344.5296 L 975 3344.5296 C 983.2843 3344.5296 990 3351.2453 990 3359.5296 L 990 3454.5296 C 990 3462.814 983.2843 3469.5296 975 3469.5296 L 755 3469.5296 C 746.7157 3469.5296 740 3462.814 740 3454.5296 L 740 3359.5296 C 740 3351.2453 746.7157 3344.5296 755 3344.5296 Z" fill="black"/>
        <path d="M 755 3344.5296 L 975 3344.5296 C 983.2843 3344.5296 990 3351.2453 990 3359.5296 L 990 3454.5296 C 990 3462.814 983.2843 3469.5296 975 3469.5296 L 755 3469.5296 C 746.7157 3469.5296 740 3462.814 740 3454.5296 L 740 3359.5296 C 740 3351.2453 746.7157 3344.5296 755 3344.5296 Z" stroke="white" stroke-linecap="round" stroke-linejoin="round" stroke-width="1"/>
        <text transform="translate(745 3392.5296)" fill="white">
          <tspan font-family="Montserrat" font-size="24" fill="white" x="73.58251" y="23" xml:space="preserve">Storage</tspan>
        </text>
      </g>
      <g id="Graphic_425">
        <path d="M 390 3024.5296 L 610 3024.5296 C 623.8071 3024.5296 635 3035.7225 635 3049.5296 L 635 3144.5296 C 635 3158.3367 623.8071 3169.5296 610 3169.5296 L 390 3169.5296 C 376.1929 3169.5296 365 3158.3367 365 3144.5296 L 365 3049.5296 C 365 3035.7225 376.1929 3024.5296 390 3024.5296 Z" fill="black"/>
        <path d="M 390 3024.5296 L 610 3024.5296 C 623.8071 3024.5296 635 3035.7225 635 3049.5296 L 635 3144.5296 C 635 3158.3367 623.8071 3169.5296 610 3169.5296 L 390 3169.5296 C 376.1929 3169.5296 365 3158.3367 365 3144.5296 L 365 3049.5296 C 365 3035.7225 376.1929 3024.5296 390 3024.5296 Z" stroke="white" stroke-linecap="round" stroke-linejoin="round" stroke-dasharray="4.0,4.0" stroke-width="1"/>
      </g>
      <g id="Graphic_424">
        <path d="M 390 3034.5296 L 610 3034.5296 C 618.2843 3034.5296 625 3041.2453 625 3049.5296 L 625 3144.5296 C 625 3152.814 618.2843 3159.5296 610 3159.5296 L 390 3159.5296 C 381.71573 3159.5296 375 3152.814 375 3144.5296 L 375 3049.5296 C 375 3041.2453 381.71573 3034.5296 390 3034.5296 Z" fill="black"/>
        <path d="M 390 3034.5296 L 610 3034.5296 C 618.2843 3034.5296 625 3041.2453 625 3049.5296 L 625 3144.5296 C 625 3152.814 618.2843 3159.5296 610 3159.5296 L 390 3159.5296 C 381.71573 3159.5296 375 3152.814 375 3144.5296 L 375 3049.5296 C 375 3041.2453 381.71573 3034.5296 390 3034.5296 Z" stroke="white" stroke-linecap="round" stroke-linejoin="round" stroke-width="1"/>
        <text transform="translate(380 3082.5296)" fill="white">
          <tspan font-family="Montserrat" font-size="24" fill="white" x="76.10087" y="23" xml:space="preserve">Worker</tspan>
        </text>
      </g>
      <g id="Graphic_423">
        <path d="M 390 3189.5296 L 610 3189.5296 C 618.2843 3189.5296 625 3196.2453 625 3204.5296 L 625 3299.5296 C 625 3307.814 618.2843 3314.5296 610 3314.5296 L 390 3314.5296 C 381.71573 3314.5296 375 3307.814 375 3299.5296 L 375 3204.5296 C 375 3196.2453 381.71573 3189.5296 390 3189.5296 Z" fill="black"/>
        <path d="M 390 3189.5296 L 610 3189.5296 C 618.2843 3189.5296 625 3196.2453 625 3204.5296 L 625 3299.5296 C 625 3307.814 618.2843 3314.5296 610 3314.5296 L 390 3314.5296 C 381.71573 3314.5296 375 3307.814 375 3299.5296 L 375 3204.5296 C 375 3196.2453 381.71573 3189.5296 390 3189.5296 Z" stroke="white" stroke-linecap="round" stroke-linejoin="round" stroke-width="1"/>
        <text transform="translate(380 3237.5296)" fill="white">
          <tspan font-family="Montserrat" font-size="24" fill="white" x="81.99767" y="23" xml:space="preserve">Server</tspan>
        </text>
      </g>
      <g id="Graphic_422">
        <path d="M 390 3344.5296 L 610 3344.5296 C 618.2843 3344.5296 625 3351.2453 625 3359.5296 L 625 3454.5296 C 625 3462.814 618.2843 3469.5296 610 3469.5296 L 390 3469.5296 C 381.71573 3469.5296 375 3462.814 375 3454.5296 L 375 3359.5296 C 375 3351.2453 381.71573 3344.5296 390 3344.5296 Z" fill="black"/>
        <path d="M 390 3344.5296 L 610 3344.5296 C 618.2843 3344.5296 625 3351.2453 625 3359.5296 L 625 3454.5296 C 625 3462.814 618.2843 3469.5296 610 3469.5296 L 390 3469.5296 C 381.71573 3469.5296 375 3462.814 375 3454.5296 L 375 3359.5296 C 375 3351.2453 381.71573 3344.5296 390 3344.5296 Z" stroke="white" stroke-linecap="round" stroke-linejoin="round" stroke-width="1"/>
        <text transform="translate(380 3392.5296)" fill="white">
          <tspan font-family="Montserrat" font-size="24" fill="white" x="73.58251" y="23" xml:space="preserve">Storage</tspan>
        </text>
      </g>
      <g id="Graphic_430">
        <path d="M 25 3034.5296 L 245 3034.5296 C 253.28427 3034.5296 260 3041.2453 260 3049.5296 L 260 3144.5296 C 260 3152.814 253.28427 3159.5296 245 3159.5296 L 25 3159.5296 C 16.715729 3159.5296 10 3152.814 10 3144.5296 L 10 3049.5296 C 10 3041.2453 16.715729 3034.5296 25 3034.5296 Z" fill="black"/>
        <path d="M 25 3034.5296 L 245 3034.5296 C 253.28427 3034.5296 260 3041.2453 260 3049.5296 L 260 3144.5296 C 260 3152.814 253.28427 3159.5296 245 3159.5296 L 25 3159.5296 C 16.715729 3159.5296 10 3152.814 10 3144.5296 L 10 3049.5296 C 10 3041.2453 16.715729 3034.5296 25 3034.5296 Z" stroke="white" stroke-linecap="round" stroke-linejoin="round" stroke-width="1"/>
        <text transform="translate(15 3082.5296)" fill="white">
          <tspan font-family="Montserrat" font-size="24" fill="white" x="76.10087" y="23" xml:space="preserve">Worker</tspan>
        </text>
      </g>
      <g id="Graphic_429">
        <path d="M 25 3189.5296 L 245 3189.5296 C 253.28427 3189.5296 260 3196.2453 260 3204.5296 L 260 3299.5296 C 260 3307.814 253.28427 3314.5296 245 3314.5296 L 25 3314.5296 C 16.715729 3314.5296 10 3307.814 10 3299.5296 L 10 3204.5296 C 10 3196.2453 16.715729 3189.5296 25 3189.5296 Z" fill="black"/>
        <path d="M 25 3189.5296 L 245 3189.5296 C 253.28427 3189.5296 260 3196.2453 260 3204.5296 L 260 3299.5296 C 260 3307.814 253.28427 3314.5296 245 3314.5296 L 25 3314.5296 C 16.715729 3314.5296 10 3307.814 10 3299.5296 L 10 3204.5296 C 10 3196.2453 16.715729 3189.5296 25 3189.5296 Z" stroke="white" stroke-linecap="round" stroke-linejoin="round" stroke-width="1"/>
        <text transform="translate(15 3237.5296)" fill="white">
          <tspan font-family="Montserrat" font-size="24" fill="white" x="81.99767" y="23" xml:space="preserve">Server</tspan>
        </text>
      </g>
      <g id="Graphic_428">
        <path d="M 25 3344.5296 L 245 3344.5296 C 253.28427 3344.5296 260 3351.2453 260 3359.5296 L 260 3454.5296 C 260 3462.814 253.28427 3469.5296 245 3469.5296 L 25 3469.5296 C 16.715729 3469.5296 10 3462.814 10 3454.5296 L 10 3359.5296 C 10 3351.2453 16.715729 3344.5296 25 3344.5296 Z" fill="black"/>
        <path d="M 25 3344.5296 L 245 3344.5296 C 253.28427 3344.5296 260 3351.2453 260 3359.5296 L 260 3454.5296 C 260 3462.814 253.28427 3469.5296 245 3469.5296 L 25 3469.5296 C 16.715729 3469.5296 10 3462.814 10 3454.5296 L 10 3359.5296 C 10 3351.2453 16.715729 3344.5296 25 3344.5296 Z" stroke="white" stroke-linecap="round" stroke-linejoin="round" stroke-width="1"/>
        <text transform="translate(15 3392.5296)" fill="white">
          <tspan font-family="Montserrat" font-size="24" fill="white" x="73.58251" y="23" xml:space="preserve">Storage</tspan>
        </text>
      </g>
      <g id="Graphic_435">
        <text transform="translate(35.984932 2861.5296)" fill="white">
          <tspan font-family="Montserrat" font-size="48" fill="white" x="0" y="46" xml:space="preserve">Develop</tspan>
        </text>
      </g>
      <g id="Graphic_436">
        <text transform="translate(416.80725 2861.5296)" fill="white">
          <tspan font-family="Montserrat" font-size="48" fill="white" x="0" y="46" xml:space="preserve">Debug</tspan>
        </text>
      </g>
      <g id="Graphic_437">
        <text transform="translate(767.5066 2861.5296)" fill="white">
          <tspan font-family="Montserrat" font-size="48" fill="white" x="0" y="46" xml:space="preserve">Operate</tspan>
        </text>
      </g>
      <g id="Graphic_439">
        <text transform="translate(49.375225 2960.0296)" fill="white">
          <tspan font-family="Montserrat" font-size="24" fill="white" x="0" y="23" xml:space="preserve">All in-memory</tspan>
        </text>
      </g>
      <g id="Graphic_440">
        <rect x="10" y="3529.5296" width="250" height="60" fill="white" fill-opacity=".09692383"/>
        <rect x="10" y="3529.5296" width="250" height="60" stroke="white" stroke-linecap="round" stroke-linejoin="round" stroke-width="1"/>
        <text transform="translate(15 3545.0296)" fill="white">
          <tspan font-family="Montserrat" font-size="24" fill="white" x="39.67091" y="23" xml:space="preserve">node index.ts</tspan>
        </text>
      </g>
      <g id="Graphic_441">
        <rect x="730" y="3529.5296" width="270" height="60" fill="white" fill-opacity=".09692383"/>
        <rect x="730" y="3529.5296" width="270" height="60" stroke="white" stroke-linecap="round" stroke-linejoin="round" stroke-width="1"/>
        <text transform="translate(735 3545.0296)" fill="white">
          <tspan font-family="Montserrat" font-size="24" fill="white" x="42.79532" y="23" xml:space="preserve">resonate serve</tspan>
        </text>
      </g>
      <g id="Graphic_442">
        <rect x="365" y="3529.5296" width="270" height="60" fill="white" fill-opacity=".09692383"/>
        <rect x="365" y="3529.5296" width="270" height="60" stroke="white" stroke-linecap="round" stroke-linejoin="round" stroke-width="1"/>
        <text transform="translate(370 3545.0296)" fill="white">
          <tspan font-family="Montserrat" font-size="24" fill="white" x="52.69849" y="23" xml:space="preserve">resonate dev</tspan>
        </text>
      </g>
      <g id="Graphic_443">
        <text transform="translate(407.26783 2960.0296)" fill="white">
          <tspan font-family="Montserrat" font-size="24" fill="white" x="682121e-18" y="23" xml:space="preserve">Separate server</tspan>
        </text>
      </g>
      <g id="Graphic_444">
        <text transform="translate(770.9053 2960.0296)" fill="white">
          <tspan font-family="Montserrat" font-size="24" fill="white" x="18474111e-20" y="23" xml:space="preserve">Full persistence</tspan>
        </text>
      </g>
    </g>
  </g>
</svg>
