<svg id="_x32_4_Intersect_Shape" enable-background="new 0 0 512 512" viewBox="0 0 512 512" xmlns="http://www.w3.org/2000/svg" fill="#353f58"><path d="m175.384 174.084h156.431c3.301 0 5.901-2.601 5.901-5.901v-162.332c0-3.301-2.6-5.901-5.901-5.901h-324.664c-3.301 0-5.901 2.601-5.901 5.901v324.963c0 3.301 2.601 5.901 5.901 5.901h162.332c3.301 0 5.901-2.601 5.901-5.901zm329.465 1.4h-162.332c-3.301 0-5.901 2.601-5.901 5.901v156.431h-156.531c-3.301 0-5.901 2.601-5.901 5.901v162.332c0 3.301 2.601 5.901 5.901 5.901h324.963c3.301 0 5.901-2.601 5.901-5.901v-324.664c-.199-3.2-2.8-5.901-6.1-5.901z"/></svg>