<svg xmlns="http://www.w3.org/2000/svg" xmlns:xlink="http://www.w3.org/1999/xlink" xmlns:lucid="lucid" width="1042" height="802"><g transform="translate(-559 -319)" lucid:page-tab-id="0_0"><path d="M500 0h1500v1500H500z" fill="#fff"/><path d="M560 326a6 6 0 0 1 6-6h1028a6 6 0 0 1 6 6v788a6 6 0 0 1-6 6H566a6 6 0 0 1-6-6z" stroke="#000" stroke-opacity="0" stroke-width="2" fill="#fff"/><path d="M640 366a6 6 0 0 1 6-6h868a6 6 0 0 1 6 6v108a6 6 0 0 1-6 6H646a6 6 0 0 1-6-6z" stroke="#000" stroke-width="2" fill="#fff"/><use xlink:href="#a" transform="matrix(1,0,0,1,652,372) translate(322.05381944444446 57.52777777777778)"/><use xlink:href="#b" transform="matrix(1,0,0,1,652,372) translate(431.05989583333337 57.52777777777778)"/><path d="M640 566a6 6 0 0 1 6-6h148a6 6 0 0 1 6 6v108a6 6 0 0 1-6 6H646a6 6 0 0 1-6-6z" stroke="#000" stroke-width="2" fill="#fff"/><use xlink:href="#c" transform="matrix(1,0,0,1,652,572) translate(16.621961805555557 39.52777777777778)"/><use xlink:href="#b" transform="matrix(1,0,0,1,652,572) translate(16.5568576388889 71.79340277777777)"/><path d="M880 566a6 6 0 0 1 6-6h148a6 6 0 0 1 6 6v108a6 6 0 0 1-6 6H886a6 6 0 0 1-6-6z" stroke="#000" stroke-width="2" fill="#fff"/><use xlink:href="#d" transform="matrix(1,0,0,1,892,572) translate(22.779730902777786 39.52777777777778)"/><use xlink:href="#b" transform="matrix(1,0,0,1,892,572) translate(16.5568576388889 71.79340277777777)"/><path d="M1120 566a6 6 0 0 1 6-6h148a6 6 0 0 1 6 6v108.24a6 6 0 0 1-6 6h-148a6 6 0 0 1-6-6z" stroke="#000" stroke-width="2" fill="#fff"/><use xlink:href="#c" transform="matrix(1,0,0,1,1132,572) translate(16.621961805555557 39.71527777777778)"/><use xlink:href="#b" transform="matrix(1,0,0,1,1132,572) translate(16.5568576388889 71.98090277777777)"/><path d="M1360 565.76a6 6 0 0 1 6-6h148a6 6 0 0 1 6 6v106.66a6 6 0 0 1-6 6h-148a6 6 0 0 1-6-6z" stroke="#000" stroke-width="2" fill="#fff"/><use xlink:href="#d" transform="matrix(1,0,0,1,1372,571.7565104166667) translate(22.779730902777786 39.34027777777778)"/><use xlink:href="#b" transform="matrix(1,0,0,1,1372,571.7565104166667) translate(16.5568576388889 71.60590277777777)"/><path d="M640 766.12a6 6 0 0 1 6-6h148a6 6 0 0 1 6 6v108a6 6 0 0 1-6 6H646a6 6 0 0 1-6-6z" stroke="#000" stroke-width="2" fill="#fff"/><use xlink:href="#d" transform="matrix(1,0,0,1,652,772.1217447916666) translate(22.779730902777786 39.52777777777778)"/><use xlink:href="#b" transform="matrix(1,0,0,1,652,772.1217447916666) translate(16.5568576388889 71.79340277777777)"/><path d="M1120 765.88a6 6 0 0 1 6-6h148a6 6 0 0 1 6 6v108.24a6 6 0 0 1-6 6h-148a6 6 0 0 1-6-6z" stroke="#000" stroke-width="2" fill="#fff"/><use xlink:href="#c" transform="matrix(1,0,0,1,1132,771.8782552083334) translate(16.621961805555557 39.71527777777778)"/><use xlink:href="#b" transform="matrix(1,0,0,1,1132,771.8782552083334) translate(16.5568576388889 71.98090277777777)"/><path d="M1120 966a6 6 0 0 1 6-6h148a6 6 0 0 1 6 6v108a6 6 0 0 1-6 6h-148a6 6 0 0 1-6-6z" stroke="#000" stroke-width="2" fill="#fff"/><use xlink:href="#d" transform="matrix(1,0,0,1,1132,972) translate(22.779730902777786 39.52777777777778)"/><use xlink:href="#b" transform="matrix(1,0,0,1,1132,972) translate(16.5568576388889 71.79340277777777)"/><path d="M685.33 542.62V481.5" stroke="#3a414a" fill="none"/><path d="M685.33 557.38l-4.63-14.26h9.27z" stroke="#3a414a" fill="#3a414a"/><path d="M685.8 481.5h-.94v-.5h.95z" stroke="#3a414a" stroke-width=".05" fill="#3a414a"/><path d="M765.33 558.5v-61.12" stroke="#3a414a" fill="none"/><path d="M765.8 559h-.94v-.5h.95z" stroke="#3a414a" stroke-width=".05" fill="#3a414a"/><path d="M765.33 482.62l4.64 14.26h-9.27z" stroke="#3a414a" fill="#3a414a"/><path d="M685.33 681.5v61.24" stroke="#3a414a" fill="none"/><path d="M685.8 681.5h-.94v-.5h.95z" stroke="#3a414a" stroke-width=".05" fill="#3a414a"/><path d="M685.33 757.5l-4.63-14.26h9.27z" stroke="#3a414a" fill="#3a414a"/><path d="M764 758.62v-61.24" stroke="#3a414a" fill="none"/><path d="M764.48 759.12h-.96v-.5h.96z" stroke="#3a414a" stroke-width=".05" fill="#3a414a"/><path d="M764 682.62l4.63 14.26h-9.26z" stroke="#3a414a" fill="#3a414a"/><path d="M1002.67 558.5v-61.12" stroke="#3a414a" fill="none"/><path d="M1003.14 559h-.95v-.5h.94z" stroke="#3a414a" stroke-width=".05" fill="#3a414a"/><path d="M1002.67 482.62l4.63 14.26h-9.27z" stroke="#3a414a" fill="#3a414a"/><path d="M924 481.5V542.62" stroke="#3a414a" fill="none"/><path d="M924.48 481.5h-.96v-.5h.96z" stroke="#3a414a" stroke-width=".05" fill="#3a414a"/><path d="M924 557.38l-4.63-14.26h9.26z" stroke="#3a414a" fill="#3a414a"/><path d="M1240 558.5v-61.12" stroke="#3a414a" fill="none"/><path d="M1240.47 559h-.94v-.5h.94z" stroke="#3a414a" stroke-width=".05" fill="#3a414a"/><path d="M1240 482.62l4.63 14.26h-9.27z" stroke="#3a414a" fill="#3a414a"/><path d="M1165.33 481.5v61.12" stroke="#3a414a" fill="none"/><path d="M1165.8 481.5h-.94v-.5h.95z" stroke="#3a414a" stroke-width=".05" fill="#3a414a"/><path d="M1165.33 557.38l-4.63-14.26h9.27z" stroke="#3a414a" fill="#3a414a"/><path d="M1161.33 681.74v60.75" stroke="#3a414a" fill="none"/><path d="M1161.8 681.76h-.94v-.52h.95z" stroke="#3a414a" stroke-width=".05" fill="#3a414a"/><path d="M1161.33 757.26L1156.7 743h9.27z" stroke="#3a414a" fill="#3a414a"/><path d="M1246.67 758.38v-60.75" stroke="#3a414a" fill="none"/><path d="M1247.14 758.88h-.95v-.5h.94z" stroke="#3a414a" stroke-width=".05" fill="#3a414a"/><path d="M1246.67 682.86l4.63 14.27h-9.27z" stroke="#3a414a" fill="#3a414a"/><path d="M1162.67 881.62v61" stroke="#3a414a" fill="none"/><path d="M1163.14 881.63h-.95v-.5h.94z" stroke="#3a414a" stroke-width=".05" fill="#3a414a"/><path d="M1162.67 957.38l-4.64-14.26h9.27z" stroke="#3a414a" fill="#3a414a"/><path d="M1244 958.5v-61" stroke="#3a414a" fill="none"/><path d="M1244.47 959h-.94v-.5h.94z" stroke="#3a414a" stroke-width=".05" fill="#3a414a"/><path d="M1244 882.74l4.63 14.27h-9.27z" stroke="#3a414a" fill="#3a414a"/><path d="M1478.67 558.26v-60.88" stroke="#3a414a" fill="none"/><path d="M1479.14 558.76h-.95v-.52h.94z" stroke="#3a414a" stroke-width=".05" fill="#3a414a"/><path d="M1478.67 482.62l4.63 14.26h-9.27z" stroke="#3a414a" fill="#3a414a"/><path d="M1397.33 481.5v60.88" stroke="#3a414a" fill="none"/><path d="M1397.8 481.5h-.94v-.5h.95z" stroke="#3a414a" stroke-width=".05" fill="#3a414a"/><path d="M1397.33 557.14l-4.63-14.27h9.27z" stroke="#3a414a" fill="#3a414a"/><defs><path d="M783 20c-382 0-661-292-661-764 0-473 279-766 661-766 302 0 548 182 601 489h-190c-42-204-217-313-411-313-268 0-476 208-476 590 0 381 209 588 476 588 195 0 369-110 411-313h190c-52 303-296 489-601 489" id="e"/><path d="M613 24c-304 0-509-231-509-576 0-350 205-580 509-580 305 0 511 230 511 580 0 345-206 576-511 576zm0-161c226 0 329-195 329-415 0-222-103-419-329-419-223 0-326 196-326 419 0 220 103 415 326 415" id="f"/><path d="M158 0v-1118h174v172h12c41-113 157-188 290-188 26 0 70 2 91 3v181c-11-2-60-10-108-10-161 0-279 109-279 260V0H158" id="g"/><path d="M537 14c-226 0-379-139-379-422v-710h180v695c0 172 97 275 253 275 160 0 281-109 281-300v-670h181V0H879v-209C806-46 684 14 537 14" id="h"/><path d="M598-1118v154H368v674c0 100 37 144 132 144 23 0 62-6 92-12L629-6c-37 13-88 20-134 20-193 0-307-107-307-290v-688H20v-154h168v-266h180v266h230" id="i"/><path d="M158 0v-1118h180V0H158zm91-1301c-68 0-125-53-125-119s57-119 125-119c69 0 126 53 126 119s-57 119-126 119" id="j"/><path d="M338-670V0H158v-1118h173l1 207c72-158 192-221 342-221 226 0 378 139 378 422V0H872v-695c0-172-96-275-252-275-161 0-282 109-282 300" id="k"/><path d="M628 24c-324 0-524-230-524-574 0-343 198-582 503-582 237 0 487 146 487 559v75H286c9 234 145 362 343 362 132 0 231-58 273-172l174 48C1024-91 857 24 628 24zM287-650h624c-17-190-120-322-304-322-192 0-309 151-320 322" id="l"/><g id="a"><use transform="matrix(0.010850694444444444,0,0,0.010850694444444444,0,0)" xlink:href="#e"/><use transform="matrix(0.010850694444444444,0,0,0.010850694444444444,16.23263888888889,0)" xlink:href="#f"/><use transform="matrix(0.010850694444444444,0,0,0.010850694444444444,29.557291666666664,0)" xlink:href="#g"/><use transform="matrix(0.010850694444444444,0,0,0.010850694444444444,37.55425347222222,0)" xlink:href="#f"/><use transform="matrix(0.010850694444444444,0,0,0.010850694444444444,50.87890625,0)" xlink:href="#h"/><use transform="matrix(0.010850694444444444,0,0,0.010850694444444444,64.01909722222223,0)" xlink:href="#i"/><use transform="matrix(0.010850694444444444,0,0,0.010850694444444444,71.2890625,0)" xlink:href="#j"/><use transform="matrix(0.010850694444444444,0,0,0.010850694444444444,76.67100694444444,0)" xlink:href="#k"/><use transform="matrix(0.010850694444444444,0,0,0.010850694444444444,89.80034722222221,0)" xlink:href="#l"/></g><path d="M180 0v-1490h908v168H370v486h669v168H370v500h727V0H180" id="m"/><path d="M65 0l393-574-370-544h210c88 136 192 297 267 435 67-142 176-302 264-435h206L661-564 1053 0H844c-94-144-206-310-287-458C484-308 366-142 273 0H65" id="n"/><path d="M613 24c-304 0-509-231-509-576 0-350 205-580 509-580 216 0 392 114 453 309l-173 49c-33-115-133-197-280-197-223 0-326 196-326 419 0 220 103 415 326 415 150 0 252-85 285-206l172 49C1010-95 832 24 613 24" id="o"/><g id="b"><use transform="matrix(0.010850694444444444,0,0,0.010850694444444444,0,0)" xlink:href="#m"/><use transform="matrix(0.010850694444444444,0,0,0.010850694444444444,13.35720486111111,0)" xlink:href="#n"/><use transform="matrix(0.010850694444444444,0,0,0.010850694444444444,24.989149305555554,0)" xlink:href="#l"/><use transform="matrix(0.010850694444444444,0,0,0.010850694444444444,37.94487847222222,0)" xlink:href="#o"/><use transform="matrix(0.010850694444444444,0,0,0.010850694444444444,50.64019097222222,0)" xlink:href="#h"/><use transform="matrix(0.010850694444444444,0,0,0.010850694444444444,63.78038194444444,0)" xlink:href="#i"/><use transform="matrix(0.010850694444444444,0,0,0.010850694444444444,71.05034722222221,0)" xlink:href="#j"/><use transform="matrix(0.010850694444444444,0,0,0.010850694444444444,76.43229166666666,0)" xlink:href="#f"/><use transform="matrix(0.010850694444444444,0,0,0.010850694444444444,89.75694444444441,0)" xlink:href="#k"/></g><g id="c"><use transform="matrix(0.010850694444444444,0,0,0.010850694444444444,0,0)" xlink:href="#e"/><use transform="matrix(0.010850694444444444,0,0,0.010850694444444444,16.23263888888889,0)" xlink:href="#f"/><use transform="matrix(0.010850694444444444,0,0,0.010850694444444444,29.557291666666664,0)" xlink:href="#g"/><use transform="matrix(0.010850694444444444,0,0,0.010850694444444444,37.55425347222222,0)" xlink:href="#f"/><use transform="matrix(0.010850694444444444,0,0,0.010850694444444444,50.87890625,0)" xlink:href="#h"/><use transform="matrix(0.010850694444444444,0,0,0.010850694444444444,64.01909722222223,0)" xlink:href="#i"/><use transform="matrix(0.010850694444444444,0,0,0.010850694444444444,71.2890625,0)" xlink:href="#j"/><use transform="matrix(0.010850694444444444,0,0,0.010850694444444444,76.67100694444444,0)" xlink:href="#k"/><use transform="matrix(0.010850694444444444,0,0,0.010850694444444444,89.80034722222221,0)" xlink:href="#l"/></g><path d="M180 0v-1490h901v168H370v510h643v168H370V0H180" id="p"/><g id="d"><use transform="matrix(0.010850694444444444,0,0,0.010850694444444444,0,0)" xlink:href="#p"/><use transform="matrix(0.010850694444444444,0,0,0.010850694444444444,12.369791666666666,0)" xlink:href="#h"/><use transform="matrix(0.010850694444444444,0,0,0.010850694444444444,25.50998263888889,0)" xlink:href="#k"/><use transform="matrix(0.010850694444444444,0,0,0.010850694444444444,38.639322916666664,0)" xlink:href="#o"/><use transform="matrix(0.010850694444444444,0,0,0.010850694444444444,51.334635416666664,0)" xlink:href="#i"/><use transform="matrix(0.010850694444444444,0,0,0.010850694444444444,58.60460069444444,0)" xlink:href="#j"/><use transform="matrix(0.010850694444444444,0,0,0.010850694444444444,63.986545138888886,0)" xlink:href="#f"/><use transform="matrix(0.010850694444444444,0,0,0.010850694444444444,77.31119791666666,0)" xlink:href="#k"/></g></defs></g></svg>