<?xml version="1.0" encoding="UTF-8" standalone="no"?>
<!DOCTYPE svg PUBLIC "-//W3C//DTD SVG 1.1//EN" "http://www.w3.org/Graphics/SVG/1.1/DTD/svg11.dtd">
<svg xmlns:dc="http://purl.org/dc/elements/1.1/" xmlns="http://www.w3.org/2000/svg" xmlns:xl="http://www.w3.org/1999/xlink" version="1.1" viewBox="1840.5 -7318 1001 733.5" width="1001" height="733.5">
  <defs/>
  <g id="Canvas_2" stroke="none" fill-opacity="1" stroke-opacity="1" fill="none" stroke-dasharray="none">
    <title>Canvas 2</title>
    <rect fill="white" x="1840.5" y="-7318" width="1001" height="733.5"/>
    <g id="Canvas_2_Layer_1">
      <title>Layer 1</title>
      <g id="Graphic_418">
        <path d="M 1866 -7150 L 2086 -7150 C 2099.807 -7150 2111 -7138.807 2111 -7125 L 2111 -6720 C 2111 -6706.193 2099.807 -6695 2086 -6695 L 1866 -6695 C 1852.1929 -6695 1841 -6706.193 1841 -6720 L 1841 -7125 C 1841 -7138.807 1852.1929 -7150 1866 -7150 Z" fill="white"/>
        <path d="M 1866 -7150 L 2086 -7150 C 2099.807 -7150 2111 -7138.807 2111 -7125 L 2111 -6720 C 2111 -6706.193 2099.807 -6695 2086 -6695 L 1866 -6695 C 1852.1929 -6695 1841 -6706.193 1841 -6720 L 1841 -7125 C 1841 -7138.807 1852.1929 -7150 1866 -7150 Z" stroke="#353f58" stroke-linecap="round" stroke-linejoin="round" stroke-dasharray="4.0,4.0" stroke-width="1"/>
      </g>
      <g id="Graphic_417">
        <path d="M 2231 -6995 L 2451 -6995 C 2464.807 -6995 2476 -6983.807 2476 -6970 L 2476 -6720 C 2476 -6706.193 2464.807 -6695 2451 -6695 L 2231 -6695 C 2217.193 -6695 2206 -6706.193 2206 -6720 L 2206 -6970 C 2206 -6983.807 2217.193 -6995 2231 -6995 Z" fill="white"/>
        <path d="M 2231 -6995 L 2451 -6995 C 2464.807 -6995 2476 -6983.807 2476 -6970 L 2476 -6720 C 2476 -6706.193 2464.807 -6695 2451 -6695 L 2231 -6695 C 2217.193 -6695 2206 -6706.193 2206 -6720 L 2206 -6970 C 2206 -6983.807 2217.193 -6995 2231 -6995 Z" stroke="#353f58" stroke-linecap="round" stroke-linejoin="round" stroke-dasharray="4.0,4.0" stroke-width="1"/>
      </g>
      <g id="Graphic_416">
        <path d="M 2596 -6840 L 2816 -6840 C 2829.807 -6840 2841 -6828.807 2841 -6815 L 2841 -6720 C 2841 -6706.193 2829.807 -6695 2816 -6695 L 2596 -6695 C 2582.193 -6695 2571 -6706.193 2571 -6720 L 2571 -6815 C 2571 -6828.807 2582.193 -6840 2596 -6840 Z" fill="white"/>
        <path d="M 2596 -6840 L 2816 -6840 C 2829.807 -6840 2841 -6828.807 2841 -6815 L 2841 -6720 C 2841 -6706.193 2829.807 -6695 2816 -6695 L 2596 -6695 C 2582.193 -6695 2571 -6706.193 2571 -6720 L 2571 -6815 C 2571 -6828.807 2582.193 -6840 2596 -6840 Z" stroke="#353f58" stroke-linecap="round" stroke-linejoin="round" stroke-dasharray="4.0,4.0" stroke-width="1"/>
      </g>
      <g id="Graphic_415">
        <path d="M 2596 -6995 L 2816 -6995 C 2829.807 -6995 2841 -6983.807 2841 -6970 L 2841 -6875 C 2841 -6861.193 2829.807 -6850 2816 -6850 L 2596 -6850 C 2582.193 -6850 2571 -6861.193 2571 -6875 L 2571 -6970 C 2571 -6983.807 2582.193 -6995 2596 -6995 Z" fill="white"/>
        <path d="M 2596 -6995 L 2816 -6995 C 2829.807 -6995 2841 -6983.807 2841 -6970 L 2841 -6875 C 2841 -6861.193 2829.807 -6850 2816 -6850 L 2596 -6850 C 2582.193 -6850 2571 -6861.193 2571 -6875 L 2571 -6970 C 2571 -6983.807 2582.193 -6995 2596 -6995 Z" stroke="#353f58" stroke-linecap="round" stroke-linejoin="round" stroke-dasharray="4.0,4.0" stroke-width="1"/>
      </g>
      <g id="Graphic_414">
        <path d="M 2596 -7150 L 2816 -7150 C 2829.807 -7150 2841 -7138.807 2841 -7125 L 2841 -7030 C 2841 -7016.193 2829.807 -7005 2816 -7005 L 2596 -7005 C 2582.193 -7005 2571 -7016.193 2571 -7030 L 2571 -7125 C 2571 -7138.807 2582.193 -7150 2596 -7150 Z" fill="white"/>
        <path d="M 2596 -7150 L 2816 -7150 C 2829.807 -7150 2841 -7138.807 2841 -7125 L 2841 -7030 C 2841 -7016.193 2829.807 -7005 2816 -7005 L 2596 -7005 C 2582.193 -7005 2571 -7016.193 2571 -7030 L 2571 -7125 C 2571 -7138.807 2582.193 -7150 2596 -7150 Z" stroke="#353f58" stroke-linecap="round" stroke-linejoin="round" stroke-dasharray="4.0,4.0" stroke-width="1"/>
      </g>
      <g id="Graphic_413">
        <path d="M 2596 -7140 L 2816 -7140 C 2824.2843 -7140 2831 -7133.284 2831 -7125 L 2831 -7030 C 2831 -7021.716 2824.2843 -7015 2816 -7015 L 2596 -7015 C 2587.7157 -7015 2581 -7021.716 2581 -7030 L 2581 -7125 C 2581 -7133.284 2587.7157 -7140 2596 -7140 Z" fill="#353f58"/>
        <path d="M 2596 -7140 L 2816 -7140 C 2824.2843 -7140 2831 -7133.284 2831 -7125 L 2831 -7030 C 2831 -7021.716 2824.2843 -7015 2816 -7015 L 2596 -7015 C 2587.7157 -7015 2581 -7021.716 2581 -7030 L 2581 -7125 C 2581 -7133.284 2587.7157 -7140 2596 -7140 Z" stroke="white" stroke-linecap="round" stroke-linejoin="round" stroke-width="1"/>
        <text transform="translate(2586 -7092)" fill="white">
          <tspan font-family="Montserrat" font-size="24" fill="white" x="76.10087" y="23" xml:space="preserve">Worker</tspan>
        </text>
      </g>
      <g id="Graphic_412">
        <path d="M 2596 -6985 L 2816 -6985 C 2824.2843 -6985 2831 -6978.284 2831 -6970 L 2831 -6875 C 2831 -6866.716 2824.2843 -6860 2816 -6860 L 2596 -6860 C 2587.7157 -6860 2581 -6866.716 2581 -6875 L 2581 -6970 C 2581 -6978.284 2587.7157 -6985 2596 -6985 Z" fill="#353f58"/>
        <path d="M 2596 -6985 L 2816 -6985 C 2824.2843 -6985 2831 -6978.284 2831 -6970 L 2831 -6875 C 2831 -6866.716 2824.2843 -6860 2816 -6860 L 2596 -6860 C 2587.7157 -6860 2581 -6866.716 2581 -6875 L 2581 -6970 C 2581 -6978.284 2587.7157 -6985 2596 -6985 Z" stroke="white" stroke-linecap="round" stroke-linejoin="round" stroke-width="1"/>
        <text transform="translate(2586 -6937)" fill="white">
          <tspan font-family="Montserrat" font-size="24" fill="white" x="81.99767" y="23" xml:space="preserve">Server</tspan>
        </text>
      </g>
      <g id="Graphic_411">
        <path d="M 2596 -6830 L 2816 -6830 C 2824.2843 -6830 2831 -6823.284 2831 -6815 L 2831 -6720 C 2831 -6711.716 2824.2843 -6705 2816 -6705 L 2596 -6705 C 2587.7157 -6705 2581 -6711.716 2581 -6720 L 2581 -6815 C 2581 -6823.284 2587.7157 -6830 2596 -6830 Z" fill="#353f58"/>
        <path d="M 2596 -6830 L 2816 -6830 C 2824.2843 -6830 2831 -6823.284 2831 -6815 L 2831 -6720 C 2831 -6711.716 2824.2843 -6705 2816 -6705 L 2596 -6705 C 2587.7157 -6705 2581 -6711.716 2581 -6720 L 2581 -6815 C 2581 -6823.284 2587.7157 -6830 2596 -6830 Z" stroke="white" stroke-linecap="round" stroke-linejoin="round" stroke-width="1"/>
        <text transform="translate(2586 -6782)" fill="white">
          <tspan font-family="Montserrat" font-size="24" fill="white" x="73.58251" y="23" xml:space="preserve">Storage</tspan>
        </text>
      </g>
      <g id="Graphic_410">
        <path d="M 2231 -7150 L 2451 -7150 C 2464.807 -7150 2476 -7138.807 2476 -7125 L 2476 -7030 C 2476 -7016.193 2464.807 -7005 2451 -7005 L 2231 -7005 C 2217.193 -7005 2206 -7016.193 2206 -7030 L 2206 -7125 C 2206 -7138.807 2217.193 -7150 2231 -7150 Z" fill="white"/>
        <path d="M 2231 -7150 L 2451 -7150 C 2464.807 -7150 2476 -7138.807 2476 -7125 L 2476 -7030 C 2476 -7016.193 2464.807 -7005 2451 -7005 L 2231 -7005 C 2217.193 -7005 2206 -7016.193 2206 -7030 L 2206 -7125 C 2206 -7138.807 2217.193 -7150 2231 -7150 Z" stroke="#353f58" stroke-linecap="round" stroke-linejoin="round" stroke-dasharray="4.0,4.0" stroke-width="1"/>
      </g>
      <g id="Graphic_409">
        <path d="M 2231 -7140 L 2451 -7140 C 2459.2843 -7140 2466 -7133.284 2466 -7125 L 2466 -7030 C 2466 -7021.716 2459.2843 -7015 2451 -7015 L 2231 -7015 C 2222.7157 -7015 2216 -7021.716 2216 -7030 L 2216 -7125 C 2216 -7133.284 2222.7157 -7140 2231 -7140 Z" fill="#353f58"/>
        <path d="M 2231 -7140 L 2451 -7140 C 2459.2843 -7140 2466 -7133.284 2466 -7125 L 2466 -7030 C 2466 -7021.716 2459.2843 -7015 2451 -7015 L 2231 -7015 C 2222.7157 -7015 2216 -7021.716 2216 -7030 L 2216 -7125 C 2216 -7133.284 2222.7157 -7140 2231 -7140 Z" stroke="white" stroke-linecap="round" stroke-linejoin="round" stroke-width="1"/>
        <text transform="translate(2221 -7092)" fill="white">
          <tspan font-family="Montserrat" font-size="24" fill="white" x="76.10087" y="23" xml:space="preserve">Worker</tspan>
        </text>
      </g>
      <g id="Graphic_408">
        <path d="M 2231 -6985 L 2451 -6985 C 2459.2843 -6985 2466 -6978.284 2466 -6970 L 2466 -6875 C 2466 -6866.716 2459.2843 -6860 2451 -6860 L 2231 -6860 C 2222.7157 -6860 2216 -6866.716 2216 -6875 L 2216 -6970 C 2216 -6978.284 2222.7157 -6985 2231 -6985 Z" fill="#353f58"/>
        <path d="M 2231 -6985 L 2451 -6985 C 2459.2843 -6985 2466 -6978.284 2466 -6970 L 2466 -6875 C 2466 -6866.716 2459.2843 -6860 2451 -6860 L 2231 -6860 C 2222.7157 -6860 2216 -6866.716 2216 -6875 L 2216 -6970 C 2216 -6978.284 2222.7157 -6985 2231 -6985 Z" stroke="white" stroke-linecap="round" stroke-linejoin="round" stroke-width="1"/>
        <text transform="translate(2221 -6937)" fill="white">
          <tspan font-family="Montserrat" font-size="24" fill="white" x="81.99767" y="23" xml:space="preserve">Server</tspan>
        </text>
      </g>
      <g id="Graphic_407">
        <path d="M 2231 -6830 L 2451 -6830 C 2459.2843 -6830 2466 -6823.284 2466 -6815 L 2466 -6720 C 2466 -6711.716 2459.2843 -6705 2451 -6705 L 2231 -6705 C 2222.7157 -6705 2216 -6711.716 2216 -6720 L 2216 -6815 C 2216 -6823.284 2222.7157 -6830 2231 -6830 Z" fill="#353f58"/>
        <path d="M 2231 -6830 L 2451 -6830 C 2459.2843 -6830 2466 -6823.284 2466 -6815 L 2466 -6720 C 2466 -6711.716 2459.2843 -6705 2451 -6705 L 2231 -6705 C 2222.7157 -6705 2216 -6711.716 2216 -6720 L 2216 -6815 C 2216 -6823.284 2222.7157 -6830 2231 -6830 Z" stroke="white" stroke-linecap="round" stroke-linejoin="round" stroke-width="1"/>
        <text transform="translate(2221 -6782)" fill="white">
          <tspan font-family="Montserrat" font-size="24" fill="white" x="73.58251" y="23" xml:space="preserve">Storage</tspan>
        </text>
      </g>
      <g id="Graphic_406">
        <path d="M 1866 -7140 L 2086 -7140 C 2094.2843 -7140 2101 -7133.284 2101 -7125 L 2101 -7030 C 2101 -7021.716 2094.2843 -7015 2086 -7015 L 1866 -7015 C 1857.7157 -7015 1851 -7021.716 1851 -7030 L 1851 -7125 C 1851 -7133.284 1857.7157 -7140 1866 -7140 Z" fill="#353f58"/>
        <path d="M 1866 -7140 L 2086 -7140 C 2094.2843 -7140 2101 -7133.284 2101 -7125 L 2101 -7030 C 2101 -7021.716 2094.2843 -7015 2086 -7015 L 1866 -7015 C 1857.7157 -7015 1851 -7021.716 1851 -7030 L 1851 -7125 C 1851 -7133.284 1857.7157 -7140 1866 -7140 Z" stroke="white" stroke-linecap="round" stroke-linejoin="round" stroke-width="1"/>
        <text transform="translate(1856 -7092)" fill="white">
          <tspan font-family="Montserrat" font-size="24" fill="white" x="76.10087" y="23" xml:space="preserve">Worker</tspan>
        </text>
      </g>
      <g id="Graphic_405">
        <path d="M 1866 -6985 L 2086 -6985 C 2094.2843 -6985 2101 -6978.284 2101 -6970 L 2101 -6875 C 2101 -6866.716 2094.2843 -6860 2086 -6860 L 1866 -6860 C 1857.7157 -6860 1851 -6866.716 1851 -6875 L 1851 -6970 C 1851 -6978.284 1857.7157 -6985 1866 -6985 Z" fill="#353f58"/>
        <path d="M 1866 -6985 L 2086 -6985 C 2094.2843 -6985 2101 -6978.284 2101 -6970 L 2101 -6875 C 2101 -6866.716 2094.2843 -6860 2086 -6860 L 1866 -6860 C 1857.7157 -6860 1851 -6866.716 1851 -6875 L 1851 -6970 C 1851 -6978.284 1857.7157 -6985 1866 -6985 Z" stroke="white" stroke-linecap="round" stroke-linejoin="round" stroke-width="1"/>
        <text transform="translate(1856 -6937)" fill="white">
          <tspan font-family="Montserrat" font-size="24" fill="white" x="81.99767" y="23" xml:space="preserve">Server</tspan>
        </text>
      </g>
      <g id="Graphic_404">
        <path d="M 1866 -6830 L 2086 -6830 C 2094.2843 -6830 2101 -6823.284 2101 -6815 L 2101 -6720 C 2101 -6711.716 2094.2843 -6705 2086 -6705 L 1866 -6705 C 1857.7157 -6705 1851 -6711.716 1851 -6720 L 1851 -6815 C 1851 -6823.284 1857.7157 -6830 1866 -6830 Z" fill="#353f58"/>
        <path d="M 1866 -6830 L 2086 -6830 C 2094.2843 -6830 2101 -6823.284 2101 -6815 L 2101 -6720 C 2101 -6711.716 2094.2843 -6705 2086 -6705 L 1866 -6705 C 1857.7157 -6705 1851 -6711.716 1851 -6720 L 1851 -6815 C 1851 -6823.284 1857.7157 -6830 1866 -6830 Z" stroke="white" stroke-linecap="round" stroke-linejoin="round" stroke-width="1"/>
        <text transform="translate(1856 -6782)" fill="white">
          <tspan font-family="Montserrat" font-size="24" fill="white" x="73.58251" y="23" xml:space="preserve">Storage</tspan>
        </text>
      </g>
      <g id="Graphic_403">
        <text transform="translate(1876.985 -7313)" fill="#353f58">
          <tspan font-family="Montserrat" font-size="48" fill="#353f58" x="0" y="46" xml:space="preserve">Develop</tspan>
        </text>
      </g>
      <g id="Graphic_402">
        <text transform="translate(2257.8072 -7313)" fill="#353f58">
          <tspan font-family="Montserrat" font-size="48" fill="#353f58" x="0" y="46" xml:space="preserve">Debug</tspan>
        </text>
      </g>
      <g id="Graphic_401">
        <text transform="translate(2608.5066 -7313)" fill="#353f58">
          <tspan font-family="Montserrat" font-size="48" fill="#353f58" x="0" y="46" xml:space="preserve">Operate</tspan>
        </text>
      </g>
      <g id="Graphic_400">
        <text transform="translate(1890.3752 -7214.5)" fill="#353f58">
          <tspan font-family="Montserrat" font-size="24" fill="#353f58" x="0" y="23" xml:space="preserve">All in-memory</tspan>
        </text>
      </g>
      <g id="Graphic_399">
        <rect x="1851" y="-6645" width="250" height="60" fill="#353f58" fill-opacity=".09874132"/>
        <rect x="1851" y="-6645" width="250" height="60" stroke="white" stroke-linecap="round" stroke-linejoin="round" stroke-width="1"/>
        <text transform="translate(1856 -6629.5)" fill="#353f58">
          <tspan font-family="Montserrat" font-size="24" fill="#353f58" x="39.67091" y="23" xml:space="preserve">node index.ts</tspan>
        </text>
      </g>
      <g id="Graphic_398">
        <rect x="2571" y="-6645" width="270" height="60" fill="#353f58" fill-opacity=".09874132"/>
        <rect x="2571" y="-6645" width="270" height="60" stroke="white" stroke-linecap="round" stroke-linejoin="round" stroke-width="1"/>
        <text transform="translate(2576 -6629.5)" fill="#353f58">
          <tspan font-family="Montserrat" font-size="24" fill="#353f58" x="42.79532" y="23" xml:space="preserve">resonate serve</tspan>
        </text>
      </g>
      <g id="Graphic_397">
        <rect x="2206" y="-6645" width="270" height="60" fill="#353f58" fill-opacity=".09874132"/>
        <rect x="2206" y="-6645" width="270" height="60" stroke="white" stroke-linecap="round" stroke-linejoin="round" stroke-width="1"/>
        <text transform="translate(2211 -6629.5)" fill="#353f58">
          <tspan font-family="Montserrat" font-size="24" fill="#353f58" x="52.69849" y="23" xml:space="preserve">resonate dev</tspan>
        </text>
      </g>
      <g id="Graphic_396">
        <text transform="translate(2248.2678 -7214.5)" fill="#353f58">
          <tspan font-family="Montserrat" font-size="24" fill="#353f58" x="682121e-18" y="23" xml:space="preserve">Separate server</tspan>
        </text>
      </g>
      <g id="Graphic_395">
        <text transform="translate(2611.9053 -7214.5)" fill="#353f58">
          <tspan font-family="Montserrat" font-size="24" fill="#353f58" x="18474111e-20" y="23" xml:space="preserve">Full persistence</tspan>
        </text>
      </g>
    </g>
  </g>
</svg>
