<?xml version="1.0" encoding="UTF-8" standalone="no"?>
<svg
   width="538"
   height="538"
   viewBox="0 18 538 538"
   fill="none"
   version="1.1"
   id="svg24"
   xmlns="http://www.w3.org/2000/svg"
   xmlns:svg="http://www.w3.org/2000/svg">
  <path
     d="m 262.5,441.5 c 62.156,0 118.606,-17.307 159.576,-49.258 C 463.1,360.249 488.5,313.639 488.5,255.416 488.5,197.328 463.219,134.17 422.454,85.5397 381.686,36.9045 325.165,2.5 262.5,2.5 199.835,2.5 143.314,36.9045 102.546,85.5397 61.781,134.17 36.5,197.328 36.5,255.416 c 0,58.223 25.4004,104.833 66.424,136.826 40.97,31.951 97.42,49.258 159.576,49.258 z"
     fill="#19c2b1"
     stroke="#ffffff"
     stroke-width="5"
     id="path1" />
  <mask
     id="path-2-outside-1_432_115"
     maskUnits="userSpaceOnUse"
     x="0"
     y="31"
     width="526"
     height="663"
     fill="#000000">
    <rect
       fill="#ffffff"
       y="31"
       width="526"
       height="663"
       id="rect1"
       x="0" />
    <path
       fill-rule="evenodd"
       clip-rule="evenodd"
       d="M 375.261,517.641 C 461.514,487.035 521,419.437 521,324.498 521,192.202 405.489,36 263,36 120.511,36 5,192.202 5,324.498 c 0,92.055 55.9273,158.405 137.955,190.252 -30.782,37.699 -38.203,71.445 -40.545,142.963 -0.599,18.3 15.522,32.629 33.674,30.225 l 121.864,-16.137 121.863,16.137 c 18.152,2.404 34.274,-11.925 33.675,-30.225 -2.282,-69.686 -9.386,-103.51 -38.225,-140.072 z"
       id="path2" />
  </mask>
  <path
     fill-rule="evenodd"
     clip-rule="evenodd"
     d="M 375.261,517.641 C 461.514,487.035 521,419.437 521,324.498 521,192.202 405.489,36 263,36 120.511,36 5,192.202 5,324.498 c 0,92.055 55.9273,158.405 137.955,190.252 -30.782,37.699 -38.203,71.445 -40.545,142.963 -0.599,18.3 15.522,32.629 33.674,30.225 l 121.864,-16.137 121.863,16.137 c 18.152,2.404 34.274,-11.925 33.675,-30.225 -2.282,-69.686 -9.386,-103.51 -38.225,-140.072 z"
     fill="#19c2b1"
     id="path3" />
  <path
     d="m 375.261,517.641 -1.672,-4.712 -6.573,2.332 4.319,5.476 z m -232.306,-2.891 3.873,3.163 4.354,-5.332 -6.417,-2.492 z m -40.545,142.963 -4.9973,-0.164 v 0 z m 33.674,30.225 -0.656,-4.957 v 0 z m 121.864,-16.137 0.656,-4.957 -0.656,-0.087 -0.656,0.087 z m 121.863,16.137 0.657,-4.957 v 0 z m 33.675,-30.225 -4.998,0.163 v 0 z M 516,324.498 c 0,92.414 -57.739,158.386 -142.411,188.431 l 3.344,9.424 C 464.768,491.186 526,421.961 526,324.498 Z M 263,41 c 69.354,0 132.564,38.0371 178.605,92.854 C 487.654,188.68 516,259.697 516,324.498 h 10 C 526,257.003 496.59,183.771 449.262,127.422 401.926,71.0639 336.135,31 263,31 Z M 10,324.498 C 10,259.697 38.3455,188.68 84.3951,133.854 130.436,79.0371 193.646,41 263,41 V 31 C 189.865,31 124.074,71.0639 76.7378,127.422 29.4097,183.771 0,257.003 0,324.498 Z M 144.765,510.089 C 64.2955,478.848 10,414.125 10,324.498 H 0 c 0,94.484 57.559,162.461 141.146,194.913 z m -37.358,147.787 c 1.169,-35.688 3.6,-61.518 9.436,-83.017 5.793,-21.34 14.989,-38.581 29.985,-56.946 l -7.746,-6.325 c -15.786,19.333 -25.691,37.815 -31.89,60.652 -6.156,22.678 -8.6059,49.479 -9.7793,85.309 z m 28.021,25.105 c -15.152,2.007 -28.517,-9.953 -28.021,-25.105 l -9.9943,-0.327 c -0.7024,21.449 18.1763,38.147 39.3283,35.346 z m 121.864,-16.137 -121.864,16.137 1.313,9.914 121.863,-16.137 z m 123.176,16.137 -121.864,-16.137 -1.312,9.914 121.863,16.137 z m 28.02,-25.105 c 0.497,15.152 -12.868,27.112 -28.02,25.105 l -1.313,9.914 c 21.152,2.801 40.031,-13.897 39.328,-35.346 z M 371.335,520.737 c 27.824,35.276 34.881,67.757 37.153,137.139 l 9.995,-0.327 C 416.191,587.561 409.04,552.393 379.187,514.544 Z"
     fill="#000000"
     mask="url(#path-2-outside-1_432_115)"
     id="path4" />
  <path
     d="m 375.261,517.641 -1.672,-4.712 -6.573,2.332 4.319,5.476 z m -232.306,-2.891 3.873,3.163 4.354,-5.332 -6.417,-2.492 z m -40.545,142.963 -4.9973,-0.164 v 0 z m 33.674,30.225 -0.656,-4.957 v 0 z m 121.864,-16.137 0.656,-4.957 -0.656,-0.087 -0.656,0.087 z m 121.863,16.137 0.657,-4.957 v 0 z m 33.675,-30.225 -4.998,0.163 v 0 z M 516,324.498 c 0,92.414 -57.739,158.386 -142.411,188.431 l 3.344,9.424 C 464.768,491.186 526,421.961 526,324.498 Z M 263,41 c 69.354,0 132.564,38.0371 178.605,92.854 C 487.654,188.68 516,259.697 516,324.498 h 10 C 526,257.003 496.59,183.771 449.262,127.422 401.926,71.0639 336.135,31 263,31 Z M 10,324.498 C 10,259.697 38.3455,188.68 84.3951,133.854 130.436,79.0371 193.646,41 263,41 V 31 C 189.865,31 124.074,71.0639 76.7378,127.422 29.4097,183.771 0,257.003 0,324.498 Z M 144.765,510.089 C 64.2955,478.848 10,414.125 10,324.498 H 0 c 0,94.484 57.559,162.461 141.146,194.913 z m -37.358,147.787 c 1.169,-35.688 3.6,-61.518 9.436,-83.017 5.793,-21.34 14.989,-38.581 29.985,-56.946 l -7.746,-6.325 c -15.786,19.333 -25.691,37.815 -31.89,60.652 -6.156,22.678 -8.6059,49.479 -9.7793,85.309 z m 28.021,25.105 c -15.152,2.007 -28.517,-9.953 -28.021,-25.105 l -9.9943,-0.327 c -0.7024,21.449 18.1763,38.147 39.3283,35.346 z m 121.864,-16.137 -121.864,16.137 1.313,9.914 121.863,-16.137 z m 123.176,16.137 -121.864,-16.137 -1.312,9.914 121.863,16.137 z m 28.02,-25.105 c 0.497,15.152 -12.868,27.112 -28.02,25.105 l -1.313,9.914 c 21.152,2.801 40.031,-13.897 39.328,-35.346 z M 371.335,520.737 c 27.824,35.276 34.881,67.757 37.153,137.139 l 9.995,-0.327 C 416.191,587.561 409.04,552.393 379.187,514.544 Z"
     fill="#ffffff"
     mask="url(#path-2-outside-1_432_115)"
     id="path5" />
  <ellipse
     cx="256.5"
     cy="308.5"
     rx="212.5"
     ry="199.5"
     fill="#000000"
     id="ellipse5" />
  <path
     d="M 335.459,487.584 260.784,515.3 c -1.796,0.667 -3.772,0.667 -5.568,0 l -74.675,-27.716 c -8.766,-3.253 -5.787,-16.33 3.522,-15.466 l 73.937,6.861 73.937,-6.861 c 9.309,-0.864 12.288,12.213 3.522,15.466 z"
     fill="#f5f5f5"
     stroke="#000000"
     stroke-width="10"
     id="path6" />
  <path
     d="m 159,516 c 0,0 66,17.5 78,22.5 12,5 12,16.5 12,16.5"
     stroke="#000000"
     stroke-width="5"
     stroke-linecap="round"
     id="path7" />
  <path
     d="m 367,516 c 0,0 -66,17.5 -78,22.5 -12,5 -12,16.5 -12,16.5"
     stroke="#000000"
     stroke-width="5"
     stroke-linecap="round"
     id="path8" />
  <path
     d="M 452,299.247 C 452,408.251 359.696,470 257.5,470 154.097,470 63,406.509 63,297.25 63,202.119 151.656,125 261.018,125 370.38,125 452,204.116 452,299.247 Z"
     fill="#69e6d8"
     id="path9" />
  <path
     d="m 444.5,298.426 c 0,108.769 -90.608,171 -193.5,171 -103.431,0 -193.5,-64.096 -193.5,-173 0,-95.269 81.2,-164.5 190,-164.5 108.8,0 191,70.574 197,166.5 z"
     fill="#b3f2ea"
     id="path10" />
  <path
     d="M 426,300.57 C 426,399 341.936,454 250,454 156.973,454 74,397.441 74,298.776 74,213.295 154.223,144 253.183,144 352.144,144 426,215.09 426,300.57 Z"
     fill="#ffffff"
     id="path11" />
  <ellipse
     cx="145.5"
     cy="298"
     rx="56.5"
     ry="62"
     fill="#000000"
     id="ellipse11" />
  <ellipse
     cx="357.5"
     cy="296"
     rx="56.5"
     ry="62"
     fill="#000000"
     id="ellipse12" />
  <path
     fill-rule="evenodd"
     clip-rule="evenodd"
     d="m 244.129,340.253 c -0.164,-0.806 -1.177,-1.079 -1.725,-0.466 l -7.869,8.801 c -0.184,0.13 -0.362,0.267 -0.535,0.412 -1.441,1.209 -2.503,2.939 -2.806,4.945 -0.659,4.369 2.348,8.445 6.716,9.105 4.369,0.66 8.445,-2.347 9.105,-6.716 0.211,-1.4 0.046,-2.77 -0.419,-4.006 z"
     fill="#000000"
     id="path12" />
  <path
     fill-rule="evenodd"
     clip-rule="evenodd"
     d="m 258.112,339.701 c -0.568,-0.594 -1.571,-0.287 -1.709,0.523 l -1.98,11.64 c -0.086,0.207 -0.164,0.418 -0.233,0.633 -0.577,1.79 -0.555,3.82 0.256,5.68 1.766,4.05 6.48,5.902 10.53,4.136 4.05,-1.766 5.902,-6.481 4.136,-10.531 -0.566,-1.298 -1.435,-2.37 -2.487,-3.169 z"
     fill="#000000"
     id="path13" />
  <path
     d="M 167.5,611 165,545 c 21.185,39.131 35,46 66.5,55.5 z"
     fill="#0c7f73"
     id="path14" />
  <path
     d="m 352.5,615 c -5.074,-25.002 -7,-55.5 -7,-86.5 C 323,574 325.885,594.238 296,608 Z"
     fill="#0c7f73"
     id="path15" />
  <path
     d="M 310,529.957 C 447.5,488 530.012,315 508,251.5 563.282,410.976 423.5,529.957 310,529.957 Z"
     fill="#0c7f73"
     id="path16" />
  <path
     d="m 300.981,634.779 c -0.285,-16.257 -2.17,-24.535 -10.162,-37.053 29.82,-8.483 41.714,-3.504 57.228,16.878 -20.63,4.294 -31.141,8.383 -47.066,20.175 z"
     fill="#c9f3ee"
     stroke="#000000"
     stroke-width="7"
     stroke-linecap="round"
     stroke-linejoin="round"
     id="path17" />
  <path
     d="m 132,621 c 51.384,-14.038 80.296,-19.723 132,-27 11.859,23.266 14.216,37.006 18.5,61.5 -22.234,8.201 -34.924,12.419 -59,17.5"
     stroke="#000000"
     stroke-width="5"
     stroke-linecap="round"
     stroke-linejoin="round"
     id="path18" />
  <path
     d="m 282.859,655.801 c -3.25,-24.698 -6.798,-38.222 -18.596,-61.321 l 22.745,-1.091 c 11.091,14.669 13.875,26.328 14.579,51.84 z"
     stroke="#000000"
     stroke-width="5"
     stroke-linecap="round"
     stroke-linejoin="round"
     id="path19" />
  <path
     d="m 304,629.5 c 26.731,-15.238 60.5,-20.5 75.5,3"
     stroke="#000000"
     stroke-width="5"
     stroke-linecap="round"
     stroke-linejoin="round"
     id="path20" />
  <path
     d="m 136.143,591.859 c -6.958,-7.564 -1.828,-18.317 10.122,-7.689 -8.833,-11.691 -3.637,-17.536 5.716,-9.565 -2.079,-6.514 4.373,-7.945 10.391,-5.451 6.019,2.493 29.248,33.017 27.538,33.615 l -23.233,6.643 c 0.295,0.438 0.592,0.88 0.891,1.328 l -12.968,2.125 -2.434,1.975 c -0.002,0.13 -0.061,0.183 -0.185,0.151 l 0.185,-0.151 c 0.023,-1.667 -9.567,-15.963 -16.023,-22.981 z"
     fill="#c9f3ee"
     id="path21" />
  <path
     d="m 154.6,612.865 -2.619,2.126 c 1.718,0.449 -8.88,-15.568 -15.838,-23.132 -6.958,-7.564 -1.828,-18.317 10.122,-7.689 m 8.335,28.695 12.968,-2.125 c -6.417,-9.603 -11.95,-17.005 -21.303,-26.57 m 8.335,28.695 35.31,-10.096 c 1.71,-0.598 -21.519,-31.122 -27.538,-33.615 -6.018,-2.494 -12.47,-1.063 -10.391,5.451 m -5.716,9.565 c -8.833,-11.691 -3.637,-17.536 5.716,-9.565 m 0,0 c 9.469,8.168 14.484,13.62 20.263,22.85"
     stroke="#000000"
     stroke-width="5"
     stroke-linecap="round"
     stroke-linejoin="round"
     id="path22" />
  <path
     d="M 137.759,592.735 C 131.064,585.618 136,575.5 147.5,585.5 c -8.5,-11 -3.5,-16.5 5.5,-9 -2,-6.129 4.208,-7.475 10,-5.129 5.791,2.346 28.145,31.067 26.5,31.629 l -22.358,6.251 c 0.285,0.412 0.57,0.828 0.858,1.249 l -12.48,2 -2.341,1.858 c -0.002,0.122 -0.06,0.172 -0.179,0.142 l 0.179,-0.142 c 0.021,-1.569 -9.207,-15.02 -15.42,-21.623 z"
     fill="#c9f3ee"
     id="path23" />
  <path
     d="m 155.52,612.5 -2.52,2 c 1.653,0.422 -8.545,-14.648 -15.241,-21.765 C 131.064,585.618 136,575.5 147.5,585.5 m 8.02,27 12.48,-2 c -6.175,-9.035 -11.5,-16 -20.5,-25 m 8.02,27 33.98,-9.5 c 1.645,-0.562 -20.709,-29.283 -26.5,-31.629 -5.792,-2.346 -12,-1 -10,5.129 m -5.5,9 c -8.5,-11 -3.5,-16.5 5.5,-9 m 0,0 c 9.112,7.686 13.938,12.815 19.5,21.5"
     stroke="#000000"
     stroke-width="5"
     stroke-linecap="round"
     stroke-linejoin="round"
     id="path24" />
</svg>
