<svg xmlns="http://www.w3.org/2000/svg" xmlns:xlink="http://www.w3.org/1999/xlink" xmlns:lucid="lucid" width="2088" height="1168"><g transform="translate(-676.4999499999994 -76)" lucid:page-tab-id="0_0"><path d="M680.5 86a6 6 0 0 1 6-6h2068a6 6 0 0 1 6 6v1148a6 6 0 0 1-6 6h-2068a6 6 0 0 1-6-6z" stroke="#000" stroke-opacity="0" stroke-width="8" fill-opacity="0"/><path d="M840 766a6 6 0 0 1 6-6h1748a6 6 0 0 1 6 6v428a6 6 0 0 1-6 6H846a6 6 0 0 1-6-6z" fill-opacity="0"/><path d="M869.84 760h15.9m15.88 0h15.9m15.88 0h15.9m15.88 0h15.9m15.88 0h15.9m15.88 0h15.9m15.9 0h15.88m15.9 0h15.88m15.9 0h15.88m15.9 0h15.88m15.9 0h15.88m15.9 0h15.9m15.88 0h15.9m15.88 0h15.9m15.88 0h15.9m15.88 0h15.9m15.88 0h15.9m15.9 0H1426m15.9 0h15.88m15.9 0h15.88m15.9 0h15.88m15.9 0h15.88m15.9 0h15.9m15.88 0h15.9m15.88 0h15.9m15.88 0h15.9m15.88 0h15.9m15.88 0h15.9m15.9 0h15.88m15.9 0h15.88m15.9 0h15.88m15.9 0h15.88m15.9 0h15.88m15.9 0h15.9m15.88 0h15.9m15.88 0h15.9m15.88 0h15.9m15.88 0h15.9m15.9 0h15.88m15.9 0h15.88m15.9 0H2157m15.9 0h15.88m15.9 0h15.88m15.9 0h15.88m15.9 0h15.9m15.88 0h15.9m15.88 0h15.9m15.88 0h15.9m15.88 0h15.9m15.88 0h15.9m15.9 0h15.88m15.9 0h15.88m15.9 0h15.88m15.9 0h15.88m15.9 0h7.94a6 6 0 0 1 6 6v8.23m0 16.46v16.45m0 16.47v16.46m0 16.46V873m0 16.46v16.46m0 16.47v16.45m0 16.46v16.47m0 16.46v16.46m0 16.45v16.47m0 16.46v16.46m0 16.46v16.46m0 16.46v16.46m0 16.47v16.46m0 16.47v8.23a6 6 0 0 1-6 6h-7.95m-15.9 0h-15.88m-15.9 0h-15.88m-15.9 0h-15.9m-15.88 0h-15.9m-15.88 0h-15.9m-15.88 0h-15.9m-15.9 0h-15.88m-15.9 0h-15.88m-15.9 0h-15.88m-15.9 0h-15.88m-15.9 0h-15.9m-15.88 0h-15.9m-15.88 0h-15.9m-15.88 0h-15.9m-15.88 0h-15.9m-15.88 0h-15.9m-15.88 0h-15.9m-15.9 0H2014m-15.9 0h-15.88m-15.9 0h-15.88m-15.9 0h-15.88m-15.9 0h-15.88m-15.9 0h-15.9m-15.88 0h-15.9m-15.88 0h-15.9m-15.88 0h-15.9m-15.88 0h-15.9m-15.88 0h-15.9m-15.9 0h-15.88m-15.9 0h-15.88m-15.9 0h-15.88m-15.9 0h-15.88m-15.9 0h-15.88m-15.9 0h-15.9m-15.88 0h-15.9m-15.88 0h-15.9m-15.88 0h-15.9m-15.88 0h-15.9m-15.88 0h-15.9m-15.9 0h-15.88m-15.9 0H1283m-15.9 0h-15.88m-15.9 0h-15.88m-15.9 0h-15.88m-15.9 0h-15.9m-15.88 0h-15.9m-15.88 0h-15.9m-15.88 0h-15.9m-15.88 0h-15.9m-15.88 0h-15.9m-15.9 0H965.2m-15.9 0H933.4m-15.9 0h-15.88m-15.9 0h-15.88m-15.9 0H846a6 6 0 0 1-6-6v-8.23m0-16.46v-16.45m0-16.46v-16.48m0-16.46V1087m0-16.46v-16.46m0-16.46v-16.47m0-16.46v-16.47m0-16.46V955.3m0-16.45v-16.47m0-16.46v-16.46m0-16.46v-16.46m0-16.46V823.6m0-16.45V790.7m0-16.47V766a6 6 0 0 1 6-6h7.95" stroke="#f2f3f5" stroke-width="4" fill="none"/><path d="M840 124.1a6 6 0 0 1 6-6h708a6 6 0 0 1 6 6V634a6 6 0 0 1-6 6H846a6 6 0 0 1-6-6z" fill-opacity="0"/><path d="M870.14 118.1h16.1m16.08 0h16.1m16.08 0h16.1m16.08 0h16.1m16.08 0h16.1m16.1 0h16.08m16.1 0h16.08m16.1 0h16.08m16.1 0h16.08m16.1 0h16.08m16.1 0h16.1m16.08 0h16.1m16.08 0h16.1m16.08 0h16.1m16.08 0h16.1m16.08 0h16.1m16.1 0h16.08m16.1 0h16.08m16.1 0h16.08m16.1 0h16.08m16.1 0h16.08m16.1 0h8.04a6 6 0 0 1 6 6v7.96m0 15.94v15.93m0 15.94v15.93m0 15.94v15.93m0 15.94v15.94m0 15.93v15.94m0 15.94v15.94m0 15.93v15.95m0 15.93v15.94m0 15.93v15.93m0 15.94v15.93m0 15.94v15.92m0 15.94v15.93m0 15.93v15.93m0 15.93v15.93m0 15.93v15.94m0 15.93V634a6 6 0 0 1-6 6h-8.05m-16.1 0h-16.08m-16.1 0h-16.08m-16.1 0h-16.1m-16.08 0h-16.1m-16.08 0h-16.1m-16.1 0h-16.08m-16.1 0h-16.08m-16.1 0h-16.08m-16.1 0h-16.08m-16.1 0h-16.08m-16.1 0h-16.1m-16.08 0h-16.1m-16.08 0h-16.1m-16.08 0h-16.1m-16.08 0h-16.1m-16.08 0h-16.1m-16.08 0h-16.1m-16.1 0H966.7m-16.1 0H934.5m-16.1 0h-16.08m-16.1 0h-16.08m-16.1 0H846a6 6 0 0 1-6-6v-7.97m0-15.93v-15.94m0-15.93V562.3m0-15.94v-15.93m0-15.94v-15.94m0-15.94V466.7m0-15.95v-15.93m0-15.94v-15.93m0-15.94V371.1m0-15.93V339.2m0-15.92v-15.94m0-15.93v-15.93m0-15.93V243.6m0-15.93v-15.93m0-15.94v-15.93m0-15.94V148m0-15.94v-7.96a6 6 0 0 1 6-6h8.04" stroke="#e4e7eb" stroke-width="4" fill="none"/><use xlink:href="#a" transform="matrix(1,0,0,1,845,123.09573643410852) translate(305.048828125 263.7521701388889)"/><use xlink:href="#b" transform="matrix(1,0,0,1,845,123.09573643410852) translate(392.26671006944446 263.7521701388889)"/><path d="M860 146a6 6 0 0 1 6-6h668a6 6 0 0 1 6 6v188a6 6 0 0 1-6 6H866a6 6 0 0 1-6-6z" fill-opacity="0"/><path d="M889.86 140h15.9m15.9 0h15.9m15.92 0h15.9m15.9 0h15.9m15.92 0h15.9m15.9 0h15.9m15.9 0h15.92m15.9 0h15.9m15.9 0h15.92m15.9 0h15.9m15.9 0h15.92m15.9 0h15.9m15.9 0h15.92m15.9 0h15.9m15.9 0h15.9m15.92 0h15.9m15.9 0h15.9m15.92 0h15.9m15.9 0h15.9m15.92 0h15.9m15.9 0h7.96a6 6 0 0 1 6 6v7.83m0 15.67v15.67m0 15.66v15.67m0 15.67v15.66m0 15.67v15.67m0 15.66v15.67m0 15.67V334a6 6 0 0 1-6 6h-7.95m-15.9 0h-15.9m-15.92 0h-15.9m-15.9 0h-15.9m-15.92 0h-15.9m-15.9 0H1367m-15.9 0h-15.9m-15.9 0h-15.92m-15.9 0h-15.9m-15.9 0h-15.92m-15.9 0h-15.9m-15.9 0h-15.92m-15.9 0h-15.9m-15.9 0h-15.92m-15.9 0h-15.9m-15.9 0h-15.9m-15.92 0h-15.9m-15.9 0h-15.9m-15.92 0h-15.9m-15.9 0h-15.9m-15.92 0h-15.9m-15.9 0H866a6 6 0 0 1-6-6v-7.83m0-15.67v-15.67m0-15.66V263.5m0-15.67v-15.66m0-15.67v-15.67m0-15.66V169.5m0-15.67V146a6 6 0 0 1 6-6h7.95" stroke="#f2f3f5" stroke-width="4" fill="none"/><path d="M880 166a6 6 0 0 1 6-6h148a6 6 0 0 1 6 6v148a6 6 0 0 1-6 6H886a6 6 0 0 1-6-6z" stroke="#94a3b8" fill="#e4e7eb"/><use xlink:href="#c" transform="matrix(1,0,0,1,885,165.00000000000003) translate(11.444444444444436 58.833333333333336)"/><use xlink:href="#d" transform="matrix(1,0,0,1,885,165.00000000000003) translate(56.27821180555556 98.00260416666667)"/><use xlink:href="#e" transform="matrix(1,0,0,1,885,165.00000000000003) translate(78.50043402777779 98.00260416666667)"/><path d="M1360 166a6 6 0 0 1 6-6h148a6 6 0 0 1 6 6v148a6 6 0 0 1-6 6h-148a6 6 0 0 1-6-6z" stroke="#94a3b8" fill="#e4e7eb"/><use xlink:href="#f" transform="matrix(1,0,0,1,1365,165.00000000000003) translate(9.720052083333329 66.00260416666667)"/><use xlink:href="#g" transform="matrix(1,0,0,1,1365,165.00000000000003) translate(55.12586805555556 102.31770833333334)"/><use xlink:href="#h" transform="matrix(1,0,0,1,1365,165.00000000000003) translate(77.34809027777779 102.31770833333334)"/><path d="M1210.25 238.67c0 5.52-4.48 10-10 10s-10-4.48-10-10c0-5.53 4.48-10 10-10s10 4.47 10 10z" stroke="#94a3b8" fill="#fff"/><path d="M880 446a6 6 0 0 1 6-6h628a6 6 0 0 1 6 6v148a6 6 0 0 1-6 6H886a6 6 0 0 1-6-6z" stroke="#94a3b8" fill="#e4e7eb"/><use xlink:href="#i" transform="matrix(1,0,0,1,885,445) translate(177.63671875 89.62890625)"/><use xlink:href="#j" transform="matrix(1,0,0,1,885,445) translate(374.16015625 89.62890625)"/><path d="M960 354.3v-29.8" stroke="#e4e7eb" stroke-width="8" fill="none"/><path d="M963.98 358.8l-3.96-.5-1.9.08-2.1.45v-4.63H964zM963.98 324.6H956v-4.1H964z" stroke="#e4e7eb" stroke-width=".05" fill="#e4e7eb"/><path d="M960 435.5v-31.7" stroke="#e4e7eb" stroke-width="8" fill="none"/><path d="M963.98 439.5H956v-4.1H964zM963.98 403.9H956v-4.6l3.96.5 1.9-.1 2.1-.44z" stroke="#e4e7eb" stroke-width=".05" fill="#e4e7eb"/><path d="M1440.25 324.5v30.75" stroke="#e4e7eb" stroke-width="8" fill="none"/><path d="M1444.22 324.6h-7.94v-4.1h7.94zM1444.22 359.74l-3.95-.5-1.9.1-2.1.44v-4.63h7.95z" stroke="#e4e7eb" stroke-width=".05" fill="#e4e7eb"/><path d="M980.25 379.05c0 11.18-9.07 20.25-20.25 20.25s-20.25-9.07-20.25-20.25c0-11.2 9.07-20.25 20.25-20.25s20.25 9.06 20.25 20.25zM1460.5 380c0 11.18-9.07 20.25-20.25 20.25S1420 391.18 1420 380s9.07-20.25 20.25-20.25 20.25 9.07 20.25 20.25z" stroke="#94a3b8" fill="#fff"/><path d="M1440.25 404.75v30.75" stroke="#e4e7eb" stroke-width="8" fill="none"/><path d="M1444.22 404.85h-7.94v-4.6l3.95.5 1.9-.08 2.1-.45zM1444.22 439.5h-7.94v-4.1h7.94z" stroke="#e4e7eb" stroke-width=".05" fill="#e4e7eb"/><path d="M880 806a6 6 0 0 1 6-6h1668a6 6 0 0 1 6 6v148a6 6 0 0 1-6 6H886a6 6 0 0 1-6-6z" stroke="#94a3b8" fill="#e4e7eb"/><use xlink:href="#i" transform="matrix(1,0,0,1,885,805) translate(673.048828125 89.62890625)"/><use xlink:href="#k" transform="matrix(1,0,0,1,885,805) translate(869.572265625 89.62890625)"/><path d="M900 1006a6 6 0 0 1 6-6h148a6 6 0 0 1 6 6v148a6 6 0 0 1-6 6H906a6 6 0 0 1-6-6z" stroke="#94a3b8" fill="#e4e7eb"/><use xlink:href="#l" transform="matrix(1,0,0,1,905,1005) translate(11.904296875 66.06553819444446)"/><use xlink:href="#m" transform="matrix(1,0,0,1,905,1005) translate(50.588107638888886 108.43315972222223)"/><use xlink:href="#n" transform="matrix(1,0,0,1,905,1005) translate(81.65364583333334 108.43315972222223)"/><path d="M1380 1006a6 6 0 0 1 6-6h148a6 6 0 0 1 6 6v148a6 6 0 0 1-6 6h-148a6 6 0 0 1-6-6z" stroke="#94a3b8" fill="#e4e7eb"/><use xlink:href="#l" transform="matrix(1,0,0,1,1385,1005) translate(11.904296875 66.06553819444446)"/><use xlink:href="#m" transform="matrix(1,0,0,1,1385,1005) translate(49.243706597222214 108.43315972222223)"/><use xlink:href="#o" transform="matrix(1,0,0,1,1385,1005) translate(80.30924479166666 108.43315972222223)"/><path d="M1200.25 795.5v-70.75" stroke="#e4e7eb" stroke-width="8" fill="none"/><path d="M1204.22 799.5h-7.94v-4.1h7.94zM1204.22 724.85h-7.94v-4.6l3.95.5 1.9-.08 2.1-.45z" stroke="#e4e7eb" stroke-width=".05" fill="#e4e7eb"/><path d="M1200.25 675.25V604.5" stroke="#e4e7eb" stroke-width="8" fill="none"/><path d="M1204.22 679.74l-3.95-.5-1.9.1-2.1.44v-4.63h7.95zM1204.22 604.6h-7.94v-4.1h7.94z" stroke="#e4e7eb" stroke-width=".05" fill="#e4e7eb"/><path d="M1220.5 700c0 11.18-9.07 20.25-20.25 20.25S1180 711.18 1180 700s9.07-20.25 20.25-20.25 20.25 9.07 20.25 20.25z" stroke="#94a3b8" fill="#fff"/><path d="M1880 124.1a6 6 0 0 1 6-6h708a6 6 0 0 1 6 6V634a6 6 0 0 1-6 6h-708a6 6 0 0 1-6-6z" fill-opacity="0"/><path d="M1910.14 118.1h16.1m16.08 0h16.1m16.08 0h16.1m16.08 0h16.1m16.08 0h16.1m16.1 0h16.08m16.1 0h16.08m16.1 0h16.08m16.1 0h16.08m16.1 0h16.08m16.1 0h16.1m16.08 0h16.1m16.08 0h16.1m16.08 0h16.1m16.08 0h16.1m16.08 0h16.1m16.1 0h16.08m16.1 0h16.08m16.1 0h16.08m16.1 0h16.08m16.1 0h16.08m16.1 0h8.04a6 6 0 0 1 6 6v7.96m0 15.94v15.93m0 15.94v15.93m0 15.94v15.93m0 15.94v15.94m0 15.93v15.94m0 15.94v15.94m0 15.93v15.95m0 15.93v15.94m0 15.93v15.93m0 15.94v15.93m0 15.94v15.92m0 15.94v15.93m0 15.93v15.93m0 15.93v15.93m0 15.93v15.94m0 15.93V634a6 6 0 0 1-6 6h-8.05m-16.1 0h-16.08m-16.1 0h-16.08m-16.1 0h-16.1m-16.08 0h-16.1m-16.08 0h-16.1m-16.1 0h-16.08m-16.1 0h-16.08m-16.1 0h-16.08m-16.1 0h-16.08m-16.1 0h-16.08m-16.1 0h-16.1m-16.08 0h-16.1m-16.08 0h-16.1m-16.08 0h-16.1m-16.08 0h-16.1m-16.08 0h-16.1m-16.1 0h-16.08m-16.1 0h-16.08m-16.1 0h-16.08m-16.1 0h-16.08m-16.1 0h-16.08m-16.1 0H1886a6 6 0 0 1-6-6v-7.97m0-15.93v-15.94m0-15.93V562.3m0-15.94v-15.93m0-15.94v-15.94m0-15.94V466.7m0-15.95v-15.93m0-15.94v-15.93m0-15.94V371.1m0-15.93V339.2m0-15.92v-15.94m0-15.93v-15.93m0-15.93V243.6m0-15.93v-15.93m0-15.94v-15.93m0-15.94V148m0-15.94v-7.96a6 6 0 0 1 6-6h8.05" stroke="#f2f3f5" stroke-width="4" fill="none"/><use xlink:href="#a" transform="matrix(1,0,0,1,1885,123.09573643410852) translate(304.0885416666667 263.7521701388889)"/><use xlink:href="#p" transform="matrix(1,0,0,1,1885,123.09573643410852) translate(391.30642361111114 263.7521701388889)"/><path d="M1900 146a6 6 0 0 1 6-6h668a6 6 0 0 1 6 6v188a6 6 0 0 1-6 6h-668a6 6 0 0 1-6-6z" fill-opacity="0"/><path d="M1929.86 140h15.9m15.9 0h15.9m15.92 0h15.9m15.9 0h15.9m15.9 0H2073m15.9 0h15.9m15.9 0h15.92m15.9 0h15.9m15.9 0h15.92m15.9 0h15.9m15.9 0h15.92m15.9 0h15.9m15.9 0h15.92m15.9 0h15.9m15.9 0h15.9m15.92 0h15.9m15.9 0h15.9m15.92 0h15.9m15.9 0h15.9m15.92 0h15.9m15.9 0h7.96a6 6 0 0 1 6 6v7.83m0 15.67v15.67m0 15.66v15.67m0 15.67v15.66m0 15.67v15.67m0 15.66v15.67m0 15.67V334a6 6 0 0 1-6 6h-7.95m-15.9 0h-15.9m-15.92 0h-15.9m-15.9 0h-15.9m-15.92 0h-15.9m-15.9 0H2407m-15.9 0h-15.9m-15.9 0h-15.92m-15.9 0h-15.9m-15.9 0h-15.92m-15.9 0h-15.9m-15.9 0h-15.92m-15.9 0h-15.9m-15.9 0h-15.92m-15.9 0h-15.9m-15.9 0h-15.9m-15.92 0h-15.9m-15.9 0h-15.9m-15.92 0h-15.9m-15.9 0h-15.9m-15.92 0h-15.9m-15.9 0H1906a6 6 0 0 1-6-6v-7.83m0-15.67v-15.67m0-15.66V263.5m0-15.67v-15.66m0-15.67v-15.67m0-15.66V169.5m0-15.67V146a6 6 0 0 1 6-6h7.95" stroke="#e4e7eb" stroke-width="4" fill="none"/><path d="M1920 166a6 6 0 0 1 6-6h148a6 6 0 0 1 6 6v148a6 6 0 0 1-6 6h-148a6 6 0 0 1-6-6z" stroke="#94a3b8" fill="#e4e7eb"/><use xlink:href="#c" transform="matrix(1,0,0,1,1925,165.00000000000006) translate(11.444444444444436 58.833333333333336)"/><use xlink:href="#d" transform="matrix(1,0,0,1,1925,165.00000000000006) translate(43.713107638888886 98.00260416666667)"/><use xlink:href="#q" transform="matrix(1,0,0,1,1925,165.00000000000006) translate(65.93532986111111 98.00260416666667)"/><path d="M2400 166a6 6 0 0 1 6-6h148a6 6 0 0 1 6 6v148a6 6 0 0 1-6 6h-148a6 6 0 0 1-6-6z" stroke="#94a3b8" fill="#e4e7eb"/><use xlink:href="#f" transform="matrix(1,0,0,1,2405,165.00000000000006) translate(9.720052083333329 66.00260416666667)"/><use xlink:href="#g" transform="matrix(1,0,0,1,2405,165.00000000000006) translate(42.560763888888886 102.31770833333334)"/><use xlink:href="#r" transform="matrix(1,0,0,1,2405,165.00000000000006) translate(64.78298611111111 102.31770833333334)"/><path d="M1920 446a6 6 0 0 1 6-6h628a6 6 0 0 1 6 6v148a6 6 0 0 1-6 6h-628a6 6 0 0 1-6-6z" stroke="#94a3b8" fill="#e4e7eb"/><use xlink:href="#i" transform="matrix(1,0,0,1,1925,444.9999999999999) translate(177.63671875 89.62890625)"/><use xlink:href="#j" transform="matrix(1,0,0,1,1925,444.9999999999999) translate(374.16015625 89.62890625)"/><path d="M2000 435.5v-31.7" stroke="#e4e7eb" stroke-width="8" fill="none"/><path d="M2003.97 439.5h-7.94v-4.1h7.94zM2003.97 403.9h-7.94v-4.6l3.95.5 1.9-.1 2.1-.44z" stroke="#e4e7eb" stroke-width=".05" fill="#e4e7eb"/><path d="M2000 354.3v-29.8" stroke="#e4e7eb" stroke-width="8" fill="none"/><path d="M2003.97 358.8l-3.95-.5-1.9.08-2.1.45v-4.63h7.95zM2003.97 324.6h-7.94v-4.1h7.94z" stroke="#e4e7eb" stroke-width=".05" fill="#e4e7eb"/><path d="M2480.25 324.5v30.75" stroke="#e4e7eb" stroke-width="8" fill="none"/><path d="M2484.22 324.6h-7.94v-4.1h7.94zM2484.22 359.74l-3.95-.5-1.9.1-2.1.44v-4.63h7.95z" stroke="#e4e7eb" stroke-width=".05" fill="#e4e7eb"/><path d="M2020.25 379.05c0 11.18-9.07 20.25-20.25 20.25s-20.25-9.07-20.25-20.25c0-11.2 9.07-20.25 20.25-20.25s20.25 9.06 20.25 20.25zM2500.5 380c0 11.18-9.07 20.25-20.25 20.25S2460 391.18 2460 380s9.07-20.25 20.25-20.25 20.25 9.07 20.25 20.25z" stroke="#94a3b8" fill="#fff"/><path d="M2239.75 795.5v-70.75" stroke="#e4e7eb" stroke-width="8" fill="none"/><path d="M2243.72 799.5h-7.94v-4.1h7.94zM2243.72 724.85h-7.94v-4.6l3.95.5 1.9-.08 2.1-.45z" stroke="#e4e7eb" stroke-width=".05" fill="#e4e7eb"/><path d="M2480.25 404.75v30.75" stroke="#e4e7eb" stroke-width="8" fill="none"/><path d="M2484.22 404.85h-7.94v-4.6l3.95.5 1.9-.08 2.1-.45zM2484.22 439.5h-7.94v-4.1h7.94z" stroke="#e4e7eb" stroke-width=".05" fill="#e4e7eb"/><path d="M2239.75 675.25V640a.13.13 0 0 1 .13-.13.13.13 0 0 0 .12-.12V604.5" stroke="#e4e7eb" stroke-width="8" fill="none"/><path d="M2243.72 679.74l-3.95-.5-1.9.1-2.1.44v-4.63h7.95zM2243.97 604.6h-7.94v-4.1h7.94z" stroke="#e4e7eb" stroke-width=".05" fill="#e4e7eb"/><path d="M2260 700c0 11.18-9.07 20.25-20.25 20.25s-20.25-9.07-20.25-20.25 9.07-20.25 20.25-20.25S2260 688.82 2260 700z" stroke="#94a3b8" fill="#fff"/><path d="M1920 1006.67a6 6 0 0 1 6-6h148a6 6 0 0 1 6 6v148a6 6 0 0 1-6 6h-148a6 6 0 0 1-6-6z" stroke="#94a3b8" fill="#e4e7eb"/><use xlink:href="#l" transform="matrix(1,0,0,1,1925,1005.6666666666667) translate(11.904296875 66.06553819444446)"/><use xlink:href="#m" transform="matrix(1,0,0,1,1925,1005.6666666666667) translate(35.92881944444444 108.43315972222223)"/><use xlink:href="#s" transform="matrix(1,0,0,1,1925,1005.6666666666667) translate(66.99435763888889 108.43315972222223)"/><path d="M2400.25 1006.67a6 6 0 0 1 6-6h148a6 6 0 0 1 6 6v148a6 6 0 0 1-6 6h-148a6 6 0 0 1-6-6z" stroke="#94a3b8" fill="#e4e7eb"/><g><use xlink:href="#l" transform="matrix(1,0,0,1,2405.2499749999997,1005.6666666666667) translate(11.904296875 66.06553819444446)"/><use xlink:href="#m" transform="matrix(1,0,0,1,2405.2499749999997,1005.6666666666667) translate(34.58441840277777 108.43315972222223)"/><use xlink:href="#t" transform="matrix(1,0,0,1,2405.2499749999997,1005.6666666666667) translate(65.64995659722223 108.43315972222223)"/></g><path d="M1290 240c0 5.52-4.48 10-10 10s-10-4.48-10-10 4.48-10 10-10 10 4.48 10 10zM1130 240c0 5.52-4.48 10-10 10s-10-4.48-10-10 4.48-10 10-10 10 4.48 10 10zM2260.25 240c0 5.52-4.48 10-10 10s-10-4.48-10-10 4.48-10 10-10 10 4.48 10 10zM2340 241.33c0 5.53-4.48 10-10 10s-10-4.47-10-10c0-5.52 4.48-10 10-10s10 4.48 10 10zM2180 241.33c0 5.53-4.48 10-10 10s-10-4.47-10-10c0-5.52 4.48-10 10-10s10 4.48 10 10zM1730.25 387.96c0 5.53-4.48 10-10 10s-10-4.47-10-10c0-5.52 4.48-10 10-10s10 4.48 10 10zM1810 389.3c0 5.52-4.48 10-10 10s-10-4.48-10-10c0-5.53 4.48-10 10-10s10 4.47 10 10zM1650 389.3c0 5.52-4.48 10-10 10s-10-4.48-10-10c0-5.53 4.48-10 10-10s10 4.47 10 10zM1220 1090c0 5.52-4.48 10-10 10s-10-4.48-10-10 4.48-10 10-10 10 4.48 10 10zM1300 1090c0 5.52-4.48 10-10 10s-10-4.48-10-10 4.48-10 10-10 10 4.48 10 10zM1140 1090c0 5.52-4.48 10-10 10s-10-4.48-10-10 4.48-10 10-10 10 4.48 10 10zM1730.5 1090c0 5.52-4.48 10-10 10s-10-4.48-10-10 4.48-10 10-10 10 4.48 10 10zM1810.25 1090c0 5.52-4.48 10-10 10s-10-4.48-10-10 4.48-10 10-10 10 4.48 10 10zM1650.75 1090c0 5.52-4.48 10-10 10s-10-4.48-10-10 4.48-10 10-10 10 4.48 10 10zM2250 1090c0 5.52-4.48 10-10 10s-10-4.48-10-10 4.48-10 10-10 10 4.48 10 10zM2329.75 1090c0 5.52-4.48 10-10 10s-10-4.48-10-10 4.48-10 10-10 10 4.48 10 10zM2170.25 1090c0 5.52-4.48 10-10 10s-10-4.48-10-10 4.48-10 10-10 10 4.48 10 10z" stroke="#94a3b8" fill="#fff"/><defs><path fill="#fff" d="M1608 0h-353c-89-370-200-713-266-1110C925-709 814-372 725 0H373L0-1462h305c83 378 199 789 258 1181 8-76 51-295 68-362l213-819h293l213 819c19 75 56 275 67 362 65-419 172-785 258-1181h305" id="u"/><path fill="#fff" d="M633-893c-183 0-230 133-230 332s48 336 232 336c183 0 229-137 229-336s-47-332-231-332zm4-246c347 5 535 225 539 578S978 25 631 20C283 15 96-208 92-561c-4-355 196-583 545-578" id="v"/><path fill="#fff" d="M451-930c71-134 228-244 436-200l-23 286c-220-45-399 61-399 275V0H160v-1118h231l45 188h15" id="w"/><path fill="#fff" d="M453-608l133-170 313-340h344L799-633 1270 0H918L596-453 465-348V0H160v-1556h305v694l-16 254h4" id="x"/><path fill="#fff" d="M836-686c0-141-77-236-213-236-140 0-206 98-215 236h428zm223 627C946-4 838 19 666 20 308 22 92-191 92-551c0-356 187-588 529-588 314 0 504 195 501 508v148H401c5 169 104 277 279 276 158-2 261-33 379-88v236" id="y"/><g id="a"><use transform="matrix(0.010850694444444444,0,0,0.010850694444444444,0,0)" xlink:href="#u"/><use transform="matrix(0.010850694444444444,0,0,0.010850694444444444,21.03949652777778,0)" xlink:href="#v"/><use transform="matrix(0.010850694444444444,0,0,0.010850694444444444,34.798177083333336,0)" xlink:href="#w"/><use transform="matrix(0.010850694444444444,0,0,0.010850694444444444,44.88932291666667,0)" xlink:href="#x"/><use transform="matrix(0.010850694444444444,0,0,0.010850694444444444,58.2248263888889,0)" xlink:href="#y"/><use transform="matrix(0.010850694444444444,0,0,0.010850694444444444,71.35416666666667,0)" xlink:href="#w"/></g><path fill="#fff" d="M846 0H537c2-380-6-768 8-1137-108 112-167 145-275 236l-149-186 471-375h254V0" id="z"/><use transform="matrix(0.010850694444444444,0,0,0.010850694444444444,0,0)" xlink:href="#z" id="b"/><path fill="#080a0e" d="M24 0v-248h195v40H76v63h132v40H76v65h150V0H24" id="A"/><path fill="#080a0e" d="M144 0l-44-69L55 0H2l70-98-66-92h53l41 62 40-62h54l-67 91 71 99h-54" id="B"/><path fill="#080a0e" d="M185-48c-13 30-37 53-82 52C43 2 14-33 14-96s30-98 90-98c62 0 83 45 84 108H66c0 31 8 55 39 56 18 0 30-7 34-22zm-45-69c5-46-57-63-70-21-2 6-4 13-4 21h74" id="C"/><path fill="#080a0e" d="M190-63c-7 42-38 67-86 67-59 0-84-38-90-98-12-110 154-137 174-36l-49 2c-2-19-15-32-35-32-30 0-35 28-38 64-6 74 65 87 74 30" id="D"/><path fill="#080a0e" d="M85 4C-2 5 27-109 22-190h50c7 57-23 150 33 157 60-5 35-97 40-157h50l1 190h-47c-2-12 1-28-3-38-12 25-28 42-61 42" id="E"/><path fill="#080a0e" d="M115-3C79 11 28 4 28-45v-112H4v-33h27l15-45h31v45h36v33H77v99c-1 23 16 31 38 25v30" id="F"/><path fill="#080a0e" d="M25-224v-37h50v37H25zM25 0v-190h50V0H25" id="G"/><path fill="#080a0e" d="M110-194c64 0 96 36 96 99 0 64-35 99-97 99-61 0-95-36-95-99 0-62 34-99 96-99zm-1 164c35 0 45-28 45-65 0-40-10-65-43-65-34 0-45 26-45 65 0 36 10 65 43 65" id="H"/><path fill="#080a0e" d="M135-194c87-1 58 113 63 194h-50c-7-57 23-157-34-157-59 0-34 97-39 157H25l-1-190h47c2 12-1 28 3 38 12-26 28-41 61-42" id="I"/><g id="c"><use transform="matrix(0.07407407407407408,0,0,0.07407407407407408,0,0)" xlink:href="#A"/><use transform="matrix(0.07407407407407408,0,0,0.07407407407407408,17.77777777777778,0)" xlink:href="#B"/><use transform="matrix(0.07407407407407408,0,0,0.07407407407407408,32.592592592592595,0)" xlink:href="#C"/><use transform="matrix(0.07407407407407408,0,0,0.07407407407407408,47.40740740740741,0)" xlink:href="#D"/><use transform="matrix(0.07407407407407408,0,0,0.07407407407407408,62.22222222222223,0)" xlink:href="#E"/><use transform="matrix(0.07407407407407408,0,0,0.07407407407407408,78.44444444444446,0)" xlink:href="#F"/><use transform="matrix(0.07407407407407408,0,0,0.07407407407407408,87.25925925925927,0)" xlink:href="#G"/><use transform="matrix(0.07407407407407408,0,0,0.07407407407407408,94.66666666666669,0)" xlink:href="#H"/><use transform="matrix(0.07407407407407408,0,0,0.07407407407407408,110.8888888888889,0)" xlink:href="#I"/></g><path fill="#080a0e" d="M21-265c36-13 79 0 90 31L195 0h-52l-38-133C91-86 73-43 54 0H2l83-177c-11-25-16-68-55-54" id="J"/><use transform="matrix(0.07407407407407408,0,0,0.07407407407407408,0,0)" xlink:href="#J" id="d"/><path fill="#080a0e" d="M846 0H537c2-380-6-768 8-1137-108 112-167 145-275 236l-149-186 471-375h254V0" id="K"/><use transform="matrix(0.013020833333333334,0,0,0.013020833333333334,0,0)" xlink:href="#K" id="e"/><path fill="#080a0e" d="M1026 0H184v-1462h842v254H494v321h495v254H494v377h532V0" id="L"/><path fill="#080a0e" d="M389-571L29-1118h346l217 356 219-356h346L793-571 1174 0H827L592-383 356 0H10" id="M"/><path fill="#080a0e" d="M836-686c0-141-77-236-213-236-140 0-206 98-215 236h428zm223 627C946-4 838 19 666 20 308 22 92-191 92-551c0-356 187-588 529-588 314 0 504 195 501 508v148H401c5 169 104 277 279 276 158-2 261-33 379-88v236" id="N"/><path fill="#080a0e" d="M954-63C853 0 774 20 614 20 266 20 92-171 92-553c0-369 188-586 549-586 129 0 245 25 348 76l-90 236c-84-31-156-66-258-66-159 0-238 113-238 338 0 219 79 328 238 328 137 0 223-38 313-97v261" id="O"/><path fill="#080a0e" d="M639-223c202 0 242-139 242-369v-526h305V0H952l-41-143h-16C834-43 709 20 551 20c-263 0-397-147-397-409v-729h305v653c1 148 42 242 180 242" id="P"/><path fill="#080a0e" d="M498-350c-2 85 52 126 133 127 53 0 117-12 192-35v227C747 3 654 20 543 20c-247 0-350-124-350-370v-539H47v-129l168-102 88-236h195v238h313v229H498v539" id="Q"/><path fill="#080a0e" d="M479-1407c-1 99-61 150-166 150-111 0-166-50-166-150 0-99 55-149 166-149s166 50 166 149zM465 0H160v-1118h305V0" id="R"/><path fill="#080a0e" d="M633-893c-183 0-230 133-230 332s48 336 232 336c183 0 229-137 229-336s-47-332-231-332zm4-246c347 5 535 225 539 578S978 25 631 20C283 15 96-208 92-561c-4-355 196-583 545-578" id="S"/><path fill="#080a0e" d="M795-1139c261-1 398 148 397 410V0H887v-653c-1-148-42-242-180-242-202 0-242 139-242 369V0H160v-1118h233l41 143h17c62-102 185-163 344-164" id="T"/><g id="f"><use transform="matrix(0.013020833333333334,0,0,0.013020833333333334,0,0)" xlink:href="#L"/><use transform="matrix(0.013020833333333334,0,0,0.013020833333333334,14.934895833333334,0)" xlink:href="#M"/><use transform="matrix(0.013020833333333334,0,0,0.013020833333333334,29.817708333333336,0)" xlink:href="#N"/><use transform="matrix(0.013020833333333334,0,0,0.013020833333333334,45.57291666666667,0)" xlink:href="#O"/><use transform="matrix(0.013020833333333334,0,0,0.013020833333333334,59.28385416666667,0)" xlink:href="#P"/><use transform="matrix(0.013020833333333334,0,0,0.013020833333333334,76.80989583333334,0)" xlink:href="#Q"/><use transform="matrix(0.013020833333333334,0,0,0.013020833333333334,88.38541666666667,0)" xlink:href="#R"/><use transform="matrix(0.013020833333333334,0,0,0.013020833333333334,96.5234375,0)" xlink:href="#S"/><use transform="matrix(0.013020833333333334,0,0,0.013020833333333334,113.03385416666667,0)" xlink:href="#T"/></g><use transform="matrix(0.07407407407407408,0,0,0.07407407407407408,0,0)" xlink:href="#J" id="g"/><use transform="matrix(0.013020833333333334,0,0,0.013020833333333334,0,0)" xlink:href="#T" id="h"/><path fill="#080a0e" d="M881-1016c0-191-181-195-387-192v395c210 7 387-9 387-203zm313-8c0 197-121 322-272 387 220 329 363 541 430 637h-344L659-561H494V0H184v-1462h426c360 1 584 108 584 438" id="U"/><path fill="#080a0e" d="M836-831c-99-39-182-77-306-82-139-6-173 83-92 144 51 39 327 139 383 188 71 62 119 126 119 249C940-74 747 21 463 20 305 20 202 0 94-45v-252c93 45 253 94 379 94 111 0 166-32 166-96 0-68-41-76-98-109-79-46-276-119-333-167-74-61-116-125-116-252 0-368 555-367 836-224" id="V"/><path fill="#080a0e" d="M618-1141c286 0 465 117 465 396V0H870l-59-152h-8C704-33 632 18 432 20 216 22 86-113 86-334c0-119 44-202 124-262 109-82 356-99 570-100 11-142-39-219-174-219-89 0-194 27-315 81l-101-206c129-67 271-101 428-101zm-71 938c137 0 235-88 233-223v-92c-190 3-382 4-381 186 0 86 49 129 148 129" id="W"/><g id="i"><use transform="matrix(0.01953125,0,0,0.01953125,0,0)" xlink:href="#U"/><use transform="matrix(0.01953125,0,0,0.01953125,26.40625,0)" xlink:href="#N"/><use transform="matrix(0.01953125,0,0,0.01953125,50.0390625,0)" xlink:href="#V"/><use transform="matrix(0.01953125,0,0,0.01953125,69.921875,0)" xlink:href="#S"/><use transform="matrix(0.01953125,0,0,0.01953125,94.6875,0)" xlink:href="#T"/><use transform="matrix(0.01953125,0,0,0.01953125,120.9765625,0)" xlink:href="#W"/><use transform="matrix(0.01953125,0,0,0.01953125,145.13671875,0)" xlink:href="#Q"/><use transform="matrix(0.01953125,0,0,0.01953125,162.5,0)" xlink:href="#N"/></g><path fill="#080a0e" d="M596-1225c-134-8-223 103-163 219 11 21 33 41 61 60s93 53 196 102c137 65 230 130 281 196s76 147 76 242c-3 286-231 426-539 426C352 20 214-9 94-68v-288c159 68 260 115 438 120 123 3 211-41 211-155 0-73-44-105-95-141-63-46-329-160-390-220-78-77-147-167-147-315 0-273 208-420 495-416 177 2 298 46 434 103l-100 241c-131-51-199-78-344-86" id="X"/><path fill="#080a0e" d="M643-1462c464-5 754 260 754 717 0 491-297 749-799 745H184v-1462h459zm432 725c0-314-139-471-416-471H494v952h133c299 0 448-160 448-481" id="Y"/><path fill="#080a0e" d="M1360 0h-352L625-616l-131 94V0H184v-1462h310v669l122-172 396-497h344L846-815" id="Z"/><g id="j"><use transform="matrix(0.01953125,0,0,0.01953125,0,0)" xlink:href="#X"/><use transform="matrix(0.01953125,0,0,0.01953125,22.03125,0)" xlink:href="#Y"/><use transform="matrix(0.01953125,0,0,0.01953125,51.640625,0)" xlink:href="#Z"/></g><path fill="#080a0e" d="M451-930c71-134 228-244 436-200l-23 286c-220-45-399 61-399 275V0H160v-1118h231l45 188h15" id="aa"/><path fill="#080a0e" d="M426 0L0-1118h319l216 637c24 81 39 157 45 229h6c3-64 15-141 45-229l215-637h319L739 0H426" id="ab"/><g id="k"><use transform="matrix(0.01953125,0,0,0.01953125,0,0)" xlink:href="#X"/><use transform="matrix(0.01953125,0,0,0.01953125,22.03125,0)" xlink:href="#N"/><use transform="matrix(0.01953125,0,0,0.01953125,45.6640625,0)" xlink:href="#aa"/><use transform="matrix(0.01953125,0,0,0.01953125,63.828125,0)" xlink:href="#ab"/><use transform="matrix(0.01953125,0,0,0.01953125,86.58203125,0)" xlink:href="#N"/><use transform="matrix(0.01953125,0,0,0.01953125,110.21484375,0)" xlink:href="#aa"/></g><path fill="#080a0e" d="M881-995c0-154-85-213-246-213H494v434h102c173 1 285-62 285-221zm-230-467c334-1 543 136 543 456 0 330-225 489-567 486H494V0H184v-1462h467" id="ac"/><path fill="#080a0e" d="M1384-895c-176 0-222 133-223 334V0H856v-653c-1-144-37-242-168-242-78 0-135 29-170 86s-53 152-53 283V0H160v-1118h233l41 143h17c56-98 174-164 325-164 167 0 281 55 340 164h27c55-99 179-165 330-164 265 2 385 133 385 410V0h-306v-653c-1-144-37-242-168-242" id="ad"/><g id="l"><use transform="matrix(0.015190972222222224,0,0,0.015190972222222224,0,0)" xlink:href="#ac"/><use transform="matrix(0.015190972222222224,0,0,0.015190972222222224,19.53559027777778,0)" xlink:href="#aa"/><use transform="matrix(0.015190972222222224,0,0,0.015190972222222224,33.040364583333336,0)" xlink:href="#S"/><use transform="matrix(0.015190972222222224,0,0,0.015190972222222224,52.302517361111114,0)" xlink:href="#ad"/><use transform="matrix(0.015190972222222224,0,0,0.015190972222222224,82.8515625,0)" xlink:href="#R"/><use transform="matrix(0.015190972222222224,0,0,0.015190972222222224,92.34592013888889,0)" xlink:href="#V"/><use transform="matrix(0.015190972222222224,0,0,0.015190972222222224,107.81032986111111,0)" xlink:href="#N"/></g><path fill="#080a0e" d="M1206-319c-5 124 144 115 224 65v219c-47 31-147 55-222 55-205-1-307-116-307-327v-578H563V0H258v-885H25v-131l178-102h1239v233h-236v566" id="ae"/><use transform="matrix(0.015190972222222224,0,0,0.015190972222222224,0,0)" xlink:href="#ae" id="m"/><use transform="matrix(0.015190972222222224,0,0,0.015190972222222224,0,0)" xlink:href="#K" id="n"/><use transform="matrix(0.015190972222222224,0,0,0.015190972222222224,0,0)" xlink:href="#T" id="o"/><path fill="#fff" d="M795-1139c261-1 398 148 397 410V0H887v-653c-1-148-42-242-180-242-202 0-242 139-242 369V0H160v-1118h233l41 143h17c62-102 185-163 344-164" id="af"/><use transform="matrix(0.010850694444444444,0,0,0.010850694444444444,0,0)" xlink:href="#af" id="p"/><path fill="#080a0e" d="M293 27c-110 0-177-61-176-170 0-113 63-170 176-170 109-1 174 61 174 170 0 105-67 170-174 170" id="ag"/><g id="q"><use transform="matrix(0.013020833333333334,0,0,0.013020833333333334,0,0)" xlink:href="#T"/><use transform="matrix(0.013020833333333334,0,0,0.013020833333333334,17.526041666666668,0)" xlink:href="#ag"/><use transform="matrix(0.013020833333333334,0,0,0.013020833333333334,25.130208333333336,0)" xlink:href="#K"/></g><g id="r"><use transform="matrix(0.013020833333333334,0,0,0.013020833333333334,0,0)" xlink:href="#T"/><use transform="matrix(0.013020833333333334,0,0,0.013020833333333334,17.526041666666668,0)" xlink:href="#ag"/><use transform="matrix(0.013020833333333334,0,0,0.013020833333333334,25.130208333333336,0)" xlink:href="#T"/></g><g id="s"><use transform="matrix(0.015190972222222224,0,0,0.015190972222222224,0,0)" xlink:href="#T"/><use transform="matrix(0.015190972222222224,0,0,0.015190972222222224,20.447048611111114,0)" xlink:href="#ag"/><use transform="matrix(0.015190972222222224,0,0,0.015190972222222224,29.318576388888893,0)" xlink:href="#K"/></g><g id="t"><use transform="matrix(0.015190972222222224,0,0,0.015190972222222224,0,0)" xlink:href="#T"/><use transform="matrix(0.015190972222222224,0,0,0.015190972222222224,20.447048611111114,0)" xlink:href="#ag"/><use transform="matrix(0.015190972222222224,0,0,0.015190972222222224,29.318576388888893,0)" xlink:href="#T"/></g></defs></g></svg>