<svg xmlns="http://www.w3.org/2000/svg" width="920" height="520" viewBox="0 0 920 520" font-family="Sansation, system-ui, sans-serif">
  <defs>
    <linearGradient id="t-panel" x1="0" y1="0" x2="0" y2="1">
      <stop offset="0" stop-color="#11151C"/>
      <stop offset="1" stop-color="#0C0F14"/>
    </linearGradient>
  </defs>

  <!-- panel -->
  <rect x="0" y="0" width="920" height="520" fill="url(#t-panel)"/>
  <rect x="0.75" y="0.75" width="918.5" height="518.5" fill="none" stroke="#222A36" stroke-width="1.5"/>

  <!-- eyebrow -->
  <rect x="40" y="34" width="10" height="10" fill="#B45309"/>
  <text x="60" y="43" fill="#94A3B8" font-size="13" letter-spacing="2.5">CENTRALIZED  ·  1 : N  ·  STAR TOPOLOGY</text>

  <!-- worker nodes -->
  <g>
    <!-- w1 -->
    <rect x="85"  y="78" width="150" height="58" fill="#161A22" stroke="#2A323F" stroke-width="1.5"/>
    <text x="160" y="105" text-anchor="middle" fill="#E4E7EB" font-size="17">Worker</text>
    <text x="160" y="123" text-anchor="middle" fill="#5B6678" font-size="12" font-family="system-ui, sans-serif">1</text>
    <!-- w2 -->
    <rect x="285" y="78" width="150" height="58" fill="#161A22" stroke="#2A323F" stroke-width="1.5"/>
    <text x="360" y="105" text-anchor="middle" fill="#E4E7EB" font-size="17">Worker</text>
    <text x="360" y="123" text-anchor="middle" fill="#5B6678" font-size="12" font-family="system-ui, sans-serif">2</text>
    <!-- w3 -->
    <rect x="485" y="78" width="150" height="58" fill="#161A22" stroke="#2A323F" stroke-width="1.5"/>
    <text x="560" y="105" text-anchor="middle" fill="#E4E7EB" font-size="17">Worker</text>
    <text x="560" y="123" text-anchor="middle" fill="#5B6678" font-size="12" font-family="system-ui, sans-serif">3</text>
    <!-- wN -->
    <rect x="685" y="78" width="150" height="58" fill="#161A22" stroke="#2A323F" stroke-width="1.5"/>
    <text x="760" y="105" text-anchor="middle" fill="#E4E7EB" font-size="17">Worker</text>
    <text x="760" y="123" text-anchor="middle" fill="#5B6678" font-size="12" font-family="system-ui, sans-serif">N</text>
  </g>

  <!-- converging star edges -->
  <g stroke="#3A4252" stroke-width="2" fill="none">
    <path d="M160 136 L460 348"/>
    <path d="M360 136 L460 348"/>
    <path d="M560 136 L460 348"/>
    <path d="M760 136 L460 348"/>
  </g>
  <!-- arrowheads into service -->
  <g fill="#3A4252">
    <path d="M460 348 l-9 -12 l14 4 z"/>
  </g>

  <!-- single heavy service block -->
  <g>
    <rect x="280" y="352" width="360" height="116" fill="#14181F" stroke="#3A4252" stroke-width="1.5"/>
    <!-- ember constraint bar -->
    <rect x="280" y="352" width="5" height="116" fill="#B45309"/>
    <text x="460" y="402" text-anchor="middle" fill="#E4E7EB" font-size="20">Temporal Service</text>
    <text x="460" y="428" text-anchor="middle" fill="#94A3B8" font-size="13" font-family="system-ui, sans-serif">single cluster · sized ahead of time</text>
    <!-- internal-component dots, hinting heavy composite system -->
    <g fill="#2A323F">
      <circle cx="420" cy="444" r="4"/>
      <circle cx="440" cy="444" r="4"/>
      <circle cx="460" cy="444" r="4"/>
      <circle cx="480" cy="444" r="4"/>
      <circle cx="500" cy="444" r="4"/>
    </g>
  </g>
</svg>
