<svg xmlns="http://www.w3.org/2000/svg" xmlns:xlink="http://www.w3.org/1999/xlink" xmlns:lucid="lucid" width="1282" height="562"><g transform="translate(-479 361)" lucid:page-tab-id="0_0"><path d="M480-354a6 6 0 0 1 6-6h1268a6 6 0 0 1 6 6v548a6 6 0 0 1-6 6H486a6 6 0 0 1-6-6z" stroke="#000" stroke-opacity="0" stroke-width="2" fill-opacity="0"/><path d="M800-314a6 6 0 0 1 6-6h148a6 6 0 0 1 6 6v148a6 6 0 0 1-6 6H806a6 6 0 0 1-6-6z" stroke="#94a3b8" stroke-width="2" fill="#e4e7eb"/><use xlink:href="#a" transform="matrix(1,0,0,1,805,-315) translate(11.2890625 84.81553819444446)"/><use xlink:href="#b" transform="matrix(1,0,0,1,805,-315) translate(120.92230902777777 84.81553819444446)"/><path d="M1280-314a6 6 0 0 1 6-6h148a6 6 0 0 1 6 6v148a6 6 0 0 1-6 6h-148a6 6 0 0 1-6-6z" stroke="#94a3b8" stroke-width="2" fill="#e4e7eb"/><use xlink:href="#a" transform="matrix(1,0,0,1,1285,-315) translate(10.635850694444443 84.81553819444446)"/><use xlink:href="#c" transform="matrix(1,0,0,1,1285,-315) translate(120.26909722222221 84.81553819444446)"/><path d="M1040 6a6 6 0 0 1 6-6h148a6 6 0 0 1 6 6v148a6 6 0 0 1-6 6h-148a6 6 0 0 1-6-6z" stroke="#94a3b8" stroke-width="2" fill="#e4e7eb"/><use xlink:href="#d" transform="matrix(1,0,0,1,1045,5) translate(6.731770833333329 61.37803819444445)"/><use xlink:href="#e" transform="matrix(1,0,0,1,1045,5) translate(15.580512152777771 112.2191840277778)"/><use xlink:href="#f" transform="matrix(1,0,0,1,1045,5) translate(116.630859375 112.2191840277778)"/><path d="M895.86-148.56l208.28 137.12" stroke="#94a3b8" stroke-width="4" fill="none"/><path d="M883.34-156.8l14.98.88-8.25 12.53zM1116.66-3.2l-14.98-.88 8.25-12.53z" stroke="#94a3b8" stroke-width="4" fill="#94a3b8"/><path d="M1344.14-148.56L1135.86-11.44" stroke="#94a3b8" stroke-width="4" fill="none"/><path d="M1356.66-156.8l-6.73 13.4-8.25-12.52zM1123.34-3.2l6.73-13.4 8.25 12.52z" stroke="#94a3b8" stroke-width="4" fill="#94a3b8"/><path d="M1130.25-240.67c0 5.53-4.48 10-10 10s-10-4.47-10-10c0-5.52 4.48-10 10-10s10 4.48 10 10zM1210-239.33c0 5.52-4.48 10-10 10s-10-4.48-10-10c0-5.53 4.48-10 10-10s10 4.47 10 10zM1050-239.33c0 5.52-4.48 10-10 10s-10-4.48-10-10c0-5.53 4.48-10 10-10s10 4.47 10 10z" stroke="#94a3b8" fill="#fff"/><defs><path d="M1169-178c39-215 75-309 230-918h172L1268 0h-197c-99-332-184-548-272-911h-8C712-564 610-319 514 0H322L23-1096h174c71 275 124 485 161 629s59 241 64 291h8c76-328 186-611 279-920h180l196 629c37 115 63 211 76 289h8" id="g"/><path d="M621-1116c316 0 501 239 501 567 0 339-180 575-508 569S119-212 115-549c-4-339 178-567 506-567zm-5 141c-239 0-329 168-329 426 0 255 93 430 331 430s332-174 332-430-95-426-334-426" id="h"/><path d="M340-893c80-153 237-262 467-211l-23 154c-45-10-85-15-120-15-184-3-322 182-322 377V0H176v-1096h137l19 203h8" id="i"/><path d="M340-561c134-179 332-366 485-535h197L578-629 1053 0H852L465-518 340-410V0H176v-1556h164c-4 336 9 669-8 995h8" id="j"/><path d="M995-51C878-2 799 19 639 20c-329 2-524-221-524-559 0-326 172-577 481-577 278 0 451 210 446 493v105H287c4 242 121 392 358 393 118 0 235-25 350-74v148zM864-653c2-195-85-324-270-324-190 0-288 139-303 324h573" id="k"/><g id="a"><use transform="matrix(0.015190972222222224,0,0,0.015190972222222224,0,0)" xlink:href="#g"/><use transform="matrix(0.015190972222222224,0,0,0.015190972222222224,24.199218750000004,0)" xlink:href="#h"/><use transform="matrix(0.015190972222222224,0,0,0.015190972222222224,42.99045138888889,0)" xlink:href="#i"/><use transform="matrix(0.015190972222222224,0,0,0.015190972222222224,55.69010416666667,0)" xlink:href="#j"/><use transform="matrix(0.015190972222222224,0,0,0.015190972222222224,71.39756944444444,0)" xlink:href="#k"/><use transform="matrix(0.015190972222222224,0,0,0.015190972222222224,88.85199652777777,0)" xlink:href="#i"/></g><path d="M715 0H553c4-427-9-874 8-1288-79 77-94 81-285 239l-88-114 387-299h140V0" id="l"/><use transform="matrix(0.015190972222222224,0,0,0.015190972222222224,0,0)" xlink:href="#l" id="b"/><path d="M694-1116c270 0 399 125 398 401V0H926v-709c-1-177-76-266-252-266-250 0-332 133-332 400V0H176v-1096h135l27 150h8c62-101 190-170 348-170" id="m"/><use transform="matrix(0.015190972222222224,0,0,0.015190972222222224,0,0)" xlink:href="#m" id="c"/><path d="M651 0H481v-1311H18v-151h1096v151H651V0" id="n"/><path d="M1368-1116c259 2 372 131 371 401V0h-166v-713c0-168-66-262-230-262-221 0-303 131-303 363V0H874v-713c-1-169-66-262-231-262-235 0-301 142-301 400V0H176v-1096h135l27 150h8c56-99 174-170 324-170 171 0 283 62 336 186h8c60-108 189-187 354-186" id="o"/><path d="M1141-549c0 329-147 569-455 569-159 0-273-61-344-161h-12c23 199 7 418 12 633H176v-1588h135l23 150h8c77-108 175-170 344-170 311 0 455 237 455 567zm-172-2c0-242-88-424-307-424-256 0-323 154-320 426 3 280 68 430 324 430 213 0 303-196 303-432" id="p"/><path d="M588-1114c260 0 384 106 385 366V0H850l-33-156h-8C708-34 639 17 442 20 231 23 94-94 94-303c0-221 177-337 531-348l186-6c11-203-40-320-233-320-91 0-195 28-310 84l-51-127c97-53 229-94 371-94zM268-301c-1 123 81 184 207 184 203 0 334-120 332-323v-99c-257 14-539-7-539 238" id="q"/><path d="M342 0H176v-1556h166V0" id="r"/><g id="d"><use transform="matrix(0.015190972222222224,0,0,0.015190972222222224,0,0)" xlink:href="#n"/><use transform="matrix(0.015190972222222224,0,0,0.015190972222222224,15.0390625,0)" xlink:href="#k"/><use transform="matrix(0.015190972222222224,0,0,0.015190972222222224,32.493489583333336,0)" xlink:href="#o"/><use transform="matrix(0.015190972222222224,0,0,0.015190972222222224,61.43229166666667,0)" xlink:href="#p"/><use transform="matrix(0.015190972222222224,0,0,0.015190972222222224,80.49696180555556,0)" xlink:href="#h"/><use transform="matrix(0.015190972222222224,0,0,0.015190972222222224,99.28819444444444,0)" xlink:href="#i"/><use transform="matrix(0.015190972222222224,0,0,0.015190972222222224,111.36501736111111,0)" xlink:href="#q"/><use transform="matrix(0.015190972222222224,0,0,0.015190972222222224,128.66753472222223,0)" xlink:href="#r"/></g><path d="M584-1331c-162 0-287 69-287 219 0 118 43 164 123 214 44 28 112 56 203 89 153 55 259 113 317 176s86 144 86 244c-1 276-228 409-520 409-173 0-307-22-400-67v-164c109 46 257 81 406 82 199 1 342-68 342-244 0-120-47-164-132-214-47-28-121-58-218-93-136-49-234-106-292-173s-87-154-87-261c-1-239 209-369 463-369 145 0 279 27 401 80l-53 148c-121-51-238-76-352-76" id="s"/><path d="M516-150c94-315 146-423 332-946h178L610 0H416L0-1096h178c98 281 253 670 330 946h8" id="t"/><g id="e"><use transform="matrix(0.015190972222222224,0,0,0.015190972222222224,0,0)" xlink:href="#s"/><use transform="matrix(0.015190972222222224,0,0,0.015190972222222224,17.07465277777778,0)" xlink:href="#k"/><use transform="matrix(0.015190972222222224,0,0,0.015190972222222224,34.529079861111114,0)" xlink:href="#i"/><use transform="matrix(0.015190972222222224,0,0,0.015190972222222224,47.22873263888889,0)" xlink:href="#t"/><use transform="matrix(0.015190972222222224,0,0,0.015190972222222224,62.81467013888889,0)" xlink:href="#k"/><use transform="matrix(0.015190972222222224,0,0,0.015190972222222224,80.26909722222223,0)" xlink:href="#i"/></g><use transform="matrix(0.015190972222222224,0,0,0.015190972222222224,0,0)" xlink:href="#l" id="f"/></defs></g></svg>