<svg xmlns="http://www.w3.org/2000/svg" width="920" height="520" viewBox="0 0 920 520" font-family="Sansation, system-ui, sans-serif">
  <!-- panel -->
  <rect x="0" y="0" width="920" height="520" fill="#FAFAF7"/>
  <rect x="0.75" y="0.75" width="918.5" height="518.5" fill="none" stroke="#DCDAD4" stroke-width="1.5"/>

  <!-- eyebrow -->
  <rect x="40" y="34" width="10" height="10" fill="#B45309"/>
  <text x="60" y="43" fill="#617196" font-size="13" letter-spacing="2.5">CENTRALIZED  ·  1 : N  ·  STAR TOPOLOGY</text>

  <!-- worker nodes -->
  <g>
    <rect x="85"  y="78" width="150" height="58" fill="#FFFFFF" stroke="#B5B2AB" stroke-width="1.5"/>
    <text x="160" y="105" text-anchor="middle" fill="#313749" font-size="17">Worker</text>
    <text x="160" y="123" text-anchor="middle" fill="#818FAF" font-size="12" font-family="system-ui, sans-serif">1</text>
    <rect x="285" y="78" width="150" height="58" fill="#FFFFFF" stroke="#B5B2AB" stroke-width="1.5"/>
    <text x="360" y="105" text-anchor="middle" fill="#313749" font-size="17">Worker</text>
    <text x="360" y="123" text-anchor="middle" fill="#818FAF" font-size="12" font-family="system-ui, sans-serif">2</text>
    <rect x="485" y="78" width="150" height="58" fill="#FFFFFF" stroke="#B5B2AB" stroke-width="1.5"/>
    <text x="560" y="105" text-anchor="middle" fill="#313749" font-size="17">Worker</text>
    <text x="560" y="123" text-anchor="middle" fill="#818FAF" font-size="12" font-family="system-ui, sans-serif">3</text>
    <rect x="685" y="78" width="150" height="58" fill="#FFFFFF" stroke="#B5B2AB" stroke-width="1.5"/>
    <text x="760" y="105" text-anchor="middle" fill="#313749" font-size="17">Worker</text>
    <text x="760" y="123" text-anchor="middle" fill="#818FAF" font-size="12" font-family="system-ui, sans-serif">N</text>
  </g>

  <!-- converging star edges -->
  <g stroke="#A8AEBD" stroke-width="2" fill="none">
    <path d="M160 136 L460 348"/>
    <path d="M360 136 L460 348"/>
    <path d="M560 136 L460 348"/>
    <path d="M760 136 L460 348"/>
  </g>
  <g fill="#A8AEBD">
    <path d="M460 348 l-9 -12 l14 4 z"/>
  </g>

  <!-- single heavy service block -->
  <g>
    <rect x="280" y="352" width="360" height="116" fill="#F0EFEB" stroke="#B5B2AB" stroke-width="1.5"/>
    <rect x="280" y="352" width="5" height="116" fill="#B45309"/>
    <text x="460" y="402" text-anchor="middle" fill="#313749" font-size="20">Temporal Service</text>
    <text x="460" y="428" text-anchor="middle" fill="#617196" font-size="13" font-family="system-ui, sans-serif">single cluster · sized ahead of time</text>
    <g fill="#C9C6BE">
      <circle cx="420" cy="444" r="4"/>
      <circle cx="440" cy="444" r="4"/>
      <circle cx="460" cy="444" r="4"/>
      <circle cx="480" cy="444" r="4"/>
      <circle cx="500" cy="444" r="4"/>
    </g>
  </g>
</svg>
