<svg xmlns="http://www.w3.org/2000/svg" xmlns:xlink="http://www.w3.org/1999/xlink" xmlns:lucid="lucid" width="1602" height="1722"><g transform="translate(-479 1001)" lucid:page-tab-id="0_0"><path d="M0-1500h2500v2500H0z" fill="#fff"/><path d="M480-994a6 6 0 0 1 6-6h1588a6 6 0 0 1 6 6V714a6 6 0 0 1-6 6H486a6 6 0 0 1-6-6z" stroke="#000" stroke-opacity="0" stroke-width="2" fill="#fff"/><path d="M1760-839V639.5" stroke="#3a414a" fill="none"/><path d="M1760.47-839h-.94v-.5h.94z" stroke="#3a414a" stroke-width=".05" fill="#3a414a"/><path d="M1760 639.5v.5M1280-839V639.5" stroke="#3a414a" fill="none"/><path d="M1280.47-839h-.94v-.5h.94z" stroke="#3a414a" stroke-width=".05" fill="#3a414a"/><path d="M1280 639.5v.5M800-839V639.5" stroke="#3a414a" fill="none"/><path d="M800.48-839h-.96v-.5h.96z" stroke="#3a414a" stroke-width=".05" fill="#3a414a"/><path d="M800 639.5v.5" stroke="#3a414a" fill="none"/><path d="M1680-440h160v760h-160zM720-760h160V520H720z" stroke="#3a414a" fill="#f2f3f5" fill-opacity=".5"/><path d="M640-960h320v120H640z" stroke="#3a414a" fill="#fff"/><use xlink:href="#a" transform="matrix(1,0,0,1,645,-955) translate(83.24001736111111 47.814670138888886)"/><use xlink:href="#b" transform="matrix(1,0,0,1,645,-955) translate(164.39236111111111 47.814670138888886)"/><use xlink:href="#c" transform="matrix(1,0,0,1,645,-955) translate(182.87109375 47.814670138888886)"/><use xlink:href="#d" transform="matrix(1,0,0,1,645,-955) translate(89.82204861111111 78.07725694444444)"/><use xlink:href="#e" transform="matrix(1,0,0,1,645,-955) translate(161.07855902777777 78.07725694444444)"/><use xlink:href="#f" transform="matrix(1,0,0,1,645,-955) translate(180.91362847222223 78.07725694444444)"/><path d="M1120-960h320v120h-320z" stroke="#3a414a" fill="#fff"/><use xlink:href="#g" transform="matrix(1,0,0,1,1125,-955) translate(106.23697916666667 65.00217013888889)"/><use xlink:href="#h" transform="matrix(1,0,0,1,1125,-955) translate(178.41579861111111 65.00217013888889)"/><path d="M1600-960h320v120h-320z" stroke="#3a414a" fill="#fff"/><use xlink:href="#a" transform="matrix(1,0,0,1,1605,-955) translate(83.24001736111111 47.814670138888886)"/><use xlink:href="#i" transform="matrix(1,0,0,1,1605,-955) translate(164.39236111111111 47.814670138888886)"/><use xlink:href="#j" transform="matrix(1,0,0,1,1605,-955) translate(182.87109375 47.814670138888886)"/><use xlink:href="#d" transform="matrix(1,0,0,1,1605,-955) translate(88.86176215277777 78.07725694444444)"/><use xlink:href="#k" transform="matrix(1,0,0,1,1605,-955) translate(160.11827256944443 78.07725694444444)"/><use xlink:href="#l" transform="matrix(1,0,0,1,1605,-955) translate(180.28971354166666 78.07725694444444)"/><path d="M760-720h80v160h-80zM1240-720h80v160h-80z" stroke="#3a414a" fill="#fff"/><path d="M1300-380c0 11.05-8.95 20-20 20s-20-8.95-20-20 8.95-20 20-20 20 8.95 20 20zM1780-380c0 11.05-8.95 20-20 20s-20-8.95-20-20 8.95-20 20-20 20 8.95 20 20z" stroke="#3a414a" stroke-width="2" fill="#3a414a"/><path d="M1301.5-380h421.1" stroke="#3a414a" fill="none"/><path d="M1301.5-379.52h-.55l.05-.44-.02-.52h.53z" stroke="#3a414a" stroke-width=".05" fill="#3a414a"/><path d="M1737.38-380l-14.27 4.63.02-9.26z" stroke="#3a414a" fill="#3a414a"/><path d="M720-754a6 6 0 0 1 6-6h28a6 6 0 0 1 6 6v28a6 6 0 0 1-6 6h-28a6 6 0 0 1-6-6z" fill="none"/><use xlink:href="#m" transform="matrix(1,0,0,1,720,-760) translate(8.73806423611111 28.62087673611111)"/><path d="M834.36-720.5h388.75" stroke="#3a414a" fill="none"/><path stroke="#3a414a" stroke-width=".05" fill="#3a414a"/><path d="M1237.88-720.5l-14.27 4.63.02-9.26z" stroke="#3a414a" fill="#3a414a"/><path d="M1239-560.14H856.88" stroke="#3a414a" fill="none"/><path d="M1239.5-559.67h-.5v-.95h.5z" stroke="#3a414a" stroke-width=".05" fill="#3a414a"/><path d="M842.12-560.14l14.26-4.64v9.27z" stroke="#3a414a" fill="#3a414a"/><path d="M1240-200h80v160h-80zM760-200h80v160h-80zM1240 120h80v160h-80zM1720 120h80v160h-80z" stroke="#3a414a" fill="#fff"/><path d="M1300 460c0 11.05-8.95 20-20 20s-20-8.95-20-20 8.95-20 20-20 20 8.95 20 20zM820 460c0 11.05-8.95 20-20 20s-20-8.95-20-20 8.95-20 20-20 20 8.95 20 20z" stroke="#3a414a" stroke-width="2" fill="#3a414a"/><path d="M1258.5 460H837.4" stroke="#3a414a" fill="none"/><path d="M1259 459.95l.02.53h-.53v-.96h.55z" stroke="#3a414a" stroke-width=".05" fill="#3a414a"/><path d="M822.62 460l14.27-4.63v9.26z" stroke="#3a414a" fill="#3a414a"/><path d="M841-199.95h382.12" stroke="#3a414a" fill="none"/><path d="M841-199.47h-.5v-.95h.5z" stroke="#3a414a" stroke-width=".05" fill="#3a414a"/><path d="M1237.88-199.95l-14.26 4.64v-9.28z" stroke="#3a414a" fill="#3a414a"/><path d="M1239.5-40H856.88M1239.5-40h.5" stroke="#3a414a" fill="none"/><path d="M842.12-40l14.26-4.63v9.27z" stroke="#3a414a" fill="#3a414a"/><path d="M1719 120.08h-382.12" stroke="#3a414a" fill="none"/><path d="M1719.5 120.55h-.5v-.95h.5z" stroke="#3a414a" stroke-width=".05" fill="#3a414a"/><path d="M1322.12 120.08l14.27-4.64-.02 9.27z" stroke="#3a414a" fill="#3a414a"/><path d="M1719 279.46h-382.12" stroke="#3a414a" fill="none"/><path d="M1719.5 279.94h-.5V279h.5z" stroke="#3a414a" stroke-width=".05" fill="#3a414a"/><path d="M1322.12 279.46l14.26-4.63v9.27z" stroke="#3a414a" fill="#3a414a"/><path d="M1060-760c0 11.05-8.95 20-20 20s-20-8.95-20-20 8.95-20 20-20 20 8.95 20 20z" stroke="#3a414a" fill-opacity="0"/><use xlink:href="#n" transform="matrix(1,0,0,1,1020,-780) translate(14.922534722222222 26.50173611111111)"/><path d="M1380-640c0 11.05-8.95 20-20 20s-20-8.95-20-20 8.95-20 20-20 20 8.95 20 20z" stroke="#3a414a" fill-opacity="0"/><use xlink:href="#o" transform="matrix(1,0,0,1,1340,-660) translate(14.922534722222222 26.50173611111111)"/><path d="M1680-434a6 6 0 0 1 6-6h28a6 6 0 0 1 6 6v28a6 6 0 0 1-6 6h-28a6 6 0 0 1-6-6z" fill="none"/><use xlink:href="#p" transform="matrix(1,0,0,1,1680,-440) translate(8.73806423611111 28.62087673611111)"/><path d="M1060-600c0 11.05-8.95 20-20 20s-20-8.95-20-20 8.95-20 20-20 20 8.95 20 20z" stroke="#3a414a" fill-opacity="0"/><use xlink:href="#q" transform="matrix(1,0,0,1,1020,-620) translate(14.922534722222222 26.50173611111111)"/><path d="M1540-420c0 11.05-8.95 20-20 20s-20-8.95-20-20 8.95-20 20-20 20 8.95 20 20z" stroke="#3a414a" fill-opacity="0"/><use xlink:href="#r" transform="matrix(1,0,0,1,1500,-440) translate(14.922534722222222 26.50173611111111)"/><path d="M1900-60c0 11.05-8.95 20-20 20s-20-8.95-20-20 8.95-20 20-20 20 8.95 20 20z" stroke="#3a414a" fill-opacity="0"/><use xlink:href="#s" transform="matrix(1,0,0,1,1860,-80) translate(14.922534722222222 26.50173611111111)"/><path d="M1060-240c0 11.05-8.95 20-20 20s-20-8.95-20-20 8.95-20 20-20 20 8.95 20 20z" stroke="#3a414a" fill-opacity="0"/><use xlink:href="#t" transform="matrix(1,0,0,1,1020,-260) translate(14.922534722222222 26.50173611111111)"/><path d="M1060-80c0 11.05-8.95 20-20 20s-20-8.95-20-20 8.95-20 20-20 20 8.95 20 20z" stroke="#3a414a" fill-opacity="0"/><use xlink:href="#u" transform="matrix(1,0,0,1,1020,-100) translate(14.922534722222222 26.50173611111111)"/><path d="M1380-120c0 11.05-8.95 20-20 20s-20-8.95-20-20 8.95-20 20-20 20 8.95 20 20z" stroke="#3a414a" fill-opacity="0"/><use xlink:href="#v" transform="matrix(1,0,0,1,1340,-140) translate(14.922534722222222 26.50173611111111)"/><path d="M1540 80c0 11.05-8.95 20-20 20s-20-8.95-20-20 8.95-20 20-20 20 8.95 20 20z" stroke="#3a414a" fill-opacity="0"/><g><use xlink:href="#w" transform="matrix(1,0,0,1,1500,60) translate(14.922534722222222 26.50173611111111)"/></g><path d="M1220 200c0 11.05-8.95 20-20 20s-20-8.95-20-20 8.95-20 20-20 20 8.95 20 20z" stroke="#3a414a" fill-opacity="0"/><g><use xlink:href="#x" transform="matrix(1,0,0,1,1180,180) translate(9.840069444444444 26.50173611111111)"/></g><path d="M1540 320c0 11.05-8.95 20-20 20s-20-8.95-20-20 8.95-20 20-20 20 8.95 20 20z" stroke="#3a414a" fill-opacity="0"/><g><use xlink:href="#y" transform="matrix(1,0,0,1,1500,300) translate(9.840069444444444 26.50173611111111)"/></g><path d="M1060 420c0 11.05-8.95 20-20 20s-20-8.95-20-20 8.95-20 20-20 20 8.95 20 20z" stroke="#3a414a" fill-opacity="0"/><g><use xlink:href="#z" transform="matrix(1,0,0,1,1020,400) translate(9.840069444444444 26.50173611111111)"/></g><path d="M480 666a6 6 0 0 1 6-6h548a6 6 0 0 1 6 6v48a6 6 0 0 1-6 6H486a6 6 0 0 1-6-6z" fill="none"/><g><use xlink:href="#A" transform="matrix(1,0,0,1,480,660) translate(9.583333333333428 36.896701388888886)"/></g><defs><path fill="#3a414a" d="M1477 0h-168c-114-383-232-756-342-1143-19-66-26-106-27-119-15 88-39 184-70 289L584 0H416L27-1462h180l231 903c32 127 55 241 70 344 18-122 46-241 80-358l262-889h180l275 897c32 103 59 220 81 350 13-95 37-210 72-346l230-901h180" id="B"/><path fill="#3a414a" d="M621-1116c316 0 501 239 501 567 0 339-180 575-508 569S119-212 115-549c-4-339 178-567 506-567zm-5 141c-239 0-329 168-329 426 0 255 93 430 331 430s332-174 332-430-95-426-334-426" id="C"/><path fill="#3a414a" d="M340-893c80-153 237-262 467-211l-23 154c-45-10-85-15-120-15-184-3-322 182-322 377V0H176v-1096h137l19 203h8" id="D"/><path fill="#3a414a" d="M340-561c134-179 332-366 485-535h197L578-629 1053 0H852L465-518 340-410V0H176v-1556h164c-4 336 9 669-8 995h8" id="E"/><path fill="#3a414a" d="M995-51C878-2 799 19 639 20c-329 2-524-221-524-559 0-326 172-577 481-577 278 0 451 210 446 493v105H287c4 242 121 392 358 393 118 0 235-25 350-74v148zM864-653c2-195-85-324-270-324-190 0-288 139-303 324h573" id="F"/><g id="a"><use transform="matrix(0.010850694444444444,0,0,0.010850694444444444,0,0)" xlink:href="#B"/><use transform="matrix(0.010850694444444444,0,0,0.010850694444444444,20.128038194444443,0)" xlink:href="#C"/><use transform="matrix(0.010850694444444444,0,0,0.010850694444444444,33.55034722222222,0)" xlink:href="#D"/><use transform="matrix(0.010850694444444444,0,0,0.010850694444444444,42.62152777777778,0)" xlink:href="#E"/><use transform="matrix(0.010850694444444444,0,0,0.010850694444444444,53.84114583333333,0)" xlink:href="#F"/><use transform="matrix(0.010850694444444444,0,0,0.010850694444444444,66.30859375,0)" xlink:href="#D"/></g><path fill="#3a414a" d="M715 0H553c4-427-9-874 8-1288-79 77-94 81-285 239l-88-114 387-299h140V0" id="G"/><use transform="matrix(0.010850694444444444,0,0,0.010850694444444444,0,0)" xlink:href="#G" id="b"/><path fill="#3a414a" d="M383 324C201 116 82-188 82-561c0-378 120-688 301-901h162c-172 227-289 529-289 899 0 361 122 665 287 887H383" id="H"/><path fill="#3a414a" d="M223-1462c182 213 301 524 301 901 0 373-119 679-301 885H63c166-222 287-526 287-887 0-369-117-672-289-899h162" id="I"/><g id="c"><use transform="matrix(0.010850694444444444,0,0,0.010850694444444444,0,0)" xlink:href="#H"/><use transform="matrix(0.010850694444444444,0,0,0.010850694444444444,6.575520833333333,0)" xlink:href="#B"/><use transform="matrix(0.008680555555555556,0,0,0.008680555555555556,27.148437499999996,0)" xlink:href="#G"/><use transform="matrix(0.010850694444444444,0,0,0.010850694444444444,37.31336805555555,0)" xlink:href="#I"/></g><path fill="#3a414a" d="M305-731c0 386 189 602 569 602 101 0 200-12 297-35v-450H844v-152h497v711c-160 50-302 75-514 75-450 0-708-292-702-751 7-475 281-752 758-752 156 0 301 29 436 86l-66 150c-132-56-259-84-381-84-359-3-567 235-567 600" id="J"/><path fill="#3a414a" d="M563 20c-271 0-399-123-399-399v-717h168v711c1 177 76 266 252 266 250 0 331-135 331-401v-576h166V0H944l-24-147h-9C848-44 724 20 563 20" id="K"/><path fill="#3a414a" d="M1141-549c0 329-147 569-455 569-159 0-273-61-344-161h-12c23 199 7 418 12 633H176v-1588h135l23 150h8c77-108 175-170 344-170 311 0 455 237 455 567zm-172-2c0-242-88-424-307-424-256 0-323 154-320 426 3 280 68 430 324 430 213 0 303-196 303-432" id="L"/><g id="d"><use transform="matrix(0.010850694444444444,0,0,0.010850694444444444,0,0)" xlink:href="#J"/><use transform="matrix(0.010850694444444444,0,0,0.010850694444444444,16.178385416666668,0)" xlink:href="#D"/><use transform="matrix(0.010850694444444444,0,0,0.010850694444444444,24.8046875,0)" xlink:href="#C"/><use transform="matrix(0.010850694444444444,0,0,0.010850694444444444,38.22699652777778,0)" xlink:href="#K"/><use transform="matrix(0.010850694444444444,0,0,0.010850694444444444,51.86631944444444,0)" xlink:href="#L"/></g><path fill="#3a414a" d="M1120 0L938-465H352L172 0H0l578-1468h143L1296 0h-176zM885-618c-81-228-168-420-238-664-57 230-159 449-235 664h473" id="M"/><use transform="matrix(0.010850694444444444,0,0,0.010850694444444444,0,0)" xlink:href="#M" id="e"/><g id="f"><use transform="matrix(0.010850694444444444,0,0,0.010850694444444444,0,0)" xlink:href="#H"/><use transform="matrix(0.010850694444444444,0,0,0.010850694444444444,6.575520833333333,0)" xlink:href="#J"/><use transform="matrix(0.008680555555555556,0,0,0.008680555555555556,22.75390625,0)" xlink:href="#M"/><use transform="matrix(0.008680555555555556,0,0,0.008680555555555556,34.00390625,0)" xlink:href="#I"/></g><path fill="#3a414a" d="M584-1331c-162 0-287 69-287 219 0 118 43 164 123 214 44 28 112 56 203 89 153 55 259 113 317 176s86 144 86 244c-1 276-228 409-520 409-173 0-307-22-400-67v-164c109 46 257 81 406 82 199 1 342-68 342-244 0-120-47-164-132-214-47-28-121-58-218-93-136-49-234-106-292-173s-87-154-87-261c-1-239 209-369 463-369 145 0 279 27 401 80l-53 148c-121-51-238-76-352-76" id="N"/><path fill="#3a414a" d="M516-150c94-315 146-423 332-946h178L610 0H416L0-1096h178c98 281 253 670 330 946h8" id="O"/><g id="g"><use transform="matrix(0.010850694444444444,0,0,0.010850694444444444,0,0)" xlink:href="#N"/><use transform="matrix(0.010850694444444444,0,0,0.010850694444444444,12.196180555555555,0)" xlink:href="#F"/><use transform="matrix(0.010850694444444444,0,0,0.010850694444444444,24.66362847222222,0)" xlink:href="#D"/><use transform="matrix(0.010850694444444444,0,0,0.010850694444444444,33.73480902777778,0)" xlink:href="#O"/><use transform="matrix(0.010850694444444444,0,0,0.010850694444444444,44.86762152777778,0)" xlink:href="#F"/><use transform="matrix(0.010850694444444444,0,0,0.010850694444444444,57.33506944444444,0)" xlink:href="#D"/></g><g id="h"><use transform="matrix(0.010850694444444444,0,0,0.010850694444444444,0,0)" xlink:href="#H"/><use transform="matrix(0.010850694444444444,0,0,0.010850694444444444,6.575520833333333,0)" xlink:href="#N"/><use transform="matrix(0.010850694444444444,0,0,0.010850694444444444,18.77170138888889,0)" xlink:href="#I"/></g><path fill="#3a414a" d="M559-1483c258 0 441 142 440 389 0 93-26 184-78 275-109 192-433 475-612 657v8h752V0H100v-143c177-182 479-462 617-641 67-87 110-168 112-303 2-158-106-258-268-254-165 4-240 52-354 139l-88-113c135-112 281-168 440-168" id="P"/><use transform="matrix(0.010850694444444444,0,0,0.010850694444444444,0,0)" xlink:href="#P" id="i"/><g id="j"><use transform="matrix(0.010850694444444444,0,0,0.010850694444444444,0,0)" xlink:href="#H"/><use transform="matrix(0.010850694444444444,0,0,0.010850694444444444,6.575520833333333,0)" xlink:href="#B"/><use transform="matrix(0.008680555555555556,0,0,0.008680555555555556,27.148437499999996,0)" xlink:href="#P"/><use transform="matrix(0.010850694444444444,0,0,0.010850694444444444,37.31336805555555,0)" xlink:href="#I"/></g><path fill="#3a414a" d="M1214-416C1213-138 1004 0 711 0H201v-1462h413c194 0 334 29 421 87s130 150 130 275c0 188-114 295-284 324v10c222 38 333 155 333 350zm-225-667c0-194-147-232-368-232H371v479h280c219-3 338-46 338-247zm43 655c0-204-147-264-370-264H371v547h305c220-1 356-73 356-283" id="Q"/><use transform="matrix(0.010850694444444444,0,0,0.010850694444444444,0,0)" xlink:href="#Q" id="k"/><g id="l"><use transform="matrix(0.010850694444444444,0,0,0.010850694444444444,0,0)" xlink:href="#H"/><use transform="matrix(0.010850694444444444,0,0,0.010850694444444444,6.575520833333333,0)" xlink:href="#J"/><use transform="matrix(0.008680555555555556,0,0,0.008680555555555556,22.75390625,0)" xlink:href="#Q"/><use transform="matrix(0.010850694444444444,0,0,0.010850694444444444,34.27300347222222,0)" xlink:href="#I"/></g><path fill="#3a414a" d="M1016 0H201v-1462h815v151H371v471h606v150H371v538h645V0" id="R"/><g id="m"><use transform="matrix(0.010850694444444444,0,0,0.010850694444444444,0,0)" xlink:href="#R"/><use transform="matrix(0.008680555555555556,0,0,0.008680555555555556,12.358940972222221,0)" xlink:href="#G"/></g><use transform="matrix(0.008680555555555556,0,0,0.008680555555555556,0,0)" xlink:href="#G" id="n"/><use transform="matrix(0.008680555555555556,0,0,0.008680555555555556,0,0)" xlink:href="#P" id="o"/><g id="p"><use transform="matrix(0.010850694444444444,0,0,0.010850694444444444,0,0)" xlink:href="#R"/><use transform="matrix(0.008680555555555556,0,0,0.008680555555555556,12.358940972222221,0)" xlink:href="#P"/></g><path fill="#3a414a" d="M557-1483c261-2 449 121 449 365 0 202-125 312-301 348v8c212 25 346 130 346 348 0 303-232 437-557 434C328 19 210-2 94-59v-158c108 55 257 96 406 96 253 0 379-99 379-297 0-177-139-266-418-266H317v-143h146c207 3 370-92 371-285 1-150-117-233-273-229-171 4-249 44-375 122l-84-112c109-87 268-150 455-152" id="S"/><use transform="matrix(0.008680555555555556,0,0,0.008680555555555556,0,0)" xlink:href="#S" id="q"/><path fill="#3a414a" d="M1130-336H913V0H754v-336H43v-145l694-989h176v983h217v151zM754-487c2-284-7-530 10-809h-8c-32 64-61 118-90 159L209-487h545" id="T"/><use transform="matrix(0.008680555555555556,0,0,0.008680555555555556,0,0)" xlink:href="#T" id="r"/><path fill="#3a414a" d="M512-123c223 0 372-106 371-323 0-204-125-306-375-306-63 0-148 10-254 29l-86-55 55-684h727v153H365l-37 439c77-15 153-23 229-23 289 0 496 151 496 428 0 312-221 485-543 485-165 0-290-26-377-79v-160c85 57 241 96 379 96" id="U"/><use transform="matrix(0.008680555555555556,0,0,0.008680555555555556,0,0)" xlink:href="#U" id="s"/><path fill="#3a414a" d="M610 20c-332-4-493-282-493-645 0-287 55-503 167-645s277-213 496-213c75 0 135 6 178 19v143c-51-17-110-25-176-25-157 0-276 48-359 146S295-948 287-739h12c73-115 189-172 348-172 263 0 424 177 424 442 0 293-175 492-461 489zM287-506c0 212 112 385 321 385 200 0 299-137 299-348 0-191-98-312-291-311-128 1-231 59-284 139-30 43-45 88-45 135" id="V"/><use transform="matrix(0.008680555555555556,0,0,0.008680555555555556,0,0)" xlink:href="#V" id="t"/><path fill="#3a414a" d="M152-1135c0-225 192-348 432-348 245 0 434 118 434 350 0 72-22 138-67 197S835-823 737-774c119 57 203 116 253 178s75 135 75 217c0 256-203 399-475 399-288 0-486-123-486-393 0-167 102-298 306-391-92-52-158-108-198-168s-60-128-60-203zM586-115c184 0 314-89 315-262 0-65-26-123-78-173s-143-99-272-146c-99 43-171 90-216 142s-67 113-67 185c1 172 134 254 318 254zm268-1013c-1-144-117-220-272-220-153 0-266 77-267 220 0 61 20 114 59 158s112 88 218 132c95-40 162-83 202-129s60-100 60-161" id="W"/><use transform="matrix(0.008680555555555556,0,0,0.008680555555555556,0,0)" xlink:href="#W" id="u"/><path fill="#3a414a" d="M285 0l606-1309H94v-153h973v133L469 0H285" id="X"/><use transform="matrix(0.008680555555555556,0,0,0.008680555555555556,0,0)" xlink:href="#X" id="v"/><path fill="#3a414a" d="M106-991c0-291 181-498 463-492 348 8 492 281 492 645 0 572-221 858-664 858-77 0-139-7-184-20v-143c53 17 114 26 182 26 356 0 482-232 496-604h-12c-67 103-189 169-351 170-262 2-422-172-422-440zm787 35c0-214-113-380-324-385-199-4-300 142-299 348 1 191 96 313 291 309 180-3 332-102 332-272" id="Y"/><use transform="matrix(0.008680555555555556,0,0,0.008680555555555556,0,0)" xlink:href="#Y" id="w"/><path fill="#3a414a" d="M1069-733c0 253-39 441-119 566S748 20 584 20c-157 0-277-64-359-192S102-486 102-733c0-255 40-444 119-567s200-185 363-185c159 0 280 64 362 193s123 315 123 559zm-724-463c-95 160-94 768 0 928 55 94 130 145 239 145 111 0 185-52 240-147 94-164 94-761 0-924-55-95-129-147-240-147-109 0-184 52-239 145" id="Z"/><g id="x"><use transform="matrix(0.008680555555555556,0,0,0.008680555555555556,0,0)" xlink:href="#G"/><use transform="matrix(0.008680555555555556,0,0,0.008680555555555556,10.164930555555555,0)" xlink:href="#Z"/></g><g id="y"><use transform="matrix(0.008680555555555556,0,0,0.008680555555555556,0,0)" xlink:href="#G"/><use transform="matrix(0.008680555555555556,0,0,0.008680555555555556,10.164930555555555,0)" xlink:href="#G"/></g><g id="z"><use transform="matrix(0.008680555555555556,0,0,0.008680555555555556,0,0)" xlink:href="#G"/><use transform="matrix(0.008680555555555556,0,0,0.008680555555555556,10.164930555555555,0)" xlink:href="#P"/></g><path fill="#3a414a" d="M115-545c0-330 146-571 454-571 149 0 263 54 342 162h13c-20-185-8-401-11-602h166V0H944l-22-147h-9C836-36 722 20 569 20c-309 0-454-234-454-565zm172 2c0 249 78 424 303 424 257 0 327-150 323-426-4-282-68-432-325-432-220 0-301 191-301 434" id="aa"/><path fill="#3a414a" d="M342 0H176v-1096h166V0zm-82-1282c-61 0-98-43-98-111 0-69 36-110 98-110 59 0 98 43 98 110s-39 111-98 111" id="ab"/><path fill="#3a414a" d="M502-977c-130 0-238 32-238 139 0 75 39 101 95 134 33 19 97 46 192 81 130 48 217 95 263 143s69 108 69 181C883-73 695 20 449 20 304 20 190-3 109-49v-154c91 47 216 86 344 86 149 0 270-36 270-168 0-43-21-76-55-109-56-55-367-158-434-208-74-55-128-109-128-225 0-327 490-342 754-217l-59 135c-110-45-210-68-299-68" id="ac"/><path fill="#3a414a" d="M354-322c-2 123 60 204 176 205 51 1 114-10 150-20v127C647 7 557 20 506 20 294 20 188-92 188-315v-652H31v-80l157-69 70-234h96v254h318v129H354v645" id="ad"/><path fill="#3a414a" d="M686 20c-159 0-273-61-344-161h-12L295 0H176v-1556h166c-2 198 6 423-8 606h8c77-109 192-164 344-164 310 0 455 234 455 565 0 329-147 569-455 569zm283-571c0-257-72-424-307-424-256 0-320 146-320 426s68 430 324 430c228 0 303-184 303-432" id="ae"/><path fill="#3a414a" d="M84-473v-152h491v152H84" id="af"/><path fill="#3a414a" d="M287-543c-1 247 91 418 323 418 91 0 185-20 281-59v147C818 1 725 20 614 20c-329 0-499-221-499-561 0-349 172-575 510-575 96 0 221 26 282 57l-51 141c-61-25-157-50-235-51-223 0-334 142-334 426" id="ag"/><path fill="#3a414a" d="M694-1116c270 0 399 125 398 401V0H926v-709c-1-177-76-266-252-266-250 0-332 133-332 400V0H176v-1096h135l27 150h8c62-101 190-170 348-170" id="ah"/><path fill="#3a414a" d="M588-1114c260 0 384 106 385 366V0H850l-33-156h-8C708-34 639 17 442 20 231 23 94-94 94-303c0-221 177-337 531-348l186-6c11-203-40-320-233-320-91 0-195 28-310 84l-51-127c97-53 229-94 371-94zM268-301c-1 123 81 184 207 184 203 0 334-120 332-323v-99c-257 14-539-7-539 238" id="ai"/><path fill="#3a414a" d="M342 0H176v-1556h166V0" id="aj"/><path fill="#3a414a" d="M1368-1116c259 2 372 131 371 401V0h-166v-713c0-168-66-262-230-262-221 0-303 131-303 363V0H874v-713c-1-169-66-262-231-262-235 0-301 142-301 400V0H176v-1096h135l27 150h8c56-99 174-170 324-170 171 0 283 62 336 186h8c60-108 189-187 354-186" id="ak"/><path fill="#3a414a" d="M287-543c0 246 78 424 303 424 259 0 323-148 323-426 0-279-71-432-325-432-220 0-301 191-301 434zm-172-2c0-328 147-571 454-571 150 0 265 57 346 170h9l24-150h131V492H913c5-208-11-450 11-639h-13C834-36 719 20 565 20c-305 0-450-240-450-565" id="al"/><g id="A"><use transform="matrix(0.008680555555555556,0,0,0.008680555555555556,0,0)" xlink:href="#aa"/><use transform="matrix(0.008680555555555556,0,0,0.008680555555555556,10.894097222222223,0)" xlink:href="#ab"/><use transform="matrix(0.008680555555555556,0,0,0.008680555555555556,15.390625,0)" xlink:href="#ac"/><use transform="matrix(0.008680555555555556,0,0,0.008680555555555556,23.87152777777778,0)" xlink:href="#ad"/><use transform="matrix(0.008680555555555556,0,0,0.008680555555555556,30.147569444444446,0)" xlink:href="#D"/><use transform="matrix(0.008680555555555556,0,0,0.008680555555555556,37.40451388888889,0)" xlink:href="#ab"/><use transform="matrix(0.008680555555555556,0,0,0.008680555555555556,41.90104166666667,0)" xlink:href="#ae"/><use transform="matrix(0.008680555555555556,0,0,0.008680555555555556,52.79513888888889,0)" xlink:href="#K"/><use transform="matrix(0.008680555555555556,0,0,0.008680555555555556,63.70659722222223,0)" xlink:href="#ad"/><use transform="matrix(0.008680555555555556,0,0,0.008680555555555556,69.9826388888889,0)" xlink:href="#F"/><use transform="matrix(0.008680555555555556,0,0,0.008680555555555556,79.95659722222223,0)" xlink:href="#aa"/><use transform="matrix(0.008680555555555556,0,0,0.008680555555555556,90.85069444444447,0)" xlink:href="#af"/><use transform="matrix(0.008680555555555556,0,0,0.008680555555555556,96.57118055555557,0)" xlink:href="#ag"/><use transform="matrix(0.008680555555555556,0,0,0.008680555555555556,105.03472222222224,0)" xlink:href="#C"/><use transform="matrix(0.008680555555555556,0,0,0.008680555555555556,115.77256944444447,0)" xlink:href="#C"/><use transform="matrix(0.008680555555555556,0,0,0.008680555555555556,126.5104166666667,0)" xlink:href="#D"/><use transform="matrix(0.008680555555555556,0,0,0.008680555555555556,133.41145833333337,0)" xlink:href="#aa"/><use transform="matrix(0.008680555555555556,0,0,0.008680555555555556,144.3055555555556,0)" xlink:href="#ab"/><use transform="matrix(0.008680555555555556,0,0,0.008680555555555556,148.80208333333337,0)" xlink:href="#ah"/><use transform="matrix(0.008680555555555556,0,0,0.008680555555555556,159.7135416666667,0)" xlink:href="#ai"/><use transform="matrix(0.008680555555555556,0,0,0.008680555555555556,169.60069444444449,0)" xlink:href="#ad"/><use transform="matrix(0.008680555555555556,0,0,0.008680555555555556,175.87673611111114,0)" xlink:href="#ab"/><use transform="matrix(0.008680555555555556,0,0,0.008680555555555556,180.37326388888894,0)" xlink:href="#C"/><use transform="matrix(0.008680555555555556,0,0,0.008680555555555556,191.11111111111114,0)" xlink:href="#ah"/><use transform="matrix(0.008680555555555556,0,0,0.008680555555555556,202.02256944444449,0)" xlink:href="#af"/><use transform="matrix(0.008680555555555556,0,0,0.008680555555555556,207.7430555555556,0)" xlink:href="#L"/><use transform="matrix(0.008680555555555556,0,0,0.008680555555555556,218.63715277777783,0)" xlink:href="#D"/><use transform="matrix(0.008680555555555556,0,0,0.008680555555555556,225.5381944444445,0)" xlink:href="#C"/><use transform="matrix(0.008680555555555556,0,0,0.008680555555555556,236.27604166666674,0)" xlink:href="#ad"/><use transform="matrix(0.008680555555555556,0,0,0.008680555555555556,242.5520833333334,0)" xlink:href="#C"/><use transform="matrix(0.008680555555555556,0,0,0.008680555555555556,253.28993055555563,0)" xlink:href="#ag"/><use transform="matrix(0.008680555555555556,0,0,0.008680555555555556,261.7534722222223,0)" xlink:href="#C"/><use transform="matrix(0.008680555555555556,0,0,0.008680555555555556,272.4913194444445,0)" xlink:href="#aj"/><use transform="matrix(0.008680555555555556,0,0,0.008680555555555556,276.9878472222223,0)" xlink:href="#af"/><use transform="matrix(0.008680555555555556,0,0,0.008680555555555556,282.70833333333337,0)" xlink:href="#F"/><use transform="matrix(0.008680555555555556,0,0,0.008680555555555556,292.3263888888889,0)" xlink:href="#O"/><use transform="matrix(0.008680555555555556,0,0,0.008680555555555556,301.2326388888889,0)" xlink:href="#F"/><use transform="matrix(0.008680555555555556,0,0,0.008680555555555556,311.20659722222223,0)" xlink:href="#ah"/><use transform="matrix(0.008680555555555556,0,0,0.008680555555555556,322.11805555555554,0)" xlink:href="#ad"/><use transform="matrix(0.008680555555555556,0,0,0.008680555555555556,328.39409722222223,0)" xlink:href="#K"/><use transform="matrix(0.008680555555555556,0,0,0.008680555555555556,339.30555555555554,0)" xlink:href="#ai"/><use transform="matrix(0.008680555555555556,0,0,0.008680555555555556,349.19270833333326,0)" xlink:href="#aj"/><use transform="matrix(0.008680555555555556,0,0,0.008680555555555556,353.6892361111111,0)" xlink:href="#af"/><use transform="matrix(0.008680555555555556,0,0,0.008680555555555556,359.4097222222222,0)" xlink:href="#D"/><use transform="matrix(0.008680555555555556,0,0,0.008680555555555556,366.31076388888886,0)" xlink:href="#F"/><use transform="matrix(0.008680555555555556,0,0,0.008680555555555556,376.2847222222222,0)" xlink:href="#ac"/><use transform="matrix(0.008680555555555556,0,0,0.008680555555555556,384.76562499999994,0)" xlink:href="#K"/><use transform="matrix(0.008680555555555556,0,0,0.008680555555555556,395.6770833333333,0)" xlink:href="#ak"/><use transform="matrix(0.008680555555555556,0,0,0.008680555555555556,412.2135416666666,0)" xlink:href="#L"/><use transform="matrix(0.008680555555555556,0,0,0.008680555555555556,423.1076388888888,0)" xlink:href="#ad"/><use transform="matrix(0.008680555555555556,0,0,0.008680555555555556,429.3836805555555,0)" xlink:href="#ab"/><use transform="matrix(0.008680555555555556,0,0,0.008680555555555556,433.8802083333332,0)" xlink:href="#C"/><use transform="matrix(0.008680555555555556,0,0,0.008680555555555556,444.6180555555555,0)" xlink:href="#ah"/><use transform="matrix(0.008680555555555556,0,0,0.008680555555555556,455.5295138888888,0)" xlink:href="#af"/><use transform="matrix(0.008680555555555556,0,0,0.008680555555555556,461.2499999999999,0)" xlink:href="#ac"/><use transform="matrix(0.008680555555555556,0,0,0.008680555555555556,469.73090277777766,0)" xlink:href="#F"/><use transform="matrix(0.008680555555555556,0,0,0.008680555555555556,479.7048611111109,0)" xlink:href="#al"/><use transform="matrix(0.008680555555555556,0,0,0.008680555555555556,490.5989583333332,0)" xlink:href="#K"/><use transform="matrix(0.008680555555555556,0,0,0.008680555555555556,501.5104166666665,0)" xlink:href="#F"/><use transform="matrix(0.008680555555555556,0,0,0.008680555555555556,511.48437499999983,0)" xlink:href="#ah"/><use transform="matrix(0.008680555555555556,0,0,0.008680555555555556,522.3958333333331,0)" xlink:href="#ag"/><use transform="matrix(0.008680555555555556,0,0,0.008680555555555556,530.8593749999998,0)" xlink:href="#F"/></g></defs></g></svg>