<svg xmlns="http://www.w3.org/2000/svg" xmlns:xlink="http://www.w3.org/1999/xlink" xmlns:lucid="lucid" width="1602" height="362"><g transform="translate(-239 -399)" lucid:page-tab-id="0_0"><path d="M0 0h2000v1000H0z" fill="#fff"/><path d="M240 406a6 6 0 0 1 6-6h1588a6 6 0 0 1 6 6v348a6 6 0 0 1-6 6H246a6 6 0 0 1-6-6z" stroke="#000" stroke-opacity="0" stroke-width="2" fill="#fff"/><path d="M440 446a6 6 0 0 1 6-6h548a6 6 0 0 1 6 6v228a6 6 0 0 1-6 6H446a6 6 0 0 1-6-6z" stroke="#000" stroke-opacity="0" fill="#f2f3f5" fill-opacity=".5"/><use xlink:href="#a" transform="matrix(1,0,0,1,440,440) translate(230.9765625 38.752170138888886)"/><use xlink:href="#b" transform="matrix(1,0,0,1,440,440) translate(316.66449652777777 38.752170138888886)"/><path d="M480 486a6 6 0 0 1 6-6h148a6 6 0 0 1 6 6v148a6 6 0 0 1-6 6H486a6 6 0 0 1-6-6z" stroke="#3a414a" fill="#fff"/><use xlink:href="#c" transform="matrix(1,0,0,1,485,485) translate(32.486979166666664 84.68967013888889)"/><path d="M800 486a6 6 0 0 1 6-6h148a6 6 0 0 1 6 6v148a6 6 0 0 1-6 6H806a6 6 0 0 1-6-6z" stroke="#3a414a" fill="#fff"/><use xlink:href="#d" transform="matrix(1,0,0,1,805,485) translate(24.782986111111107 84.68967013888889)"/><path d="M641 521.24h142.12" stroke="#3a414a" fill="none"/><path d="M641 521.72h-.5v-.95h.5z" stroke="#3a414a" stroke-width=".05" fill="#3a414a"/><path d="M797.88 521.24l-14.26 4.64v-9.27z" stroke="#3a414a" fill="#3a414a"/><path d="M799 600.47h-1.97m-3.95 0h-3.95m-3.95 0h-3.94m-3.95 0h-3.96m-3.95 0h-3.95m-3.95 0h-3.95m-3.95 0h-3.95m-3.94 0h-3.94m-3.95 0h-3.94m-3.94 0h-3.95m-3.95 0h-3.95m-3.95 0h-3.94m-3.95 0h-3.95m-3.95 0h-3.94m-3.96 0h-3.95m-3.96 0h-3.94m-3.95 0h-3.95m-3.95 0h-3.95m-3.94 0h-1.98" stroke="#3a414a" fill="none"/><path d="M799.5 600.94h-.5V600h.5z" stroke="#3a414a" stroke-width=".05" fill="#3a414a"/><path d="M642.12 600.47l14.26-4.64v9.27z" stroke="#3a414a" fill="#3a414a"/><path d="M240 706a6 6 0 0 1 6-6h148a6 6 0 0 1 6 6v48a6 6 0 0 1-6 6H246a6 6 0 0 1-6-6z" fill="none"/><use xlink:href="#e" transform="matrix(1,0,0,1,240,700) translate(8.059895833333343 36.896701388888886)"/><path d="M1080 446a6 6 0 0 1 6-6h548a6 6 0 0 1 6 6v228a6 6 0 0 1-6 6h-548a6 6 0 0 1-6-6z" stroke="#000" stroke-opacity="0" fill="#f2f3f5" fill-opacity=".5"/><use xlink:href="#a" transform="matrix(1,0,0,1,1080,440) translate(230.34722222222223 38.752170138888886)"/><use xlink:href="#f" transform="matrix(1,0,0,1,1080,440) translate(316.03515625 38.752170138888886)"/><path d="M1120 486a6 6 0 0 1 6-6h148a6 6 0 0 1 6 6v148a6 6 0 0 1-6 6h-148a6 6 0 0 1-6-6z" stroke="#3a414a" fill="#fff"/><use xlink:href="#c" transform="matrix(1,0,0,1,1125,485) translate(32.486979166666664 84.68967013888889)"/><path d="M1440 486a6 6 0 0 1 6-6h148a6 6 0 0 1 6 6v148a6 6 0 0 1-6 6h-148a6 6 0 0 1-6-6z" stroke="#3a414a" fill="#fff"/><use xlink:href="#d" transform="matrix(1,0,0,1,1445,485) translate(24.782986111111107 84.68967013888889)"/><path d="M1281 521.24h142.12" stroke="#3a414a" fill="none"/><path d="M1281 521.72h-.5v-.95h.5z" stroke="#3a414a" stroke-width=".05" fill="#3a414a"/><path d="M1437.88 521.24l-14.26 4.64v-9.27z" stroke="#3a414a" fill="#3a414a"/><path d="M1439 600.47h-1.97m-3.95 0h-3.95m-3.95 0h-3.94m-3.95 0h-3.96m-3.95 0h-3.96m-3.94 0h-3.95m-3.95 0h-3.95m-3.94 0h-3.94m-3.95 0h-3.94m-3.94 0h-3.95m-3.95 0h-3.95m-3.94 0h-3.95m-3.95 0h-3.95m-3.95 0h-3.94m-3.96 0h-3.95m-3.96 0h-3.94m-3.95 0h-3.95m-3.95 0h-3.94m-3.94 0h-1.98" stroke="#3a414a" fill="none"/><path d="M1439.5 600.94h-.5V600h.5z" stroke="#3a414a" stroke-width=".05" fill="#3a414a"/><path d="M1282.12 600.47l14.26-4.64v9.27z" stroke="#3a414a" fill="#3a414a"/><path d="M1119 600h-1.97m-3.95 0h-3.95m-3.95 0h-3.94m-3.95 0h-3.96m-3.95 0h-3.96m-3.94 0h-3.95m-3.95 0h-3.95m-3.94 0h-3.94m-3.95 0h-3.94m-3.94 0h-3.95m-3.95 0h-3.95m-3.94 0h-3.95m-3.95 0h-3.95m-3.95 0h-3.94m-3.96 0h-3.95m-3.96 0h-3.94m-3.95 0h-3.95m-3.95 0h-3.95m-3.94 0h-1.98" stroke="#3a414a" fill="none"/><path d="M1119.5 600.48h-.5v-.96h.5z" stroke="#3a414a" stroke-width=".05" fill="#3a414a"/><path d="M962.12 600l14.26-4.63v9.26z" stroke="#3a414a" fill="#3a414a"/><path d="M961 518.67h142.12" stroke="#3a414a" fill="none"/><path d="M961 519.14h-.5v-.95h.5z" stroke="#3a414a" stroke-width=".05" fill="#3a414a"/><path d="M1117.88 518.67l-14.26 4.63v-9.27z" stroke="#3a414a" fill="#3a414a"/><defs><path fill="#3a414a" d="M1141-549c0 329-147 569-455 569-159 0-273-61-344-161h-12c23 199 7 418 12 633H176v-1588h135l23 150h8c77-108 175-170 344-170 311 0 455 237 455 567zm-172-2c0-242-88-424-307-424-256 0-323 154-320 426 3 280 68 430 324 430 213 0 303-196 303-432" id="g"/><path fill="#3a414a" d="M340-893c80-153 237-262 467-211l-23 154c-45-10-85-15-120-15-184-3-322 182-322 377V0H176v-1096h137l19 203h8" id="h"/><path fill="#3a414a" d="M621-1116c316 0 501 239 501 567 0 339-180 575-508 569S119-212 115-549c-4-339 178-567 506-567zm-5 141c-239 0-329 168-329 426 0 255 93 430 331 430s332-174 332-430-95-426-334-426" id="i"/><path fill="#3a414a" d="M287-543c-1 247 91 418 323 418 91 0 185-20 281-59v147C818 1 725 20 614 20c-329 0-499-221-499-561 0-349 172-575 510-575 96 0 221 26 282 57l-51 141c-61-25-157-50-235-51-223 0-334 142-334 426" id="j"/><path fill="#3a414a" d="M995-51C878-2 799 19 639 20c-329 2-524-221-524-559 0-326 172-577 481-577 278 0 451 210 446 493v105H287c4 242 121 392 358 393 118 0 235-25 350-74v148zM864-653c2-195-85-324-270-324-190 0-288 139-303 324h573" id="k"/><path fill="#3a414a" d="M502-977c-130 0-238 32-238 139 0 75 39 101 95 134 33 19 97 46 192 81 130 48 217 95 263 143s69 108 69 181C883-73 695 20 449 20 304 20 190-3 109-49v-154c91 47 216 86 344 86 149 0 270-36 270-168 0-43-21-76-55-109-56-55-367-158-434-208-74-55-128-109-128-225 0-327 490-342 754-217l-59 135c-110-45-210-68-299-68" id="l"/><g id="a"><use transform="matrix(0.010850694444444444,0,0,0.010850694444444444,0,0)" xlink:href="#g"/><use transform="matrix(0.010850694444444444,0,0,0.010850694444444444,13.617621527777777,0)" xlink:href="#h"/><use transform="matrix(0.010850694444444444,0,0,0.010850694444444444,22.24392361111111,0)" xlink:href="#i"/><use transform="matrix(0.010850694444444444,0,0,0.010850694444444444,35.666232638888886,0)" xlink:href="#j"/><use transform="matrix(0.010850694444444444,0,0,0.010850694444444444,46.24565972222221,0)" xlink:href="#k"/><use transform="matrix(0.010850694444444444,0,0,0.010850694444444444,58.71310763888888,0)" xlink:href="#l"/><use transform="matrix(0.010850694444444444,0,0,0.010850694444444444,69.3142361111111,0)" xlink:href="#l"/></g><path fill="#3a414a" d="M588-1114c260 0 384 106 385 366V0H850l-33-156h-8C708-34 639 17 442 20 231 23 94-94 94-303c0-221 177-337 531-348l186-6c11-203-40-320-233-320-91 0-195 28-310 84l-51-127c97-53 229-94 371-94zM268-301c-1 123 81 184 207 184 203 0 334-120 332-323v-99c-257 14-539-7-539 238" id="m"/><use transform="matrix(0.010850694444444444,0,0,0.010850694444444444,0,0)" xlink:href="#m" id="b"/><path fill="#3a414a" d="M1368-1116c259 2 372 131 371 401V0h-166v-713c0-168-66-262-230-262-221 0-303 131-303 363V0H874v-713c-1-169-66-262-231-262-235 0-301 142-301 400V0H176v-1096h135l27 150h8c56-99 174-170 324-170 171 0 283 62 336 186h8c60-108 189-187 354-186" id="n"/><path fill="#3a414a" d="M342 0H176v-1096h166V0zm-82-1282c-61 0-98-43-98-111 0-69 36-110 98-110 59 0 98 43 98 110s-39 111-98 111" id="o"/><g id="c"><use transform="matrix(0.010850694444444444,0,0,0.010850694444444444,0,0)" xlink:href="#g"/><use transform="matrix(0.010850694444444444,0,0,0.010850694444444444,13.617621527777777,0)" xlink:href="#h"/><use transform="matrix(0.010850694444444444,0,0,0.010850694444444444,22.24392361111111,0)" xlink:href="#i"/><use transform="matrix(0.010850694444444444,0,0,0.010850694444444444,35.666232638888886,0)" xlink:href="#n"/><use transform="matrix(0.010850694444444444,0,0,0.010850694444444444,56.33680555555555,0)" xlink:href="#o"/><use transform="matrix(0.010850694444444444,0,0,0.010850694444444444,61.95746527777778,0)" xlink:href="#l"/><use transform="matrix(0.010850694444444444,0,0,0.010850694444444444,72.55859375,0)" xlink:href="#k"/></g><path fill="#3a414a" d="M440-561L59-1096h189l289 420 288-420h187L631-561 1032 0H844L537-444 227 0H39" id="p"/><path fill="#3a414a" d="M563 20c-271 0-399-123-399-399v-717h168v711c1 177 76 266 252 266 250 0 331-135 331-401v-576h166V0H944l-24-147h-9C848-44 724 20 563 20" id="q"/><path fill="#3a414a" d="M354-322c-2 123 60 204 176 205 51 1 114-10 150-20v127C647 7 557 20 506 20 294 20 188-92 188-315v-652H31v-80l157-69 70-234h96v254h318v129H354v645" id="r"/><path fill="#3a414a" d="M694-1116c270 0 399 125 398 401V0H926v-709c-1-177-76-266-252-266-250 0-332 133-332 400V0H176v-1096h135l27 150h8c62-101 190-170 348-170" id="s"/><g id="d"><use transform="matrix(0.010850694444444444,0,0,0.010850694444444444,0,0)" xlink:href="#k"/><use transform="matrix(0.010850694444444444,0,0,0.010850694444444444,12.022569444444445,0)" xlink:href="#p"/><use transform="matrix(0.010850694444444444,0,0,0.010850694444444444,23.220486111111114,0)" xlink:href="#k"/><use transform="matrix(0.010850694444444444,0,0,0.010850694444444444,35.68793402777778,0)" xlink:href="#j"/><use transform="matrix(0.010850694444444444,0,0,0.010850694444444444,46.26736111111111,0)" xlink:href="#q"/><use transform="matrix(0.010850694444444444,0,0,0.010850694444444444,59.90668402777778,0)" xlink:href="#r"/><use transform="matrix(0.010850694444444444,0,0,0.010850694444444444,67.75173611111111,0)" xlink:href="#o"/><use transform="matrix(0.010850694444444444,0,0,0.010850694444444444,73.37239583333334,0)" xlink:href="#i"/><use transform="matrix(0.010850694444444444,0,0,0.010850694444444444,86.79470486111111,0)" xlink:href="#s"/></g><path fill="#3a414a" d="M84-473v-152h491v152H84" id="t"/><path fill="#3a414a" d="M342 0H176v-1556h166V0" id="u"/><path fill="#3a414a" d="M526-162c88-293 120-356 326-934h178L559 152c-47 123-102 209-163 262-93 80-237 94-380 61V342c184 39 305-9 367-180L444 6 2-1096h178c103 283 263 645 338 934h8" id="v"/><g id="e"><use transform="matrix(0.008680555555555556,0,0,0.008680555555555556,0,0)" xlink:href="#k"/><use transform="matrix(0.008680555555555556,0,0,0.008680555555555556,9.618055555555555,0)" xlink:href="#p"/><use transform="matrix(0.008680555555555556,0,0,0.008680555555555556,18.576388888888886,0)" xlink:href="#k"/><use transform="matrix(0.008680555555555556,0,0,0.008680555555555556,28.550347222222218,0)" xlink:href="#j"/><use transform="matrix(0.008680555555555556,0,0,0.008680555555555556,37.013888888888886,0)" xlink:href="#q"/><use transform="matrix(0.008680555555555556,0,0,0.008680555555555556,47.92534722222222,0)" xlink:href="#r"/><use transform="matrix(0.008680555555555556,0,0,0.008680555555555556,54.201388888888886,0)" xlink:href="#o"/><use transform="matrix(0.008680555555555556,0,0,0.008680555555555556,58.697916666666664,0)" xlink:href="#i"/><use transform="matrix(0.008680555555555556,0,0,0.008680555555555556,69.43576388888889,0)" xlink:href="#s"/><use transform="matrix(0.008680555555555556,0,0,0.008680555555555556,80.34722222222221,0)" xlink:href="#t"/><use transform="matrix(0.008680555555555556,0,0,0.008680555555555556,86.06770833333331,0)" xlink:href="#u"/><use transform="matrix(0.008680555555555556,0,0,0.008680555555555556,90.5642361111111,0)" xlink:href="#i"/><use transform="matrix(0.008680555555555556,0,0,0.008680555555555556,101.30208333333333,0)" xlink:href="#j"/><use transform="matrix(0.008680555555555556,0,0,0.008680555555555556,109.765625,0)" xlink:href="#m"/><use transform="matrix(0.008680555555555556,0,0,0.008680555555555556,119.65277777777777,0)" xlink:href="#u"/><use transform="matrix(0.008680555555555556,0,0,0.008680555555555556,124.14930555555554,0)" xlink:href="#o"/><use transform="matrix(0.008680555555555556,0,0,0.008680555555555556,128.64583333333331,0)" xlink:href="#r"/><use transform="matrix(0.008680555555555556,0,0,0.008680555555555556,134.92187499999997,0)" xlink:href="#v"/></g><path fill="#3a414a" d="M686 20c-159 0-273-61-344-161h-12L295 0H176v-1556h166c-2 198 6 423-8 606h8c77-109 192-164 344-164 310 0 455 234 455 565 0 329-147 569-455 569zm283-571c0-257-72-424-307-424-256 0-320 146-320 426s68 430 324 430c228 0 303-184 303-432" id="w"/><use transform="matrix(0.010850694444444444,0,0,0.010850694444444444,0,0)" xlink:href="#w" id="f"/></defs></g></svg>