<svg xmlns="http://www.w3.org/2000/svg" xmlns:lucid="lucid" width="1602" height="322"><g lucid:page-tab-id="0_0"><path d="M-219-319h2000V681H-219z" fill="#fff"/><path d="M1 1h1600v320H1z" stroke="#000" stroke-opacity="0" stroke-width="2" fill="#fff"/><path d="M1061 281c0 11.05-8.95 20-20 20s-20-8.95-20-20 8.95-20 20-20 20 8.95 20 20z" stroke="#3a414a" stroke-width="2" fill="#3a414a"/><path d="M580 50.98l427.5 213.64" stroke="#3a414a" fill="none"/><path d="M580.24 50.56l-.43.85-.44-.22.1-.12.28-.74z" stroke="#3a414a" stroke-width=".05" fill="#3a414a"/><path d="M1020.7 271.22L1005.9 269l4.14-8.3z" stroke="#3a414a" fill="#3a414a"/><path d="M81.5 41h1439M81.5 41H81M1520.5 41h.5M81.5 281h1439M81.5 281H81M1520.5 281h.5" stroke="#3a414a" fill="none"/><path d="M581 41c0 11.05-8.95 20-20 20s-20-8.95-20-20 8.95-20 20-20 20 8.95 20 20z" stroke="#3a414a" stroke-width="2" fill="#fff"/></g></svg>