<svg xmlns="http://www.w3.org/2000/svg" xmlns:xlink="http://www.w3.org/1999/xlink" xmlns:lucid="lucid" width="1602" height="1322"><g transform="translate(-439 -559)" lucid:page-tab-id="0_0"><path d="M0 500h2500v1500H0z" fill="#fff"/><path d="M440 566a6 6 0 0 1 6-6h1588a6 6 0 0 1 6 6v1308a6 6 0 0 1-6 6H446a6 6 0 0 1-6-6z" stroke="#000" stroke-opacity="0" stroke-width="2" fill="#fff"/><path d="M1280 680h240v1160h-240zM1760 680h240v1160h-240zM480 680h720v1160H480z" stroke="#000" stroke-opacity="0" fill="#f2f3f5"/><path d="M520 720h160v80H520z" stroke="#353f58" fill="#fff"/><use xlink:href="#a" transform="matrix(1,0,0,1,525,725) translate(39.505208333333336 46.002604166666664)"/><path d="M1000 720h160v80h-160z" stroke="#353f58" fill="#fff"/><use xlink:href="#b" transform="matrix(1,0,0,1,1005,725) translate(37.46744791666667 46.002604166666664)"/><path d="M560 920h80v679.56h-80zM1320 720h160v80h-160z" stroke="#353f58" fill="#fff"/><use xlink:href="#a" transform="matrix(1,0,0,1,1325,725) translate(39.505208333333336 46.002604166666664)"/><path d="M1800 720h160v80h-160z" stroke="#353f58" fill="#fff"/><use xlink:href="#b" transform="matrix(1,0,0,1,1805,725) translate(37.46744791666667 46.002604166666664)"/><path d="M1040 960h80v480h-80zM1840 955.3h80V1440h-80zM1360 920h80v679.56h-80z" stroke="#353f58" fill="#fff"/><path d="M560 960h80v480h-80zM1360 1320h80v120h-80z" stroke="#353f58" fill="#3a414a"/><path d="M520 566a6 6 0 0 1 6-6h628a6 6 0 0 1 6 6v108a6 6 0 0 1-6 6H526a6 6 0 0 1-6-6z" stroke="#000" stroke-opacity="0" fill="#fff" fill-opacity="0"/><use xlink:href="#c" transform="matrix(1,0,0,1,525,565) translate(206.396484375 70.50390624999999)"/><path d="M600 801v118" stroke="#353f58" fill="none"/><path d="M600.48 801h-.96v-.5h.96zM600.48 919.5h-.96v-.5h.96z" stroke="#353f58" stroke-width=".05" fill="#353f58"/><path d="M600 1600.56v149.1" stroke="#353f58" fill="none"/><path d="M600.48 1600.57h-.96v-.5h.96z" stroke="#353f58" stroke-width=".05" fill="#353f58"/><path d="M615 1764.5c0 8.28-6.72 15-15 15-8.28 0-15-6.72-15-15 0-8.28 6.72-15 15-15 8.28 0 15 6.72 15 15z" stroke="#353f58" fill="#fff"/><path d="M1080 1441v308.67" stroke="#353f58" fill="none"/><path d="M1080.47 1441h-.94v-.5h.94z" stroke="#353f58" stroke-width=".05" fill="#353f58"/><path d="M1095 1764.5c0 8.28-6.72 15-15 15-8.28 0-15-6.72-15-15 0-8.28 6.72-15 15-15 8.28 0 15 6.72 15 15z" stroke="#353f58" fill="#fff"/><path d="M1080 801v158" stroke="#353f58" fill="none"/><path d="M1080.47 801h-.94v-.5h.94zM1080.47 959.5h-.94v-.5h.94z" stroke="#353f58" stroke-width=".05" fill="#353f58"/><path d="M1400 801v118" stroke="#353f58" fill="none"/><path d="M1400.47 801h-.94v-.5h.94zM1400.47 919.5h-.94v-.5h.94z" stroke="#353f58" stroke-width=".05" fill="#353f58"/><path d="M1400 1600.56v149.1" stroke="#353f58" fill="none"/><path d="M1400.47 1600.57h-.94v-.5h.94z" stroke="#353f58" stroke-width=".05" fill="#353f58"/><path d="M1415 1764.5c0 8.28-6.72 15-15 15-8.28 0-15-6.72-15-15 0-8.28 6.72-15 15-15 8.28 0 15 6.72 15 15z" stroke="#353f58" fill="#fff"/><path d="M1880 801v153.3" stroke="#353f58" fill="none"/><path d="M1880.47 801h-.94v-.5h.94zM1880.47 954.8h-.94v-.5h.94z" stroke="#353f58" stroke-width=".05" fill="#353f58"/><path d="M1880 1441v308.67" stroke="#353f58" fill="none"/><path d="M1880.47 1441h-.94v-.5h.94z" stroke="#353f58" stroke-width=".05" fill="#353f58"/><path d="M1895 1764.5c0 8.28-6.72 15-15 15-8.28 0-15-6.72-15-15 0-8.28 6.72-15 15-15 8.28 0 15 6.72 15 15z" stroke="#353f58" fill="#fff"/><path d="M641 959.92h382.12" stroke="#353f58" fill="none"/><path d="M641 960.4h-.5v-.95h.5z" stroke="#353f58" stroke-width=".05" fill="#353f58"/><path d="M1037.88 959.92l-14.26 4.64v-9.27z" stroke="#353f58" fill="#353f58"/><path d="M1039 1440.5h-2m-4 0h-3.98m-4 0h-4m-3.98 0h-4m-3.98 0h-4m-4 0h-3.98m-4 0h-4m-3.98 0h-4m-3.98 0h-4m-4 0h-3.98m-4 0h-4m-3.98 0h-4m-3.98 0h-4m-4 0h-3.98m-4 0h-4m-3.98 0h-4m-3.98 0h-4m-4 0h-3.98m-4 0h-4m-3.98 0h-4m-3.98 0h-4m-4 0h-3.98m-4 0h-3.98m-4 0h-4m-3.98 0h-4m-4 0h-3.98m-4 0h-3.98m-4 0h-4m-3.98 0h-4m-4 0h-3.98m-4 0h-3.98m-4 0h-4m-3.98 0h-4m-4 0h-3.98m-4 0h-3.98m-4 0h-4m-3.98 0h-4m-4 0h-3.98m-4 0h-3.98m-4 0h-4m-3.98 0h-4m-4 0h-3.98m-4 0h-3.98m-4 0h-4m-3.98 0h-4m-4 0h-3.98m-4 0h-3.98m-4 0h-4m-3.98 0h-2" stroke="#353f58" fill="none"/><path d="M1039.5 1440.5h3v.47h-3.5v-.94h.5z" stroke="#353f58" stroke-width=".05" fill="#353f58"/><path d="M640.96 1440.5l14.26-4.63v9.27z" stroke="#353f58" fill="#353f58"/><path d="M720 906a6 6 0 0 1 6-6h228a6 6 0 0 1 6 6v48a6 6 0 0 1-6 6H726a6 6 0 0 1-6-6z" stroke="#000" stroke-opacity="0" fill="#fff" fill-opacity="0"/><use xlink:href="#d" transform="matrix(1,0,0,1,725,905) translate(25.55338541666667 34.752604166666664)"/><use xlink:href="#e" transform="matrix(1,0,0,1,725,905) translate(107.54557291666667 34.752604166666664)"/><path d="M720 1446a6 6 0 0 1 6-6h228a6 6 0 0 1 6 6v48a6 6 0 0 1-6 6H726a6 6 0 0 1-6-6z" stroke="#000" stroke-opacity="0" fill="#fff" fill-opacity="0"/><use xlink:href="#f" transform="matrix(1,0,0,1,725,1445) translate(43.60677083333334 34.752604166666664)"/><use xlink:href="#g" transform="matrix(1,0,0,1,725,1445) translate(123.69791666666667 34.752604166666664)"/><path d="M1456.88 959.05h183.1a.02.02 0 0 1 .02 0 .02.02 0 0 0 .02.03h183.1" stroke="#353f58" fill="none"/><path d="M1442.12 959.05l14.26-4.64v9.28zM1837.88 959.08l-14.26 4.64v-9.27z" stroke="#353f58" fill="#353f58"/><path d="M1441 1321h382.12" stroke="#353f58" fill="none"/><path d="M1441 1321.48h-.5v-.95h.5z" stroke="#353f58" stroke-width=".05" fill="#353f58"/><path d="M1837.88 1321l-14.26 4.64v-9.27z" stroke="#353f58" fill="#353f58"/><path d="M1839 1440.5h-2m-4.02 0h-4m-4.02 0h-4m-4.02 0h-4m-4.03 0h-4m-4 0h-4.02m-4 0h-4.02m-4 0h-4.03m-4 0h-4.02m-4 0h-4m-4.02 0h-4.02m-4 0h-4.02m-4 0h-4.02m-4 0h-4.03m-4.02 0h-4m-4.02 0h-4m-4.02 0h-4.02m-4 0h-4.02m-4 0h-4.02m-4 0h-4.02m-4.02 0h-4m-4.02 0h-4m-4.02 0h-4m-4.03 0h-4m-4.02 0h-4m-4.02 0h-4m-4.03 0h-4m-4.02 0h-4m-4.02 0h-4m-4.02 0h-4.02m-4 0h-4.02m-4 0h-4.02m-4 0h-4.02m-4.02 0h-4m-4.02 0h-4m-4.02 0h-4.02m-4 0h-4.02m-4 0h-4.02m-4 0h-4.02m-4.02 0h-4m-4.02 0h-4m-4.02 0h-4m-4.02 0h-4.02m-4 0H1492m-4 0h-4.02m-4.02 0h-4m-4.02 0h-4m-4.02 0h-4m-4.02 0h-2" stroke="#353f58" fill="none"/><path d="M1839.5 1440.5h3v.47h-3.5v-.94h.5z" stroke="#353f58" stroke-width=".05" fill="#353f58"/><path d="M1439.12 1440.5l14.27-4.63v9.27z" stroke="#353f58" fill="#353f58"/><path d="M1520 906a6 6 0 0 1 6-6h228a6 6 0 0 1 6 6v48a6 6 0 0 1-6 6h-228a6 6 0 0 1-6-6z" stroke="#000" stroke-opacity="0" fill="#fff" fill-opacity="0"/><use xlink:href="#d" transform="matrix(1,0,0,1,1525,905) translate(25.55338541666667 34.752604166666664)"/><use xlink:href="#e" transform="matrix(1,0,0,1,1525,905) translate(107.54557291666667 34.752604166666664)"/><path d="M1520 966a6 6 0 0 1 6-6h228a6 6 0 0 1 6 6v48.9a6 6 0 0 1-6 6h-228a6 6 0 0 1-6-6z" stroke="#000" stroke-opacity="0" fill="#fff" fill-opacity="0"/><use xlink:href="#f" transform="matrix(1,0,0,1,1525,965) translate(27.46744791666667 34.877604166666664)"/><use xlink:href="#h" transform="matrix(1,0,0,1,1525,965) translate(107.55859375 34.877604166666664)"/><path d="M1520 1266a6 6 0 0 1 6-6h228a6 6 0 0 1 6 6v48a6 6 0 0 1-6 6h-228a6 6 0 0 1-6-6z" stroke="#000" stroke-opacity="0" fill="#fff" fill-opacity="0"/><use xlink:href="#i" transform="matrix(1,0,0,1,1525,1265) translate(31.71875 34.752604166666664)"/><use xlink:href="#h" transform="matrix(1,0,0,1,1525,1265) translate(103.30729166666666 34.752604166666664)"/><path d="M1520 1446.44a6 6 0 0 1 6-6h228a6 6 0 0 1 6 6V1494a6 6 0 0 1-6 6h-228a6 6 0 0 1-6-6z" stroke="#000" stroke-opacity="0" fill="#fff" fill-opacity="0"/><g><use xlink:href="#f" transform="matrix(1,0,0,1,1525,1445.443214741465) translate(43.60677083333334 34.752604166666664)"/><use xlink:href="#g" transform="matrix(1,0,0,1,1525,1445.443214741465) translate(123.69791666666667 34.752604166666664)"/></g><path d="M1320 566a6 6 0 0 1 6-6h628a6 6 0 0 1 6 6v108a6 6 0 0 1-6 6h-628a6 6 0 0 1-6-6z" stroke="#000" stroke-opacity="0" fill="#fff" fill-opacity="0"/><g><use xlink:href="#j" transform="matrix(1,0,0,1,1325,565) translate(193.47656250000006 70.50390624999999)"/><use xlink:href="#k" transform="matrix(1,0,0,1,1325,565) translate(320.95703125 70.50390624999999)"/></g><defs><path fill="#353f58" d="M125-733c6-459 248-750 704-750 153 0 287 28 402 84l-72 146c-111-52-221-78-332-78-334-1-520 251-520 600 0 361 171 600 518 600 102 0 218-18 349-55v149C1073 1 948 20 799 20c-445 1-680-294-674-753" id="l"/><path fill="#353f58" d="M588-1114c260 0 384 106 385 366V0H850l-33-156h-8C708-34 639 17 442 20 231 23 94-94 94-303c0-221 177-337 531-348l186-6c11-203-40-320-233-320-91 0-195 28-310 84l-51-127c97-53 229-94 371-94zM268-301c-1 123 81 184 207 184 203 0 334-120 332-323v-99c-257 14-539-7-539 238" id="m"/><path fill="#353f58" d="M342 0H176v-1556h166V0" id="n"/><path fill="#353f58" d="M995-51C878-2 799 19 639 20c-329 2-524-221-524-559 0-326 172-577 481-577 278 0 451 210 446 493v105H287c4 242 121 392 358 393 118 0 235-25 350-74v148zM864-653c2-195-85-324-270-324-190 0-288 139-303 324h573" id="o"/><path fill="#353f58" d="M340-893c80-153 237-262 467-211l-23 154c-45-10-85-15-120-15-184-3-322 182-322 377V0H176v-1096h137l19 203h8" id="p"/><g id="a"><use transform="matrix(0.013020833333333332,0,0,0.013020833333333332,0,0)" xlink:href="#l"/><use transform="matrix(0.013020833333333332,0,0,0.013020833333333332,16.822916666666664,0)" xlink:href="#m"/><use transform="matrix(0.013020833333333332,0,0,0.013020833333333332,31.653645833333332,0)" xlink:href="#n"/><use transform="matrix(0.013020833333333332,0,0,0.013020833333333332,38.39843749999999,0)" xlink:href="#n"/><use transform="matrix(0.013020833333333332,0,0,0.013020833333333332,45.14322916666666,0)" xlink:href="#o"/><use transform="matrix(0.013020833333333332,0,0,0.013020833333333332,60.104166666666664,0)" xlink:href="#p"/></g><g id="b"><use transform="matrix(0.013020833333333332,0,0,0.013020833333333332,0,0)" xlink:href="#l"/><use transform="matrix(0.013020833333333332,0,0,0.013020833333333332,16.822916666666664,0)" xlink:href="#m"/><use transform="matrix(0.013020833333333332,0,0,0.013020833333333332,31.653645833333332,0)" xlink:href="#n"/><use transform="matrix(0.013020833333333332,0,0,0.013020833333333332,38.39843749999999,0)" xlink:href="#n"/><use transform="matrix(0.013020833333333332,0,0,0.013020833333333332,45.14322916666666,0)" xlink:href="#o"/><use transform="matrix(0.013020833333333332,0,0,0.013020833333333332,60.104166666666664,0)" xlink:href="#o"/></g><path fill="#353f58" d="M748 0H438v-1204H41v-258h1104v258H748V0" id="q"/><path fill="#353f58" d="M451-930c71-134 228-244 436-200l-23 286c-220-45-399 61-399 275V0H160v-1118h231l45 188h15" id="r"/><path fill="#353f58" d="M618-1141c286 0 465 117 465 396V0H870l-59-152h-8C704-33 632 18 432 20 216 22 86-113 86-334c0-119 44-202 124-262 109-82 356-99 570-100 11-142-39-219-174-219-89 0-194 27-315 81l-101-206c129-67 271-101 428-101zm-71 938c137 0 235-88 233-223v-92c-190 3-382 4-381 186 0 86 49 129 148 129" id="s"/><path fill="#353f58" d="M92-557c0-327 132-582 430-582 141 0 248 55 322 164h10c-38-188-18-371-23-581h306V0H903l-59-145h-13C762-35 656 20 514 20 222 20 92-237 92-557zm309 4c0 190 54 330 220 330 191 0 231-123 231-332 0-214-44-336-236-336-161 0-215 151-215 338" id="t"/><path fill="#353f58" d="M479-1407c-1 99-61 150-166 150-111 0-166-50-166-150 0-99 55-149 166-149s166 50 166 149zM465 0H160v-1118h305V0" id="u"/><path fill="#353f58" d="M498-350c-2 85 52 126 133 127 53 0 117-12 192-35v227C747 3 654 20 543 20c-247 0-350-124-350-370v-539H47v-129l168-102 88-236h195v238h313v229H498v539" id="v"/><path fill="#353f58" d="M633-893c-183 0-230 133-230 332s48 336 232 336c183 0 229-137 229-336s-47-332-231-332zm4-246c347 5 535 225 539 578S978 25 631 20C283 15 96-208 92-561c-4-355 196-583 545-578" id="w"/><path fill="#353f58" d="M795-1139c261-1 398 148 397 410V0H887v-653c-1-148-42-242-180-242-202 0-242 139-242 369V0H160v-1118h233l41 143h17c62-102 185-163 344-164" id="x"/><path fill="#353f58" d="M465 0H160v-1556h305V0" id="y"/><g id="c"><use transform="matrix(0.019531249999999993,0,0,0.019531249999999993,0,0)" xlink:href="#q"/><use transform="matrix(0.019531249999999993,0,0,0.019531249999999993,21.171874999999993,0)" xlink:href="#r"/><use transform="matrix(0.019531249999999993,0,0,0.019531249999999993,38.535156249999986,0)" xlink:href="#s"/><use transform="matrix(0.019531249999999993,0,0,0.019531249999999993,62.69531249999998,0)" xlink:href="#t"/><use transform="matrix(0.019531249999999993,0,0,0.019531249999999993,88.00781249999997,0)" xlink:href="#u"/><use transform="matrix(0.019531249999999993,0,0,0.019531249999999993,100.21484374999996,0)" xlink:href="#v"/><use transform="matrix(0.019531249999999993,0,0,0.019531249999999993,117.57812499999997,0)" xlink:href="#u"/><use transform="matrix(0.019531249999999993,0,0,0.019531249999999993,129.78515624999997,0)" xlink:href="#w"/><use transform="matrix(0.019531249999999993,0,0,0.019531249999999993,154.55078124999997,0)" xlink:href="#x"/><use transform="matrix(0.019531249999999993,0,0,0.019531249999999993,180.83984374999997,0)" xlink:href="#s"/><use transform="matrix(0.019531249999999993,0,0,0.019531249999999993,204.99999999999997,0)" xlink:href="#y"/></g><path fill="#353f58" d="M227 0H59l234-1096h168zm205-1282c-54 0-92-37-92-94 0-71 46-128 115-127 59 0 88 30 88 90 0 66-50 132-111 131" id="z"/><path fill="#353f58" d="M791-1116c166-2 276 98 274 264 0 53-9 112-23 180L899 0H729l148-692c13-69 20-117 20-144-2-90-51-143-149-139-156 7-254 112-322 231C314-549 290-247 227 0H59l234-1096h139l-22 203h10c64-81 126-139 186-173s121-50 185-50" id="A"/><path fill="#353f58" d="M223 0L98-1096h168c27 283 81 700 88 975h6c187-416 312-607 504-975h178L451 0H223" id="B"/><path fill="#353f58" d="M508 16C253 16 98-150 98-406c0-259 115-505 270-614 84-58 174-90 275-90 253-2 410 166 410 422 0 258-113 503-267 613-83 59-175 91-278 91zM270-397c-1 168 83 278 246 274 171-4 265-133 316-281 31-90 47-192 47-307 0-147-88-262-232-258-174 5-277 132-329 279-32 88-48 186-48 293" id="C"/><path fill="#353f58" d="M330-559l526-537h201L588-629 883 0H696L461-524 309-401 227 0H57l330-1556h170c-68 300-147 742-231 997h4" id="D"/><path fill="#353f58" d="M817-59C704-8 636 18 492 20 245 23 98-141 98-391c0-259 120-515 272-629 83-63 172-96 271-96 187 0 307 79 307 252 0 120-56 213-166 282-115 72-291 106-508 103-23 208 46 364 248 358 126-4 186-33 295-84v146zm-35-791c0-80-59-123-151-123-69 0-133 31-193 94S331-729 299-618c155 1 279-19 361-60 81-40 122-97 122-172" id="E"/><g id="d"><use transform="matrix(0.013020833333333332,0,0,0.013020833333333332,0,0)" xlink:href="#z"/><use transform="matrix(0.013020833333333332,0,0,0.013020833333333332,6.770833333333333,0)" xlink:href="#A"/><use transform="matrix(0.013020833333333332,0,0,0.013020833333333332,22.161458333333332,0)" xlink:href="#B"/><use transform="matrix(0.013020833333333332,0,0,0.013020833333333332,34.479166666666664,0)" xlink:href="#C"/><use transform="matrix(0.013020833333333332,0,0,0.013020833333333332,49.440104166666664,0)" xlink:href="#D"/><use transform="matrix(0.013020833333333332,0,0,0.013020833333333332,61.91406249999999,0)" xlink:href="#E"/></g><path fill="#353f58" d="M109 405c-74 85-215 109-338 66V330c94 34 180 35 229-40 27-41 49-100 66-177L293-969H100l13-67 206-66c62-259 98-465 392-465 52 0 153 20 188 37l-43 129c-96-39-205-42-270 19-46 43-80 191-101 286h238l-25 127H461L229 129c-26 126-68 217-120 276" id="F"/><path fill="#353f58" d="M387 20c-169 1-276-98-274-268 0-41 6-99 22-172l146-676h170L301-401c-37 146-30 289 129 282 155-7 253-113 323-232 112-195 137-497 199-745h166L887 0H748l22-203h-12C693-120 630-62 571-29S450 20 387 20" id="G"/><path fill="#353f58" d="M520-119c105 0 184-35 262-67v143C699-1 607 20 506 20 249 22 98-131 98-389c0-274 115-515 278-633 156-113 369-117 562-43l-47 141c-160-67-298-75-423 26-119 97-198 295-198 509 0 164 91 271 250 270" id="H"/><path fill="#353f58" d="M303-365c-31 124-35 248 92 248 37 0 85-9 144-26v129C505 2 421 20 375 20c-162 0-258-76-258-237 0-44 6-94 18-150l127-602H90l14-73 185-78 125-228h98l-55 252h274l-26 127H432" id="I"/><g id="e"><use transform="matrix(0.013020833333333332,0,0,0.013020833333333332,0,0)" xlink:href="#F"/><use transform="matrix(0.013020833333333332,0,0,0.013020833333333332,8.346354166666666,0)" xlink:href="#G"/><use transform="matrix(0.013020833333333332,0,0,0.013020833333333332,23.736979166666664,0)" xlink:href="#A"/><use transform="matrix(0.013020833333333332,0,0,0.013020833333333332,39.127604166666664,0)" xlink:href="#H"/><use transform="matrix(0.013020833333333332,0,0,0.013020833333333332,51.1328125,0)" xlink:href="#I"/><use transform="matrix(0.013020833333333332,0,0,0.013020833333333332,59.77864583333333,0)" xlink:href="#z"/><use transform="matrix(0.013020833333333332,0,0,0.013020833333333332,66.54947916666666,0)" xlink:href="#C"/><use transform="matrix(0.013020833333333332,0,0,0.013020833333333332,81.51041666666666,0)" xlink:href="#A"/></g><path fill="#353f58" d="M638-1094c62-31 165-26 234-8l-36 150c-208-55-339 76-414 214-40 71-69 149-88 236L227 0H59l234-1096h139l-22 203h10c81-104 117-151 218-201" id="J"/><g id="f"><use transform="matrix(0.013020833333333332,0,0,0.013020833333333332,0,0)" xlink:href="#J"/><use transform="matrix(0.013020833333333332,0,0,0.013020833333333332,10.026041666666666,0)" xlink:href="#E"/><use transform="matrix(0.013020833333333332,0,0,0.013020833333333332,23.177083333333332,0)" xlink:href="#I"/><use transform="matrix(0.013020833333333332,0,0,0.013020833333333332,31.822916666666664,0)" xlink:href="#G"/><use transform="matrix(0.013020833333333332,0,0,0.013020833333333332,47.213541666666664,0)" xlink:href="#J"/><use transform="matrix(0.013020833333333332,0,0,0.013020833333333332,57.77343749999999,0)" xlink:href="#A"/></g><path fill="#353f58" d="M395 20C197 20 98-140 98-350c0-281 108-539 267-665 84-66 175-101 274-101 140 0 231 83 276 192h11l67-172h127L887 0H754l26-209h-8C653-56 527 20 395 20zM270-346c0 138 53 227 179 227 65 0 128-32 193-93 115-108 214-325 216-538 1-130-78-226-203-225-69 0-133 29-193 86-114 107-192 324-192 543" id="K"/><path fill="#353f58" d="M225 0H57l332-1556h168" id="L"/><g id="g"><use transform="matrix(0.013020833333333332,0,0,0.013020833333333332,0,0)" xlink:href="#B"/><use transform="matrix(0.013020833333333332,0,0,0.013020833333333332,12.317708333333332,0)" xlink:href="#K"/><use transform="matrix(0.013020833333333332,0,0,0.013020833333333332,27.382812499999996,0)" xlink:href="#L"/><use transform="matrix(0.013020833333333332,0,0,0.013020833333333332,34.153645833333336,0)" xlink:href="#G"/><use transform="matrix(0.013020833333333332,0,0,0.013020833333333332,49.544270833333336,0)" xlink:href="#E"/></g><path fill="#353f58" d="M786-1114c198 0 295 158 295 371 0 282-102 540-260 665-82 65-173 98-276 98-144 0-236-83-283-190h-10C229 23 215 37 123 492H-43l336-1588h139l-26 209h8c119-151 243-227 372-227zM319-346c-1 144 74 227 216 227 66 0 127-28 185-81 112-104 189-330 189-548 0-151-59-227-178-227-64 0-128 32-195 95-119 111-216 315-217 534" id="M"/><path fill="#353f58" d="M1503-838c-1-87-50-142-143-137-144 7-235 110-298 223-40 71-70 155-91 252L864 0H696l148-692c33-145 35-283-119-283-149 0-239 112-303 231C316-546 289-246 227 0H59l234-1096h139l-22 203h10c58-79 116-136 174-171s117-52 178-52c157 0 232 99 246 246h8c57-83 118-146 183-186s130-60 196-60c169 0 267 95 266 266 0 45-6 105-22 178L1505 0h-170l148-692c13-69 20-118 20-146" id="N"/><path fill="#353f58" d="M506-973c-111 0-197 55-199 156 0 37 13 68 35 96 39 50 254 158 300 206 52 54 93 108 93 204C735-85 557 20 313 20 200 20 99-3 8-49v-158c77 47 189 86 301 88 144 3 254-55 254-178 0-38-12-70-35-96s-73-62-151-107c-86-49-148-96-184-143s-54-102-54-166c-1-193 164-307 367-307 114 0 224 25 330 74l-54 137c-75-38-173-68-276-68" id="O"/><g id="h"><use transform="matrix(0.013020833333333332,0,0,0.013020833333333332,0,0)" xlink:href="#M"/><use transform="matrix(0.013020833333333332,0,0,0.013020833333333332,15.390624999999998,0)" xlink:href="#J"/><use transform="matrix(0.013020833333333332,0,0,0.013020833333333332,25.416666666666664,0)" xlink:href="#C"/><use transform="matrix(0.013020833333333332,0,0,0.013020833333333332,40.377604166666664,0)" xlink:href="#N"/><use transform="matrix(0.013020833333333332,0,0,0.013020833333333332,63.63281249999999,0)" xlink:href="#z"/><use transform="matrix(0.013020833333333332,0,0,0.013020833333333332,70.40364583333333,0)" xlink:href="#O"/><use transform="matrix(0.013020833333333332,0,0,0.013020833333333332,81.82291666666666,0)" xlink:href="#E"/></g><path fill="#353f58" d="M958-145c122-335 154-375 406-951h178L1036 0H831c-14-307-41-606-36-930h-9C654-611 504-309 362 0H160l-43-1096h164c6 309 30 642 10 951h6c116-298 297-655 432-951h182c16 302 50 641 41 951h6" id="P"/><g id="i"><use transform="matrix(0.013020833333333332,0,0,0.013020833333333332,0,0)" xlink:href="#K"/><use transform="matrix(0.013020833333333332,0,0,0.013020833333333332,15.065104166666666,0)" xlink:href="#P"/><use transform="matrix(0.013020833333333332,0,0,0.013020833333333332,34.1796875,0)" xlink:href="#K"/><use transform="matrix(0.013020833333333332,0,0,0.013020833333333332,49.244791666666664,0)" xlink:href="#z"/><use transform="matrix(0.013020833333333332,0,0,0.013020833333333332,56.01562499999999,0)" xlink:href="#I"/></g><path fill="#353f58" d="M1079 0L973-348H440L334 0H0l516-1468h379L1413 0h-334zM899-608c-127-415-146-457-192-633-22 85-85 296-189 633h381" id="Q"/><path fill="#353f58" d="M836-831c-99-39-182-77-306-82-139-6-173 83-92 144 51 39 327 139 383 188 71 62 119 126 119 249C940-74 747 21 463 20 305 20 202 0 94-45v-252c93 45 253 94 379 94 111 0 166-32 166-96 0-68-41-76-98-109-79-46-276-119-333-167-74-61-116-125-116-252 0-368 555-367 836-224" id="R"/><path fill="#353f58" d="M0-1118h334l211 629c18 55 30 119 37 194h6c7-69 23-133 43-194l207-629h327L692 143C611 389 392 544 70 475V233c95 21 196 18 262-37 50-42 89-123 112-204" id="S"/><path fill="#353f58" d="M954-63C853 0 774 20 614 20 266 20 92-171 92-553c0-369 188-586 549-586 129 0 245 25 348 76l-90 236c-84-31-156-66-258-66-159 0-238 113-238 338 0 219 79 328 238 328 137 0 223-38 313-97v261" id="T"/><g id="j"><use transform="matrix(0.019531249999999993,0,0,0.019531249999999993,0,0)" xlink:href="#Q"/><use transform="matrix(0.019531249999999993,0,0,0.019531249999999993,27.59765624999999,0)" xlink:href="#R"/><use transform="matrix(0.019531249999999993,0,0,0.019531249999999993,47.480468749999986,0)" xlink:href="#S"/><use transform="matrix(0.019531249999999993,0,0,0.019531249999999993,70.23437499999997,0)" xlink:href="#x"/><use transform="matrix(0.019531249999999993,0,0,0.019531249999999993,96.52343749999997,0)" xlink:href="#T"/></g><path fill="#353f58" d="M1079 0c-64-298-133-592-202-885h-7L666 0H338L20-1118h304c74 305 149 505 192 862h6c25-292 125-597 189-862h336c64 284 150 545 182 862h6c7-69 49-308 65-367l134-495h299L1411 0h-332" id="U"/><g id="k"><use transform="matrix(0.019531249999999993,0,0,0.019531249999999993,0,0)" xlink:href="#Q"/><use transform="matrix(0.019531249999999993,0,0,0.019531249999999993,27.59765624999999,0)" xlink:href="#U"/><use transform="matrix(0.019531249999999993,0,0,0.019531249999999993,61.83593749999997,0)" xlink:href="#s"/><use transform="matrix(0.019531249999999993,0,0,0.019531249999999993,85.99609374999997,0)" xlink:href="#u"/><use transform="matrix(0.019531249999999993,0,0,0.019531249999999993,98.20312499999997,0)" xlink:href="#v"/></g></defs></g></svg>